<?xml version="1.0" encoding="UTF-8"?>
<svg xmlns="http://www.w3.org/2000/svg" xmlns:xlink="http://www.w3.org/1999/xlink" width="159pt" height="152pt" viewBox="0 0 159 152" version="1.1">
<defs>
<clipPath id="clip1">
  <path d="M 17.421875 44.21875 L 21 44.21875 L 21 141.792969 L 17.421875 141.792969 Z M 17.421875 44.21875 "/>
</clipPath>
<clipPath id="clip2">
  <path d="M 20.035156 44.21875 L 21 44.21875 L 21 141.792969 L 20.035156 141.792969 Z M 20.035156 44.21875 "/>
</clipPath>
<clipPath id="clip3">
  <path d="M 20.035156 44.21875 L 21.972656 44.21875 L 21.972656 141.792969 L 20.035156 141.792969 Z M 20.035156 44.21875 "/>
</clipPath>
<clipPath id="clip4">
  <path d="M 21.003906 44.21875 L 21.972656 44.21875 L 21.972656 141.792969 L 21.003906 141.792969 Z M 21.003906 44.21875 "/>
</clipPath>
<clipPath id="clip5">
  <path d="M 21.972656 44.21875 L 22.941406 44.21875 L 22.941406 141.792969 L 21.972656 141.792969 Z M 21.972656 44.21875 "/>
</clipPath>
<clipPath id="clip6">
  <path d="M 22 44.21875 L 22.941406 44.21875 L 22.941406 141.792969 L 22 141.792969 Z M 22 44.21875 "/>
</clipPath>
<clipPath id="clip7">
  <path d="M 22 44.21875 L 23.910156 44.21875 L 23.910156 141.792969 L 22 141.792969 Z M 22 44.21875 "/>
</clipPath>
<clipPath id="clip8">
  <path d="M 23 44.21875 L 23.910156 44.21875 L 23.910156 141.792969 L 23 141.792969 Z M 23 44.21875 "/>
</clipPath>
<clipPath id="clip9">
  <path d="M 23.910156 44.21875 L 24.878906 44.21875 L 24.878906 141.792969 L 23.910156 141.792969 Z M 23.910156 44.21875 "/>
</clipPath>
<clipPath id="clip10">
  <path d="M 24 44.21875 L 24.878906 44.21875 L 24.878906 141.792969 L 24 141.792969 Z M 24 44.21875 "/>
</clipPath>
<clipPath id="clip11">
  <path d="M 24 44.21875 L 25 44.21875 L 25 141.792969 L 24 141.792969 Z M 24 44.21875 "/>
</clipPath>
<clipPath id="clip12">
  <path d="M 24.878906 44.21875 L 25.847656 44.21875 L 25.847656 141.792969 L 24.878906 141.792969 Z M 24.878906 44.21875 "/>
</clipPath>
<clipPath id="clip13">
  <path d="M 25 44.21875 L 25.847656 44.21875 L 25.847656 141.792969 L 25 141.792969 Z M 25 44.21875 "/>
</clipPath>
<clipPath id="clip14">
  <path d="M 25.847656 44.21875 L 26.816406 44.21875 L 26.816406 141.792969 L 25.847656 141.792969 Z M 25.847656 44.21875 "/>
</clipPath>
<clipPath id="clip15">
  <path d="M 26 44.21875 L 26.816406 44.21875 L 26.816406 141.792969 L 26 141.792969 Z M 26 44.21875 "/>
</clipPath>
<clipPath id="clip16">
  <path d="M 26 44.21875 L 27.785156 44.21875 L 27.785156 141.792969 L 26 141.792969 Z M 26 44.21875 "/>
</clipPath>
<clipPath id="clip17">
  <path d="M 26.816406 44.21875 L 27.785156 44.21875 L 27.785156 141.792969 L 26.816406 141.792969 Z M 26.816406 44.21875 "/>
</clipPath>
<clipPath id="clip18">
  <path d="M 27 44.21875 L 27.785156 44.21875 L 27.785156 141.792969 L 27 141.792969 Z M 27 44.21875 "/>
</clipPath>
<clipPath id="clip19">
  <path d="M 27.785156 44.21875 L 28.753906 44.21875 L 28.753906 141.792969 L 27.785156 141.792969 Z M 27.785156 44.21875 "/>
</clipPath>
<clipPath id="clip20">
  <path d="M 28 44.21875 L 28.753906 44.21875 L 28.753906 141.792969 L 28 141.792969 Z M 28 44.21875 "/>
</clipPath>
<clipPath id="clip21">
  <path d="M 28 44.21875 L 29 44.21875 L 29 141.792969 L 28 141.792969 Z M 28 44.21875 "/>
</clipPath>
<clipPath id="clip22">
  <path d="M 28.753906 44.21875 L 29.722656 44.21875 L 29.722656 141.792969 L 28.753906 141.792969 Z M 28.753906 44.21875 "/>
</clipPath>
<clipPath id="clip23">
  <path d="M 29 44.21875 L 29.722656 44.21875 L 29.722656 141.792969 L 29 141.792969 Z M 29 44.21875 "/>
</clipPath>
<clipPath id="clip24">
  <path d="M 29.722656 44.21875 L 30.691406 44.21875 L 30.691406 141.792969 L 29.722656 141.792969 Z M 29.722656 44.21875 "/>
</clipPath>
<clipPath id="clip25">
  <path d="M 30 44.21875 L 30.691406 44.21875 L 30.691406 141.792969 L 30 141.792969 Z M 30 44.21875 "/>
</clipPath>
<clipPath id="clip26">
  <path d="M 30 44.21875 L 31 44.21875 L 31 141.792969 L 30 141.792969 Z M 30 44.21875 "/>
</clipPath>
<clipPath id="clip27">
  <path d="M 30.691406 44.21875 L 31.660156 44.21875 L 31.660156 141.792969 L 30.691406 141.792969 Z M 30.691406 44.21875 "/>
</clipPath>
<clipPath id="clip28">
  <path d="M 31 44.21875 L 31.660156 44.21875 L 31.660156 141.792969 L 31 141.792969 Z M 31 44.21875 "/>
</clipPath>
<clipPath id="clip29">
  <path d="M 31.660156 44.21875 L 32 44.21875 L 32 141.792969 L 31.660156 141.792969 Z M 31.660156 44.21875 "/>
</clipPath>
<clipPath id="clip30">
  <path d="M 31.660156 44.21875 L 32.628906 44.21875 L 32.628906 141.792969 L 31.660156 141.792969 Z M 31.660156 44.21875 "/>
</clipPath>
<clipPath id="clip31">
  <path d="M 32 44.21875 L 32.628906 44.21875 L 32.628906 141.792969 L 32 141.792969 Z M 32 44.21875 "/>
</clipPath>
<clipPath id="clip32">
  <path d="M 32 44.21875 L 33 44.21875 L 33 141.792969 L 32 141.792969 Z M 32 44.21875 "/>
</clipPath>
<clipPath id="clip33">
  <path d="M 32.628906 44.21875 L 33.597656 44.21875 L 33.597656 141.792969 L 32.628906 141.792969 Z M 32.628906 44.21875 "/>
</clipPath>
<clipPath id="clip34">
  <path d="M 33 44.21875 L 33.597656 44.21875 L 33.597656 141.792969 L 33 141.792969 Z M 33 44.21875 "/>
</clipPath>
<clipPath id="clip35">
  <path d="M 33.597656 44.21875 L 34 44.21875 L 34 141.792969 L 33.597656 141.792969 Z M 33.597656 44.21875 "/>
</clipPath>
<clipPath id="clip36">
  <path d="M 33.597656 44.21875 L 36.605469 44.21875 L 36.605469 141.792969 L 33.597656 141.792969 Z M 33.597656 44.21875 "/>
</clipPath>
<clipPath id="clip37">
  <path d="M 50.359375 44.21875 L 53.945313 44.21875 L 53.945313 141.792969 L 50.359375 141.792969 Z M 50.359375 44.21875 "/>
</clipPath>
<clipPath id="clip38">
  <path d="M 53 44.21875 L 53.945313 44.21875 L 53.945313 141.792969 L 53 141.792969 Z M 53 44.21875 "/>
</clipPath>
<clipPath id="clip39">
  <path d="M 53 44.21875 L 54.914063 44.21875 L 54.914063 141.792969 L 53 141.792969 Z M 53 44.21875 "/>
</clipPath>
<clipPath id="clip40">
  <path d="M 54 44.21875 L 54.914063 44.21875 L 54.914063 141.792969 L 54 141.792969 Z M 54 44.21875 "/>
</clipPath>
<clipPath id="clip41">
  <path d="M 54.914063 44.21875 L 55.882813 44.21875 L 55.882813 141.792969 L 54.914063 141.792969 Z M 54.914063 44.21875 "/>
</clipPath>
<clipPath id="clip42">
  <path d="M 55 44.21875 L 55.882813 44.21875 L 55.882813 141.792969 L 55 141.792969 Z M 55 44.21875 "/>
</clipPath>
<clipPath id="clip43">
  <path d="M 55 44.21875 L 56.851563 44.21875 L 56.851563 141.792969 L 55 141.792969 Z M 55 44.21875 "/>
</clipPath>
<clipPath id="clip44">
  <path d="M 56 44.21875 L 56.851563 44.21875 L 56.851563 141.792969 L 56 141.792969 Z M 56 44.21875 "/>
</clipPath>
<clipPath id="clip45">
  <path d="M 56.851563 44.21875 L 57.820313 44.21875 L 57.820313 141.792969 L 56.851563 141.792969 Z M 56.851563 44.21875 "/>
</clipPath>
<clipPath id="clip46">
  <path d="M 57 44.21875 L 57.820313 44.21875 L 57.820313 141.792969 L 57 141.792969 Z M 57 44.21875 "/>
</clipPath>
<clipPath id="clip47">
  <path d="M 57 44.21875 L 58.789063 44.21875 L 58.789063 141.792969 L 57 141.792969 Z M 57 44.21875 "/>
</clipPath>
<clipPath id="clip48">
  <path d="M 57.820313 44.21875 L 58.789063 44.21875 L 58.789063 141.792969 L 57.820313 141.792969 Z M 57.820313 44.21875 "/>
</clipPath>
<clipPath id="clip49">
  <path d="M 58 44.21875 L 58.789063 44.21875 L 58.789063 141.792969 L 58 141.792969 Z M 58 44.21875 "/>
</clipPath>
<clipPath id="clip50">
  <path d="M 58.789063 44.21875 L 59.757813 44.21875 L 59.757813 141.792969 L 58.789063 141.792969 Z M 58.789063 44.21875 "/>
</clipPath>
<clipPath id="clip51">
  <path d="M 59 44.21875 L 59.757813 44.21875 L 59.757813 141.792969 L 59 141.792969 Z M 59 44.21875 "/>
</clipPath>
<clipPath id="clip52">
  <path d="M 59 44.21875 L 60 44.21875 L 60 141.792969 L 59 141.792969 Z M 59 44.21875 "/>
</clipPath>
<clipPath id="clip53">
  <path d="M 59.757813 44.21875 L 60.726563 44.21875 L 60.726563 141.792969 L 59.757813 141.792969 Z M 59.757813 44.21875 "/>
</clipPath>
<clipPath id="clip54">
  <path d="M 60 44.21875 L 60.726563 44.21875 L 60.726563 141.792969 L 60 141.792969 Z M 60 44.21875 "/>
</clipPath>
<clipPath id="clip55">
  <path d="M 60.726563 44.21875 L 61.695313 44.21875 L 61.695313 141.792969 L 60.726563 141.792969 Z M 60.726563 44.21875 "/>
</clipPath>
<clipPath id="clip56">
  <path d="M 61 44.21875 L 61.695313 44.21875 L 61.695313 141.792969 L 61 141.792969 Z M 61 44.21875 "/>
</clipPath>
<clipPath id="clip57">
  <path d="M 61 44.21875 L 62 44.21875 L 62 141.792969 L 61 141.792969 Z M 61 44.21875 "/>
</clipPath>
<clipPath id="clip58">
  <path d="M 61.695313 44.21875 L 62.664063 44.21875 L 62.664063 141.792969 L 61.695313 141.792969 Z M 61.695313 44.21875 "/>
</clipPath>
<clipPath id="clip59">
  <path d="M 62 44.21875 L 62.664063 44.21875 L 62.664063 141.792969 L 62 141.792969 Z M 62 44.21875 "/>
</clipPath>
<clipPath id="clip60">
  <path d="M 62.664063 44.21875 L 63 44.21875 L 63 141.792969 L 62.664063 141.792969 Z M 62.664063 44.21875 "/>
</clipPath>
<clipPath id="clip61">
  <path d="M 62.664063 44.21875 L 63.632813 44.21875 L 63.632813 141.792969 L 62.664063 141.792969 Z M 62.664063 44.21875 "/>
</clipPath>
<clipPath id="clip62">
  <path d="M 63 44.21875 L 63.632813 44.21875 L 63.632813 141.792969 L 63 141.792969 Z M 63 44.21875 "/>
</clipPath>
<clipPath id="clip63">
  <path d="M 63 44.21875 L 64 44.21875 L 64 141.792969 L 63 141.792969 Z M 63 44.21875 "/>
</clipPath>
<clipPath id="clip64">
  <path d="M 63.632813 44.21875 L 64.601563 44.21875 L 64.601563 141.792969 L 63.632813 141.792969 Z M 63.632813 44.21875 "/>
</clipPath>
<clipPath id="clip65">
  <path d="M 64 44.21875 L 64.601563 44.21875 L 64.601563 141.792969 L 64 141.792969 Z M 64 44.21875 "/>
</clipPath>
<clipPath id="clip66">
  <path d="M 64 44.21875 L 65 44.21875 L 65 141.792969 L 64 141.792969 Z M 64 44.21875 "/>
</clipPath>
<clipPath id="clip67">
  <path d="M 64.601563 44.21875 L 65 44.21875 L 65 141.792969 L 64.601563 141.792969 Z M 64.601563 44.21875 "/>
</clipPath>
<clipPath id="clip68">
  <path d="M 64.601563 44.21875 L 65.570313 44.21875 L 65.570313 141.792969 L 64.601563 141.792969 Z M 64.601563 44.21875 "/>
</clipPath>
<clipPath id="clip69">
  <path d="M 65 44.21875 L 65.570313 44.21875 L 65.570313 141.792969 L 65 141.792969 Z M 65 44.21875 "/>
</clipPath>
<clipPath id="clip70">
  <path d="M 65 44.21875 L 66 44.21875 L 66 141.792969 L 65 141.792969 Z M 65 44.21875 "/>
</clipPath>
<clipPath id="clip71">
  <path d="M 65.570313 44.21875 L 66.539063 44.21875 L 66.539063 141.792969 L 65.570313 141.792969 Z M 65.570313 44.21875 "/>
</clipPath>
<clipPath id="clip72">
  <path d="M 66 44.21875 L 66.539063 44.21875 L 66.539063 141.792969 L 66 141.792969 Z M 66 44.21875 "/>
</clipPath>
<clipPath id="clip73">
  <path d="M 66.539063 44.21875 L 67 44.21875 L 67 141.792969 L 66.539063 141.792969 Z M 66.539063 44.21875 "/>
</clipPath>
<clipPath id="clip74">
  <path d="M 66.539063 44.21875 L 69.542969 44.21875 L 69.542969 141.792969 L 66.539063 141.792969 Z M 66.539063 44.21875 "/>
</clipPath>
<clipPath id="clip75">
  <path d="M 83.300781 44.21875 L 86.886719 44.21875 L 86.886719 141.792969 L 83.300781 141.792969 Z M 83.300781 44.21875 "/>
</clipPath>
<clipPath id="clip76">
  <path d="M 86 44.21875 L 86.886719 44.21875 L 86.886719 141.792969 L 86 141.792969 Z M 86 44.21875 "/>
</clipPath>
<clipPath id="clip77">
  <path d="M 86 44.21875 L 87.855469 44.21875 L 87.855469 141.792969 L 86 141.792969 Z M 86 44.21875 "/>
</clipPath>
<clipPath id="clip78">
  <path d="M 87 44.21875 L 87.855469 44.21875 L 87.855469 141.792969 L 87 141.792969 Z M 87 44.21875 "/>
</clipPath>
<clipPath id="clip79">
  <path d="M 87.855469 44.21875 L 88.824219 44.21875 L 88.824219 141.792969 L 87.855469 141.792969 Z M 87.855469 44.21875 "/>
</clipPath>
<clipPath id="clip80">
  <path d="M 88 44.21875 L 88.824219 44.21875 L 88.824219 141.792969 L 88 141.792969 Z M 88 44.21875 "/>
</clipPath>
<clipPath id="clip81">
  <path d="M 88 44.21875 L 89.792969 44.21875 L 89.792969 141.792969 L 88 141.792969 Z M 88 44.21875 "/>
</clipPath>
<clipPath id="clip82">
  <path d="M 89 44.21875 L 89.792969 44.21875 L 89.792969 141.792969 L 89 141.792969 Z M 89 44.21875 "/>
</clipPath>
<clipPath id="clip83">
  <path d="M 89.792969 44.21875 L 90.761719 44.21875 L 90.761719 141.792969 L 89.792969 141.792969 Z M 89.792969 44.21875 "/>
</clipPath>
<clipPath id="clip84">
  <path d="M 90 44.21875 L 90.761719 44.21875 L 90.761719 141.792969 L 90 141.792969 Z M 90 44.21875 "/>
</clipPath>
<clipPath id="clip85">
  <path d="M 90 44.21875 L 91 44.21875 L 91 141.792969 L 90 141.792969 Z M 90 44.21875 "/>
</clipPath>
<clipPath id="clip86">
  <path d="M 90.761719 44.21875 L 91.730469 44.21875 L 91.730469 141.792969 L 90.761719 141.792969 Z M 90.761719 44.21875 "/>
</clipPath>
<clipPath id="clip87">
  <path d="M 91 44.21875 L 91.730469 44.21875 L 91.730469 141.792969 L 91 141.792969 Z M 91 44.21875 "/>
</clipPath>
<clipPath id="clip88">
  <path d="M 91 44.21875 L 92 44.21875 L 92 141.792969 L 91 141.792969 Z M 91 44.21875 "/>
</clipPath>
<clipPath id="clip89">
  <path d="M 91.730469 44.21875 L 92.699219 44.21875 L 92.699219 141.792969 L 91.730469 141.792969 Z M 91.730469 44.21875 "/>
</clipPath>
<clipPath id="clip90">
  <path d="M 92 44.21875 L 92.699219 44.21875 L 92.699219 141.792969 L 92 141.792969 Z M 92 44.21875 "/>
</clipPath>
<clipPath id="clip91">
  <path d="M 92 44.21875 L 93 44.21875 L 93 141.792969 L 92 141.792969 Z M 92 44.21875 "/>
</clipPath>
<clipPath id="clip92">
  <path d="M 92.699219 44.21875 L 93.667969 44.21875 L 93.667969 141.792969 L 92.699219 141.792969 Z M 92.699219 44.21875 "/>
</clipPath>
<clipPath id="clip93">
  <path d="M 93 44.21875 L 93.667969 44.21875 L 93.667969 141.792969 L 93 141.792969 Z M 93 44.21875 "/>
</clipPath>
<clipPath id="clip94">
  <path d="M 93.667969 44.21875 L 94 44.21875 L 94 141.792969 L 93.667969 141.792969 Z M 93.667969 44.21875 "/>
</clipPath>
<clipPath id="clip95">
  <path d="M 93.667969 44.21875 L 94.636719 44.21875 L 94.636719 141.792969 L 93.667969 141.792969 Z M 93.667969 44.21875 "/>
</clipPath>
<clipPath id="clip96">
  <path d="M 94 44.21875 L 94.636719 44.21875 L 94.636719 141.792969 L 94 141.792969 Z M 94 44.21875 "/>
</clipPath>
<clipPath id="clip97">
  <path d="M 94 44.21875 L 95 44.21875 L 95 141.792969 L 94 141.792969 Z M 94 44.21875 "/>
</clipPath>
<clipPath id="clip98">
  <path d="M 94.636719 44.21875 L 95.605469 44.21875 L 95.605469 141.792969 L 94.636719 141.792969 Z M 94.636719 44.21875 "/>
</clipPath>
<clipPath id="clip99">
  <path d="M 95 44.21875 L 95.605469 44.21875 L 95.605469 141.792969 L 95 141.792969 Z M 95 44.21875 "/>
</clipPath>
<clipPath id="clip100">
  <path d="M 95 44.21875 L 96 44.21875 L 96 141.792969 L 95 141.792969 Z M 95 44.21875 "/>
</clipPath>
<clipPath id="clip101">
  <path d="M 95.605469 44.21875 L 96 44.21875 L 96 141.792969 L 95.605469 141.792969 Z M 95.605469 44.21875 "/>
</clipPath>
<clipPath id="clip102">
  <path d="M 95.605469 44.21875 L 96.574219 44.21875 L 96.574219 141.792969 L 95.605469 141.792969 Z M 95.605469 44.21875 "/>
</clipPath>
<clipPath id="clip103">
  <path d="M 96 44.21875 L 96.574219 44.21875 L 96.574219 141.792969 L 96 141.792969 Z M 96 44.21875 "/>
</clipPath>
<clipPath id="clip104">
  <path d="M 96 44.21875 L 97 44.21875 L 97 141.792969 L 96 141.792969 Z M 96 44.21875 "/>
</clipPath>
<clipPath id="clip105">
  <path d="M 96.574219 44.21875 L 97.542969 44.21875 L 97.542969 141.792969 L 96.574219 141.792969 Z M 96.574219 44.21875 "/>
</clipPath>
<clipPath id="clip106">
  <path d="M 97 44.21875 L 98 44.21875 L 98 141.792969 L 97 141.792969 Z M 97 44.21875 "/>
</clipPath>
<clipPath id="clip107">
  <path d="M 97.542969 44.21875 L 98 44.21875 L 98 141.792969 L 97.542969 141.792969 Z M 97.542969 44.21875 "/>
</clipPath>
<clipPath id="clip108">
  <path d="M 97.542969 44.21875 L 98.511719 44.21875 L 98.511719 141.792969 L 97.542969 141.792969 Z M 97.542969 44.21875 "/>
</clipPath>
<clipPath id="clip109">
  <path d="M 98 44.21875 L 98.511719 44.21875 L 98.511719 141.792969 L 98 141.792969 Z M 98 44.21875 "/>
</clipPath>
<clipPath id="clip110">
  <path d="M 98 44.21875 L 99 44.21875 L 99 141.792969 L 98 141.792969 Z M 98 44.21875 "/>
</clipPath>
<clipPath id="clip111">
  <path d="M 98.511719 44.21875 L 99 44.21875 L 99 141.792969 L 98.511719 141.792969 Z M 98.511719 44.21875 "/>
</clipPath>
<clipPath id="clip112">
  <path d="M 98.511719 44.21875 L 99.480469 44.21875 L 99.480469 141.792969 L 98.511719 141.792969 Z M 98.511719 44.21875 "/>
</clipPath>
<clipPath id="clip113">
  <path d="M 99 44.21875 L 100 44.21875 L 100 141.792969 L 99 141.792969 Z M 99 44.21875 "/>
</clipPath>
<clipPath id="clip114">
  <path d="M 99.480469 44.21875 L 100 44.21875 L 100 141.792969 L 99.480469 141.792969 Z M 99.480469 44.21875 "/>
</clipPath>
<clipPath id="clip115">
  <path d="M 99.480469 44.21875 L 102.484375 44.21875 L 102.484375 141.792969 L 99.480469 141.792969 Z M 99.480469 44.21875 "/>
</clipPath>
<clipPath id="clip116">
  <path d="M 116.335938 44.21875 L 119.824219 44.21875 L 119.824219 141.792969 L 116.335938 141.792969 Z M 116.335938 44.21875 "/>
</clipPath>
<clipPath id="clip117">
  <path d="M 119 44.21875 L 119.824219 44.21875 L 119.824219 141.792969 L 119 141.792969 Z M 119 44.21875 "/>
</clipPath>
<clipPath id="clip118">
  <path d="M 119 44.21875 L 120.792969 44.21875 L 120.792969 141.792969 L 119 141.792969 Z M 119 44.21875 "/>
</clipPath>
<clipPath id="clip119">
  <path d="M 120 44.21875 L 120.792969 44.21875 L 120.792969 141.792969 L 120 141.792969 Z M 120 44.21875 "/>
</clipPath>
<clipPath id="clip120">
  <path d="M 120 44.21875 L 121 44.21875 L 121 141.792969 L 120 141.792969 Z M 120 44.21875 "/>
</clipPath>
<clipPath id="clip121">
  <path d="M 120.792969 44.21875 L 121.761719 44.21875 L 121.761719 141.792969 L 120.792969 141.792969 Z M 120.792969 44.21875 "/>
</clipPath>
<clipPath id="clip122">
  <path d="M 121 44.21875 L 121.761719 44.21875 L 121.761719 141.792969 L 121 141.792969 Z M 121 44.21875 "/>
</clipPath>
<clipPath id="clip123">
  <path d="M 121 44.21875 L 122 44.21875 L 122 141.792969 L 121 141.792969 Z M 121 44.21875 "/>
</clipPath>
<clipPath id="clip124">
  <path d="M 121.761719 44.21875 L 122.734375 44.21875 L 122.734375 141.792969 L 121.761719 141.792969 Z M 121.761719 44.21875 "/>
</clipPath>
<clipPath id="clip125">
  <path d="M 122 44.21875 L 122.734375 44.21875 L 122.734375 141.792969 L 122 141.792969 Z M 122 44.21875 "/>
</clipPath>
<clipPath id="clip126">
  <path d="M 122 44.21875 L 123 44.21875 L 123 141.792969 L 122 141.792969 Z M 122 44.21875 "/>
</clipPath>
<clipPath id="clip127">
  <path d="M 122.734375 44.21875 L 123.703125 44.21875 L 123.703125 141.792969 L 122.734375 141.792969 Z M 122.734375 44.21875 "/>
</clipPath>
<clipPath id="clip128">
  <path d="M 123 44.21875 L 123.703125 44.21875 L 123.703125 141.792969 L 123 141.792969 Z M 123 44.21875 "/>
</clipPath>
<clipPath id="clip129">
  <path d="M 123 44.21875 L 124 44.21875 L 124 141.792969 L 123 141.792969 Z M 123 44.21875 "/>
</clipPath>
<clipPath id="clip130">
  <path d="M 123.703125 44.21875 L 124.671875 44.21875 L 124.671875 141.792969 L 123.703125 141.792969 Z M 123.703125 44.21875 "/>
</clipPath>
<clipPath id="clip131">
  <path d="M 124 44.21875 L 124.671875 44.21875 L 124.671875 141.792969 L 124 141.792969 Z M 124 44.21875 "/>
</clipPath>
<clipPath id="clip132">
  <path d="M 124 44.21875 L 125 44.21875 L 125 141.792969 L 124 141.792969 Z M 124 44.21875 "/>
</clipPath>
<clipPath id="clip133">
  <path d="M 124.671875 44.21875 L 125.640625 44.21875 L 125.640625 141.792969 L 124.671875 141.792969 Z M 124.671875 44.21875 "/>
</clipPath>
<clipPath id="clip134">
  <path d="M 125 44.21875 L 125.640625 44.21875 L 125.640625 141.792969 L 125 141.792969 Z M 125 44.21875 "/>
</clipPath>
<clipPath id="clip135">
  <path d="M 125 44.21875 L 126 44.21875 L 126 141.792969 L 125 141.792969 Z M 125 44.21875 "/>
</clipPath>
<clipPath id="clip136">
  <path d="M 125.640625 44.21875 L 126.609375 44.21875 L 126.609375 141.792969 L 125.640625 141.792969 Z M 125.640625 44.21875 "/>
</clipPath>
<clipPath id="clip137">
  <path d="M 126 44.21875 L 126.609375 44.21875 L 126.609375 141.792969 L 126 141.792969 Z M 126 44.21875 "/>
</clipPath>
<clipPath id="clip138">
  <path d="M 126 44.21875 L 127 44.21875 L 127 141.792969 L 126 141.792969 Z M 126 44.21875 "/>
</clipPath>
<clipPath id="clip139">
  <path d="M 126.609375 44.21875 L 127 44.21875 L 127 141.792969 L 126.609375 141.792969 Z M 126.609375 44.21875 "/>
</clipPath>
<clipPath id="clip140">
  <path d="M 126.609375 44.21875 L 127.578125 44.21875 L 127.578125 141.792969 L 126.609375 141.792969 Z M 126.609375 44.21875 "/>
</clipPath>
<clipPath id="clip141">
  <path d="M 127 44.21875 L 127.578125 44.21875 L 127.578125 141.792969 L 127 141.792969 Z M 127 44.21875 "/>
</clipPath>
<clipPath id="clip142">
  <path d="M 127 44.21875 L 128 44.21875 L 128 141.792969 L 127 141.792969 Z M 127 44.21875 "/>
</clipPath>
<clipPath id="clip143">
  <path d="M 127.578125 44.21875 L 128.546875 44.21875 L 128.546875 141.792969 L 127.578125 141.792969 Z M 127.578125 44.21875 "/>
</clipPath>
<clipPath id="clip144">
  <path d="M 128 44.21875 L 128.546875 44.21875 L 128.546875 141.792969 L 128 141.792969 Z M 128 44.21875 "/>
</clipPath>
<clipPath id="clip145">
  <path d="M 128 44.21875 L 129 44.21875 L 129 141.792969 L 128 141.792969 Z M 128 44.21875 "/>
</clipPath>
<clipPath id="clip146">
  <path d="M 128.546875 44.21875 L 129 44.21875 L 129 141.792969 L 128.546875 141.792969 Z M 128.546875 44.21875 "/>
</clipPath>
<clipPath id="clip147">
  <path d="M 128.546875 44.21875 L 129.515625 44.21875 L 129.515625 141.792969 L 128.546875 141.792969 Z M 128.546875 44.21875 "/>
</clipPath>
<clipPath id="clip148">
  <path d="M 129 44.21875 L 129.515625 44.21875 L 129.515625 141.792969 L 129 141.792969 Z M 129 44.21875 "/>
</clipPath>
<clipPath id="clip149">
  <path d="M 129 44.21875 L 130 44.21875 L 130 141.792969 L 129 141.792969 Z M 129 44.21875 "/>
</clipPath>
<clipPath id="clip150">
  <path d="M 129.515625 44.21875 L 130 44.21875 L 130 141.792969 L 129.515625 141.792969 Z M 129.515625 44.21875 "/>
</clipPath>
<clipPath id="clip151">
  <path d="M 130 44.21875 L 130.484375 44.21875 L 130.484375 141.792969 L 130 141.792969 Z M 130 44.21875 "/>
</clipPath>
<clipPath id="clip152">
  <path d="M 130 44.21875 L 131 44.21875 L 131 141.792969 L 130 141.792969 Z M 130 44.21875 "/>
</clipPath>
<clipPath id="clip153">
  <path d="M 130.484375 44.21875 L 131 44.21875 L 131 141.792969 L 130.484375 141.792969 Z M 130.484375 44.21875 "/>
</clipPath>
<clipPath id="clip154">
  <path d="M 130.484375 44.21875 L 131.453125 44.21875 L 131.453125 141.792969 L 130.484375 141.792969 Z M 130.484375 44.21875 "/>
</clipPath>
<clipPath id="clip155">
  <path d="M 131 44.21875 L 131.453125 44.21875 L 131.453125 141.792969 L 131 141.792969 Z M 131 44.21875 "/>
</clipPath>
<clipPath id="clip156">
  <path d="M 131 44.21875 L 132 44.21875 L 132 141.792969 L 131 141.792969 Z M 131 44.21875 "/>
</clipPath>
<clipPath id="clip157">
  <path d="M 131.453125 44.21875 L 132 44.21875 L 132 141.792969 L 131.453125 141.792969 Z M 131.453125 44.21875 "/>
</clipPath>
<clipPath id="clip158">
  <path d="M 131.453125 44.21875 L 132.421875 44.21875 L 132.421875 141.792969 L 131.453125 141.792969 Z M 131.453125 44.21875 "/>
</clipPath>
<clipPath id="clip159">
  <path d="M 132 44.21875 L 133 44.21875 L 133 141.792969 L 132 141.792969 Z M 132 44.21875 "/>
</clipPath>
<clipPath id="clip160">
  <path d="M 132.421875 44.21875 L 133 44.21875 L 133 141.792969 L 132.421875 141.792969 Z M 132.421875 44.21875 "/>
</clipPath>
<clipPath id="clip161">
  <path d="M 132.421875 44.21875 L 135.519531 44.21875 L 135.519531 141.792969 L 132.421875 141.792969 Z M 132.421875 44.21875 "/>
</clipPath>
</defs>
<g id="surface2579">
<g clip-path="url(#clip1)" clip-rule="nonzero">
<path style=" stroke:none;fill-rule:evenodd;fill:rgb(100%,80%,60%);fill-opacity:1;" d="M 17.421875 141.792969 L 17.421875 44.109375 L 20.328125 44.109375 L 20.328125 141.792969 Z M 17.421875 141.792969 "/>
</g>
<g clip-path="url(#clip2)" clip-rule="nonzero">
<path style=" stroke:none;fill-rule:evenodd;fill:rgb(100%,80%,60%);fill-opacity:1;" d="M 20.328125 141.792969 L 20.328125 44.109375 L 20.617188 44.109375 L 20.617188 141.792969 Z M 20.328125 141.792969 "/>
<path style=" stroke:none;fill-rule:evenodd;fill:rgb(100%,80.784314%,60.784314%);fill-opacity:1;" d="M 20.617188 141.792969 L 20.617188 44.109375 L 20.90625 44.109375 L 20.90625 141.792969 Z M 20.617188 141.792969 "/>
</g>
<g clip-path="url(#clip3)" clip-rule="nonzero">
<path style=" stroke:none;fill-rule:evenodd;fill:rgb(100%,81.568627%,61.568627%);fill-opacity:1;" d="M 20.8125 141.792969 L 20.8125 44.109375 L 21.199219 44.109375 L 21.199219 141.792969 Z M 20.8125 141.792969 "/>
</g>
<g clip-path="url(#clip4)" clip-rule="nonzero">
<path style=" stroke:none;fill-rule:evenodd;fill:rgb(100%,82.352941%,62.352941%);fill-opacity:1;" d="M 21.101563 141.792969 L 21.101563 44.109375 L 21.390625 44.109375 L 21.390625 141.792969 Z M 21.101563 141.792969 "/>
<path style=" stroke:none;fill-rule:evenodd;fill:rgb(100%,83.137255%,63.137255%);fill-opacity:1;" d="M 21.390625 141.792969 L 21.390625 44.109375 L 21.683594 44.109375 L 21.683594 141.792969 Z M 21.390625 141.792969 "/>
<path style=" stroke:none;fill-rule:evenodd;fill:rgb(100%,83.921569%,63.921569%);fill-opacity:1;" d="M 21.683594 141.792969 L 21.683594 44.109375 L 21.972656 44.109375 L 21.972656 141.792969 Z M 21.683594 141.792969 "/>
</g>
<g clip-path="url(#clip5)" clip-rule="nonzero">
<path style=" stroke:none;fill-rule:evenodd;fill:rgb(100%,84.705882%,64.705882%);fill-opacity:1;" d="M 21.972656 141.792969 L 21.972656 44.109375 L 22.265625 44.109375 L 22.265625 141.792969 Z M 21.972656 141.792969 "/>
</g>
<g clip-path="url(#clip6)" clip-rule="nonzero">
<path style=" stroke:none;fill-rule:evenodd;fill:rgb(100%,85.490196%,65.490196%);fill-opacity:1;" d="M 22.265625 141.792969 L 22.265625 44.109375 L 22.554688 44.109375 L 22.554688 141.792969 Z M 22.265625 141.792969 "/>
<path style=" stroke:none;fill-rule:evenodd;fill:rgb(100%,86.27451%,66.27451%);fill-opacity:1;" d="M 22.457031 141.792969 L 22.457031 44.109375 L 22.84375 44.109375 L 22.84375 141.792969 Z M 22.457031 141.792969 "/>
</g>
<g clip-path="url(#clip7)" clip-rule="nonzero">
<path style=" stroke:none;fill-rule:evenodd;fill:rgb(100%,87.058824%,67.058824%);fill-opacity:1;" d="M 22.75 141.792969 L 22.75 44.109375 L 23.136719 44.109375 L 23.136719 141.792969 Z M 22.75 141.792969 "/>
</g>
<g clip-path="url(#clip8)" clip-rule="nonzero">
<path style=" stroke:none;fill-rule:evenodd;fill:rgb(100%,87.843137%,67.843137%);fill-opacity:1;" d="M 23.039063 141.792969 L 23.039063 44.109375 L 23.328125 44.109375 L 23.328125 141.792969 Z M 23.039063 141.792969 "/>
<path style=" stroke:none;fill-rule:evenodd;fill:rgb(100%,88.627451%,68.627451%);fill-opacity:1;" d="M 23.328125 141.792969 L 23.328125 44.109375 L 23.621094 44.109375 L 23.621094 141.792969 Z M 23.328125 141.792969 "/>
<path style=" stroke:none;fill-rule:evenodd;fill:rgb(100%,89.411765%,69.411765%);fill-opacity:1;" d="M 23.621094 141.792969 L 23.621094 44.109375 L 23.910156 44.109375 L 23.910156 141.792969 Z M 23.621094 141.792969 "/>
</g>
<g clip-path="url(#clip9)" clip-rule="nonzero">
<path style=" stroke:none;fill-rule:evenodd;fill:rgb(100%,90.196078%,70.196078%);fill-opacity:1;" d="M 23.910156 141.792969 L 23.910156 44.109375 L 24.203125 44.109375 L 24.203125 141.792969 Z M 23.910156 141.792969 "/>
</g>
<g clip-path="url(#clip10)" clip-rule="nonzero">
<path style=" stroke:none;fill-rule:evenodd;fill:rgb(100%,90.980392%,70.980392%);fill-opacity:1;" d="M 24.203125 141.792969 L 24.203125 44.109375 L 24.492188 44.109375 L 24.492188 141.792969 Z M 24.203125 141.792969 "/>
<path style=" stroke:none;fill-rule:evenodd;fill:rgb(100%,91.764706%,71.764706%);fill-opacity:1;" d="M 24.492188 141.792969 L 24.492188 44.109375 L 24.78125 44.109375 L 24.78125 141.792969 Z M 24.492188 141.792969 "/>
</g>
<g clip-path="url(#clip11)" clip-rule="nonzero">
<path style=" stroke:none;fill-rule:evenodd;fill:rgb(100%,92.54902%,72.54902%);fill-opacity:1;" d="M 24.6875 141.792969 L 24.6875 44.109375 L 24.976563 44.109375 L 24.976563 141.792969 Z M 24.6875 141.792969 "/>
</g>
<g clip-path="url(#clip12)" clip-rule="nonzero">
<path style=" stroke:none;fill-rule:evenodd;fill:rgb(100%,93.333333%,73.333333%);fill-opacity:1;" d="M 24.976563 141.792969 L 24.976563 44.109375 L 25.265625 44.109375 L 25.265625 141.792969 Z M 24.976563 141.792969 "/>
</g>
<g clip-path="url(#clip13)" clip-rule="nonzero">
<path style=" stroke:none;fill-rule:evenodd;fill:rgb(100%,94.117647%,74.117647%);fill-opacity:1;" d="M 25.265625 141.792969 L 25.265625 44.109375 L 25.558594 44.109375 L 25.558594 141.792969 Z M 25.265625 141.792969 "/>
<path style=" stroke:none;fill-rule:evenodd;fill:rgb(100%,94.901961%,74.901961%);fill-opacity:1;" d="M 25.558594 141.792969 L 25.558594 44.109375 L 25.847656 44.109375 L 25.847656 141.792969 Z M 25.558594 141.792969 "/>
</g>
<g clip-path="url(#clip14)" clip-rule="nonzero">
<path style=" stroke:none;fill-rule:evenodd;fill:rgb(100%,95.686275%,75.686275%);fill-opacity:1;" d="M 25.847656 141.792969 L 25.847656 44.109375 L 26.140625 44.109375 L 26.140625 141.792969 Z M 25.847656 141.792969 "/>
</g>
<g clip-path="url(#clip15)" clip-rule="nonzero">
<path style=" stroke:none;fill-rule:evenodd;fill:rgb(100%,96.470588%,76.470588%);fill-opacity:1;" d="M 26.140625 141.792969 L 26.140625 44.109375 L 26.429688 44.109375 L 26.429688 141.792969 Z M 26.140625 141.792969 "/>
<path style=" stroke:none;fill-rule:evenodd;fill:rgb(100%,97.254902%,77.254902%);fill-opacity:1;" d="M 26.429688 141.792969 L 26.429688 44.109375 L 26.71875 44.109375 L 26.71875 141.792969 Z M 26.429688 141.792969 "/>
</g>
<g clip-path="url(#clip16)" clip-rule="nonzero">
<path style=" stroke:none;fill-rule:evenodd;fill:rgb(100%,98.039216%,78.039216%);fill-opacity:1;" d="M 26.71875 141.792969 L 26.71875 44.109375 L 27.011719 44.109375 L 27.011719 141.792969 Z M 26.71875 141.792969 "/>
</g>
<g clip-path="url(#clip17)" clip-rule="nonzero">
<path style=" stroke:none;fill-rule:evenodd;fill:rgb(100%,98.823529%,78.823529%);fill-opacity:1;" d="M 26.914063 141.792969 L 26.914063 44.109375 L 27.203125 44.109375 L 27.203125 141.792969 Z M 26.914063 141.792969 "/>
</g>
<g clip-path="url(#clip18)" clip-rule="nonzero">
<path style=" stroke:none;fill-rule:evenodd;fill:rgb(100%,99.215686%,79.215686%);fill-opacity:1;" d="M 27.203125 141.792969 L 27.203125 44.109375 L 27.496094 44.109375 L 27.496094 141.792969 Z M 27.203125 141.792969 "/>
<path style=" stroke:none;fill-rule:evenodd;fill:rgb(100%,98.431373%,78.431373%);fill-opacity:1;" d="M 27.496094 141.792969 L 27.496094 44.109375 L 27.785156 44.109375 L 27.785156 141.792969 Z M 27.496094 141.792969 "/>
</g>
<g clip-path="url(#clip19)" clip-rule="nonzero">
<path style=" stroke:none;fill-rule:evenodd;fill:rgb(100%,97.647059%,77.647059%);fill-opacity:1;" d="M 27.785156 141.792969 L 27.785156 44.109375 L 28.078125 44.109375 L 28.078125 141.792969 Z M 27.785156 141.792969 "/>
</g>
<g clip-path="url(#clip20)" clip-rule="nonzero">
<path style=" stroke:none;fill-rule:evenodd;fill:rgb(100%,96.862745%,76.862745%);fill-opacity:1;" d="M 28.078125 141.792969 L 28.078125 44.109375 L 28.371094 44.109375 L 28.371094 141.792969 Z M 28.078125 141.792969 "/>
<path style=" stroke:none;fill-rule:evenodd;fill:rgb(100%,96.078431%,76.078431%);fill-opacity:1;" d="M 28.371094 141.792969 L 28.371094 44.109375 L 28.65625 44.109375 L 28.65625 141.792969 Z M 28.371094 141.792969 "/>
</g>
<g clip-path="url(#clip21)" clip-rule="nonzero">
<path style=" stroke:none;fill-rule:evenodd;fill:rgb(100%,95.294118%,75.294118%);fill-opacity:1;" d="M 28.65625 141.792969 L 28.65625 44.109375 L 28.949219 44.109375 L 28.949219 141.792969 Z M 28.65625 141.792969 "/>
</g>
<g clip-path="url(#clip22)" clip-rule="nonzero">
<path style=" stroke:none;fill-rule:evenodd;fill:rgb(100%,94.509804%,74.509804%);fill-opacity:1;" d="M 28.855469 141.792969 L 28.855469 44.109375 L 29.238281 44.109375 L 29.238281 141.792969 Z M 28.855469 141.792969 "/>
</g>
<g clip-path="url(#clip23)" clip-rule="nonzero">
<path style=" stroke:none;fill-rule:evenodd;fill:rgb(100%,93.72549%,73.72549%);fill-opacity:1;" d="M 29.140625 141.792969 L 29.140625 44.109375 L 29.433594 44.109375 L 29.433594 141.792969 Z M 29.140625 141.792969 "/>
<path style=" stroke:none;fill-rule:evenodd;fill:rgb(100%,92.941176%,72.941176%);fill-opacity:1;" d="M 29.433594 141.792969 L 29.433594 44.109375 L 29.722656 44.109375 L 29.722656 141.792969 Z M 29.433594 141.792969 "/>
</g>
<g clip-path="url(#clip24)" clip-rule="nonzero">
<path style=" stroke:none;fill-rule:evenodd;fill:rgb(100%,92.156863%,72.156863%);fill-opacity:1;" d="M 29.722656 141.792969 L 29.722656 44.109375 L 30.015625 44.109375 L 30.015625 141.792969 Z M 29.722656 141.792969 "/>
</g>
<g clip-path="url(#clip25)" clip-rule="nonzero">
<path style=" stroke:none;fill-rule:evenodd;fill:rgb(100%,91.372549%,71.372549%);fill-opacity:1;" d="M 30.015625 141.792969 L 30.015625 44.109375 L 30.308594 44.109375 L 30.308594 141.792969 Z M 30.015625 141.792969 "/>
<path style=" stroke:none;fill-rule:evenodd;fill:rgb(100%,90.588235%,70.588235%);fill-opacity:1;" d="M 30.308594 141.792969 L 30.308594 44.109375 L 30.59375 44.109375 L 30.59375 141.792969 Z M 30.308594 141.792969 "/>
</g>
<g clip-path="url(#clip26)" clip-rule="nonzero">
<path style=" stroke:none;fill-rule:evenodd;fill:rgb(100%,89.803922%,69.803922%);fill-opacity:1;" d="M 30.5 141.792969 L 30.5 44.109375 L 30.886719 44.109375 L 30.886719 141.792969 Z M 30.5 141.792969 "/>
</g>
<g clip-path="url(#clip27)" clip-rule="nonzero">
<path style=" stroke:none;fill-rule:evenodd;fill:rgb(100%,89.019608%,69.019608%);fill-opacity:1;" d="M 30.792969 141.792969 L 30.792969 44.109375 L 31.078125 44.109375 L 31.078125 141.792969 Z M 30.792969 141.792969 "/>
</g>
<g clip-path="url(#clip28)" clip-rule="nonzero">
<path style=" stroke:none;fill-rule:evenodd;fill:rgb(100%,88.235294%,68.235294%);fill-opacity:1;" d="M 31.078125 141.792969 L 31.078125 44.109375 L 31.46875 44.109375 L 31.46875 141.792969 Z M 31.078125 141.792969 "/>
<path style=" stroke:none;fill-rule:evenodd;fill:rgb(100%,87.45098%,67.45098%);fill-opacity:1;" d="M 31.371094 141.792969 L 31.371094 44.109375 L 31.660156 44.109375 L 31.660156 141.792969 Z M 31.371094 141.792969 "/>
</g>
<g clip-path="url(#clip29)" clip-rule="nonzero">
<path style=" stroke:none;fill-rule:evenodd;fill:rgb(100%,86.666667%,66.666667%);fill-opacity:1;" d="M 31.660156 141.792969 L 31.660156 44.109375 L 31.953125 44.109375 L 31.953125 141.792969 Z M 31.660156 141.792969 "/>
</g>
<g clip-path="url(#clip30)" clip-rule="nonzero">
<path style=" stroke:none;fill-rule:evenodd;fill:rgb(100%,85.882353%,65.882353%);fill-opacity:1;" d="M 31.953125 141.792969 L 31.953125 44.109375 L 32.246094 44.109375 L 32.246094 141.792969 Z M 31.953125 141.792969 "/>
</g>
<g clip-path="url(#clip31)" clip-rule="nonzero">
<path style=" stroke:none;fill-rule:evenodd;fill:rgb(100%,85.098039%,65.098039%);fill-opacity:1;" d="M 32.246094 141.792969 L 32.246094 44.109375 L 32.53125 44.109375 L 32.53125 141.792969 Z M 32.246094 141.792969 "/>
</g>
<g clip-path="url(#clip32)" clip-rule="nonzero">
<path style=" stroke:none;fill-rule:evenodd;fill:rgb(100%,84.313725%,64.313725%);fill-opacity:1;" d="M 32.53125 141.792969 L 32.53125 44.109375 L 32.824219 44.109375 L 32.824219 141.792969 Z M 32.53125 141.792969 "/>
</g>
<g clip-path="url(#clip33)" clip-rule="nonzero">
<path style=" stroke:none;fill-rule:evenodd;fill:rgb(100%,83.529412%,63.529412%);fill-opacity:1;" d="M 32.730469 141.792969 L 32.730469 44.109375 L 33.113281 44.109375 L 33.113281 141.792969 Z M 32.730469 141.792969 "/>
</g>
<g clip-path="url(#clip34)" clip-rule="nonzero">
<path style=" stroke:none;fill-rule:evenodd;fill:rgb(100%,82.745098%,62.745098%);fill-opacity:1;" d="M 33.015625 141.792969 L 33.015625 44.109375 L 33.308594 44.109375 L 33.308594 141.792969 Z M 33.015625 141.792969 "/>
<path style=" stroke:none;fill-rule:evenodd;fill:rgb(100%,81.960784%,61.960784%);fill-opacity:1;" d="M 33.308594 141.792969 L 33.308594 44.109375 L 33.597656 44.109375 L 33.597656 141.792969 Z M 33.308594 141.792969 "/>
</g>
<g clip-path="url(#clip35)" clip-rule="nonzero">
<path style=" stroke:none;fill-rule:evenodd;fill:rgb(100%,81.176471%,61.176471%);fill-opacity:1;" d="M 33.597656 141.792969 L 33.597656 44.109375 L 33.890625 44.109375 L 33.890625 141.792969 Z M 33.597656 141.792969 "/>
</g>
<g clip-path="url(#clip36)" clip-rule="nonzero">
<path style=" stroke:none;fill-rule:evenodd;fill:rgb(100%,80%,60%);fill-opacity:1;" d="M 33.890625 141.792969 L 33.890625 44.109375 L 36.796875 44.109375 L 36.796875 141.792969 Z M 33.890625 141.792969 "/>
</g>
<path style="fill:none;stroke-width:0.12;stroke-linecap:butt;stroke-linejoin:round;stroke:rgb(50.196078%,50.196078%,50.196078%);stroke-opacity:1;stroke-miterlimit:10;" d="M 55.301272 683.302557 L 45.398948 683.302557 L 45.398948 773.999544 L 65.199565 773.999544 L 65.199565 683.302557 Z M 55.301272 683.302557 " transform="matrix(0.968838,0,0,-1.075826,-26.46861,876.798561)"/>
<g clip-path="url(#clip37)" clip-rule="nonzero">
<path style=" stroke:none;fill-rule:evenodd;fill:rgb(100%,80%,60%);fill-opacity:1;" d="M 50.359375 141.792969 L 50.359375 44.109375 L 53.265625 44.109375 L 53.265625 141.792969 Z M 50.359375 141.792969 "/>
</g>
<g clip-path="url(#clip38)" clip-rule="nonzero">
<path style=" stroke:none;fill-rule:evenodd;fill:rgb(100%,80%,60%);fill-opacity:1;" d="M 53.265625 141.792969 L 53.265625 44.109375 L 53.558594 44.109375 L 53.558594 141.792969 Z M 53.265625 141.792969 "/>
<path style=" stroke:none;fill-rule:evenodd;fill:rgb(100%,80.784314%,60.784314%);fill-opacity:1;" d="M 53.558594 141.792969 L 53.558594 44.109375 L 53.847656 44.109375 L 53.847656 141.792969 Z M 53.558594 141.792969 "/>
</g>
<g clip-path="url(#clip39)" clip-rule="nonzero">
<path style=" stroke:none;fill-rule:evenodd;fill:rgb(100%,81.568627%,61.568627%);fill-opacity:1;" d="M 53.847656 141.792969 L 53.847656 44.109375 L 54.136719 44.109375 L 54.136719 141.792969 Z M 53.847656 141.792969 "/>
</g>
<g clip-path="url(#clip40)" clip-rule="nonzero">
<path style=" stroke:none;fill-rule:evenodd;fill:rgb(100%,82.352941%,62.352941%);fill-opacity:1;" d="M 54.042969 141.792969 L 54.042969 44.109375 L 54.429688 44.109375 L 54.429688 141.792969 Z M 54.042969 141.792969 "/>
<path style=" stroke:none;fill-rule:evenodd;fill:rgb(100%,83.137255%,63.137255%);fill-opacity:1;" d="M 54.332031 141.792969 L 54.332031 44.109375 L 54.621094 44.109375 L 54.621094 141.792969 Z M 54.332031 141.792969 "/>
<path style=" stroke:none;fill-rule:evenodd;fill:rgb(100%,83.921569%,63.921569%);fill-opacity:1;" d="M 54.621094 141.792969 L 54.621094 44.109375 L 54.914063 44.109375 L 54.914063 141.792969 Z M 54.621094 141.792969 "/>
</g>
<g clip-path="url(#clip41)" clip-rule="nonzero">
<path style=" stroke:none;fill-rule:evenodd;fill:rgb(100%,84.705882%,64.705882%);fill-opacity:1;" d="M 54.914063 141.792969 L 54.914063 44.109375 L 55.207031 44.109375 L 55.207031 141.792969 Z M 54.914063 141.792969 "/>
</g>
<g clip-path="url(#clip42)" clip-rule="nonzero">
<path style=" stroke:none;fill-rule:evenodd;fill:rgb(100%,85.490196%,65.490196%);fill-opacity:1;" d="M 55.207031 141.792969 L 55.207031 44.109375 L 55.496094 44.109375 L 55.496094 141.792969 Z M 55.207031 141.792969 "/>
<path style=" stroke:none;fill-rule:evenodd;fill:rgb(100%,86.27451%,66.27451%);fill-opacity:1;" d="M 55.496094 141.792969 L 55.496094 44.109375 L 55.785156 44.109375 L 55.785156 141.792969 Z M 55.496094 141.792969 "/>
</g>
<g clip-path="url(#clip43)" clip-rule="nonzero">
<path style=" stroke:none;fill-rule:evenodd;fill:rgb(100%,87.058824%,67.058824%);fill-opacity:1;" d="M 55.691406 141.792969 L 55.691406 44.109375 L 56.074219 44.109375 L 56.074219 141.792969 Z M 55.691406 141.792969 "/>
</g>
<g clip-path="url(#clip44)" clip-rule="nonzero">
<path style=" stroke:none;fill-rule:evenodd;fill:rgb(100%,87.843137%,67.843137%);fill-opacity:1;" d="M 56.074219 141.792969 L 56.074219 44.109375 L 56.367188 44.109375 L 56.367188 141.792969 Z M 56.074219 141.792969 "/>
<path style=" stroke:none;fill-rule:evenodd;fill:rgb(100%,88.627451%,68.627451%);fill-opacity:1;" d="M 56.269531 141.792969 L 56.269531 44.109375 L 56.558594 44.109375 L 56.558594 141.792969 Z M 56.269531 141.792969 "/>
<path style=" stroke:none;fill-rule:evenodd;fill:rgb(100%,89.411765%,69.411765%);fill-opacity:1;" d="M 56.558594 141.792969 L 56.558594 44.109375 L 56.851563 44.109375 L 56.851563 141.792969 Z M 56.558594 141.792969 "/>
</g>
<g clip-path="url(#clip45)" clip-rule="nonzero">
<path style=" stroke:none;fill-rule:evenodd;fill:rgb(100%,90.196078%,70.196078%);fill-opacity:1;" d="M 56.851563 141.792969 L 56.851563 44.109375 L 57.144531 44.109375 L 57.144531 141.792969 Z M 56.851563 141.792969 "/>
</g>
<g clip-path="url(#clip46)" clip-rule="nonzero">
<path style=" stroke:none;fill-rule:evenodd;fill:rgb(100%,90.980392%,70.980392%);fill-opacity:1;" d="M 57.144531 141.792969 L 57.144531 44.109375 L 57.433594 44.109375 L 57.433594 141.792969 Z M 57.144531 141.792969 "/>
<path style=" stroke:none;fill-rule:evenodd;fill:rgb(100%,91.764706%,71.764706%);fill-opacity:1;" d="M 57.433594 141.792969 L 57.433594 44.109375 L 57.722656 44.109375 L 57.722656 141.792969 Z M 57.433594 141.792969 "/>
</g>
<g clip-path="url(#clip47)" clip-rule="nonzero">
<path style=" stroke:none;fill-rule:evenodd;fill:rgb(100%,92.54902%,72.54902%);fill-opacity:1;" d="M 57.722656 141.792969 L 57.722656 44.109375 L 58.011719 44.109375 L 58.011719 141.792969 Z M 57.722656 141.792969 "/>
</g>
<g clip-path="url(#clip48)" clip-rule="nonzero">
<path style=" stroke:none;fill-rule:evenodd;fill:rgb(100%,93.333333%,73.333333%);fill-opacity:1;" d="M 57.917969 141.792969 L 57.917969 44.109375 L 58.207031 44.109375 L 58.207031 141.792969 Z M 57.917969 141.792969 "/>
</g>
<g clip-path="url(#clip49)" clip-rule="nonzero">
<path style=" stroke:none;fill-rule:evenodd;fill:rgb(100%,94.117647%,74.117647%);fill-opacity:1;" d="M 58.207031 141.792969 L 58.207031 44.109375 L 58.496094 44.109375 L 58.496094 141.792969 Z M 58.207031 141.792969 "/>
<path style=" stroke:none;fill-rule:evenodd;fill:rgb(100%,94.901961%,74.901961%);fill-opacity:1;" d="M 58.496094 141.792969 L 58.496094 44.109375 L 58.789063 44.109375 L 58.789063 141.792969 Z M 58.496094 141.792969 "/>
</g>
<g clip-path="url(#clip50)" clip-rule="nonzero">
<path style=" stroke:none;fill-rule:evenodd;fill:rgb(100%,95.686275%,75.686275%);fill-opacity:1;" d="M 58.789063 141.792969 L 58.789063 44.109375 L 59.082031 44.109375 L 59.082031 141.792969 Z M 58.789063 141.792969 "/>
</g>
<g clip-path="url(#clip51)" clip-rule="nonzero">
<path style=" stroke:none;fill-rule:evenodd;fill:rgb(100%,96.470588%,76.470588%);fill-opacity:1;" d="M 59.082031 141.792969 L 59.082031 44.109375 L 59.371094 44.109375 L 59.371094 141.792969 Z M 59.082031 141.792969 "/>
<path style=" stroke:none;fill-rule:evenodd;fill:rgb(100%,97.254902%,77.254902%);fill-opacity:1;" d="M 59.371094 141.792969 L 59.371094 44.109375 L 59.660156 44.109375 L 59.660156 141.792969 Z M 59.371094 141.792969 "/>
</g>
<g clip-path="url(#clip52)" clip-rule="nonzero">
<path style=" stroke:none;fill-rule:evenodd;fill:rgb(100%,98.039216%,78.039216%);fill-opacity:1;" d="M 59.660156 141.792969 L 59.660156 44.109375 L 59.949219 44.109375 L 59.949219 141.792969 Z M 59.660156 141.792969 "/>
</g>
<g clip-path="url(#clip53)" clip-rule="nonzero">
<path style=" stroke:none;fill-rule:evenodd;fill:rgb(100%,98.823529%,78.823529%);fill-opacity:1;" d="M 59.855469 141.792969 L 59.855469 44.109375 L 60.242188 44.109375 L 60.242188 141.792969 Z M 59.855469 141.792969 "/>
</g>
<g clip-path="url(#clip54)" clip-rule="nonzero">
<path style=" stroke:none;fill-rule:evenodd;fill:rgb(100%,99.215686%,79.215686%);fill-opacity:1;" d="M 60.144531 141.792969 L 60.144531 44.109375 L 60.433594 44.109375 L 60.433594 141.792969 Z M 60.144531 141.792969 "/>
<path style=" stroke:none;fill-rule:evenodd;fill:rgb(100%,98.431373%,78.431373%);fill-opacity:1;" d="M 60.433594 141.792969 L 60.433594 44.109375 L 60.726563 44.109375 L 60.726563 141.792969 Z M 60.433594 141.792969 "/>
</g>
<g clip-path="url(#clip55)" clip-rule="nonzero">
<path style=" stroke:none;fill-rule:evenodd;fill:rgb(100%,97.647059%,77.647059%);fill-opacity:1;" d="M 60.726563 141.792969 L 60.726563 44.109375 L 61.019531 44.109375 L 61.019531 141.792969 Z M 60.726563 141.792969 "/>
</g>
<g clip-path="url(#clip56)" clip-rule="nonzero">
<path style=" stroke:none;fill-rule:evenodd;fill:rgb(100%,96.862745%,76.862745%);fill-opacity:1;" d="M 61.019531 141.792969 L 61.019531 44.109375 L 61.308594 44.109375 L 61.308594 141.792969 Z M 61.019531 141.792969 "/>
<path style=" stroke:none;fill-rule:evenodd;fill:rgb(100%,96.078431%,76.078431%);fill-opacity:1;" d="M 61.308594 141.792969 L 61.308594 44.109375 L 61.597656 44.109375 L 61.597656 141.792969 Z M 61.308594 141.792969 "/>
</g>
<g clip-path="url(#clip57)" clip-rule="nonzero">
<path style=" stroke:none;fill-rule:evenodd;fill:rgb(100%,95.294118%,75.294118%);fill-opacity:1;" d="M 61.597656 141.792969 L 61.597656 44.109375 L 61.890625 44.109375 L 61.890625 141.792969 Z M 61.597656 141.792969 "/>
</g>
<g clip-path="url(#clip58)" clip-rule="nonzero">
<path style=" stroke:none;fill-rule:evenodd;fill:rgb(100%,94.509804%,74.509804%);fill-opacity:1;" d="M 61.890625 141.792969 L 61.890625 44.109375 L 62.179688 44.109375 L 62.179688 141.792969 Z M 61.890625 141.792969 "/>
</g>
<g clip-path="url(#clip59)" clip-rule="nonzero">
<path style=" stroke:none;fill-rule:evenodd;fill:rgb(100%,93.72549%,73.72549%);fill-opacity:1;" d="M 62.082031 141.792969 L 62.082031 44.109375 L 62.472656 44.109375 L 62.472656 141.792969 Z M 62.082031 141.792969 "/>
<path style=" stroke:none;fill-rule:evenodd;fill:rgb(100%,92.941176%,72.941176%);fill-opacity:1;" d="M 62.375 141.792969 L 62.375 44.109375 L 62.664063 44.109375 L 62.664063 141.792969 Z M 62.375 141.792969 "/>
</g>
<g clip-path="url(#clip60)" clip-rule="nonzero">
<path style=" stroke:none;fill-rule:evenodd;fill:rgb(100%,92.156863%,72.156863%);fill-opacity:1;" d="M 62.664063 141.792969 L 62.664063 44.109375 L 62.957031 44.109375 L 62.957031 141.792969 Z M 62.664063 141.792969 "/>
</g>
<g clip-path="url(#clip61)" clip-rule="nonzero">
<path style=" stroke:none;fill-rule:evenodd;fill:rgb(100%,91.372549%,71.372549%);fill-opacity:1;" d="M 62.957031 141.792969 L 62.957031 44.109375 L 63.246094 44.109375 L 63.246094 141.792969 Z M 62.957031 141.792969 "/>
</g>
<g clip-path="url(#clip62)" clip-rule="nonzero">
<path style=" stroke:none;fill-rule:evenodd;fill:rgb(100%,90.588235%,70.588235%);fill-opacity:1;" d="M 63.246094 141.792969 L 63.246094 44.109375 L 63.535156 44.109375 L 63.535156 141.792969 Z M 63.246094 141.792969 "/>
</g>
<g clip-path="url(#clip63)" clip-rule="nonzero">
<path style=" stroke:none;fill-rule:evenodd;fill:rgb(100%,89.803922%,69.803922%);fill-opacity:1;" d="M 63.535156 141.792969 L 63.535156 44.109375 L 63.828125 44.109375 L 63.828125 141.792969 Z M 63.535156 141.792969 "/>
</g>
<g clip-path="url(#clip64)" clip-rule="nonzero">
<path style=" stroke:none;fill-rule:evenodd;fill:rgb(100%,89.019608%,69.019608%);fill-opacity:1;" d="M 63.730469 141.792969 L 63.730469 44.109375 L 64.117188 44.109375 L 64.117188 141.792969 Z M 63.730469 141.792969 "/>
</g>
<g clip-path="url(#clip65)" clip-rule="nonzero">
<path style=" stroke:none;fill-rule:evenodd;fill:rgb(100%,88.235294%,68.235294%);fill-opacity:1;" d="M 64.019531 141.792969 L 64.019531 44.109375 L 64.410156 44.109375 L 64.410156 141.792969 Z M 64.019531 141.792969 "/>
</g>
<g clip-path="url(#clip66)" clip-rule="nonzero">
<path style=" stroke:none;fill-rule:evenodd;fill:rgb(100%,87.45098%,67.45098%);fill-opacity:1;" d="M 64.3125 141.792969 L 64.3125 44.109375 L 64.699219 44.109375 L 64.699219 141.792969 Z M 64.3125 141.792969 "/>
</g>
<g clip-path="url(#clip67)" clip-rule="nonzero">
<path style=" stroke:none;fill-rule:evenodd;fill:rgb(100%,86.666667%,66.666667%);fill-opacity:1;" d="M 64.601563 141.792969 L 64.601563 44.109375 L 64.894531 44.109375 L 64.894531 141.792969 Z M 64.601563 141.792969 "/>
</g>
<g clip-path="url(#clip68)" clip-rule="nonzero">
<path style=" stroke:none;fill-rule:evenodd;fill:rgb(100%,85.882353%,65.882353%);fill-opacity:1;" d="M 64.894531 141.792969 L 64.894531 44.109375 L 65.183594 44.109375 L 65.183594 141.792969 Z M 64.894531 141.792969 "/>
</g>
<g clip-path="url(#clip69)" clip-rule="nonzero">
<path style=" stroke:none;fill-rule:evenodd;fill:rgb(100%,85.098039%,65.098039%);fill-opacity:1;" d="M 65.183594 141.792969 L 65.183594 44.109375 L 65.472656 44.109375 L 65.472656 141.792969 Z M 65.183594 141.792969 "/>
</g>
<g clip-path="url(#clip70)" clip-rule="nonzero">
<path style=" stroke:none;fill-rule:evenodd;fill:rgb(100%,84.313725%,64.313725%);fill-opacity:1;" d="M 65.472656 141.792969 L 65.472656 44.109375 L 65.765625 44.109375 L 65.765625 141.792969 Z M 65.472656 141.792969 "/>
</g>
<g clip-path="url(#clip71)" clip-rule="nonzero">
<path style=" stroke:none;fill-rule:evenodd;fill:rgb(100%,83.529412%,63.529412%);fill-opacity:1;" d="M 65.765625 141.792969 L 65.765625 44.109375 L 66.054688 44.109375 L 66.054688 141.792969 Z M 65.765625 141.792969 "/>
<path style=" stroke:none;fill-rule:evenodd;fill:rgb(100%,82.745098%,62.745098%);fill-opacity:1;" d="M 65.957031 141.792969 L 65.957031 44.109375 L 66.347656 44.109375 L 66.347656 141.792969 Z M 65.957031 141.792969 "/>
</g>
<g clip-path="url(#clip72)" clip-rule="nonzero">
<path style=" stroke:none;fill-rule:evenodd;fill:rgb(100%,81.960784%,61.960784%);fill-opacity:1;" d="M 66.25 141.792969 L 66.25 44.109375 L 66.539063 44.109375 L 66.539063 141.792969 Z M 66.25 141.792969 "/>
</g>
<g clip-path="url(#clip73)" clip-rule="nonzero">
<path style=" stroke:none;fill-rule:evenodd;fill:rgb(100%,81.176471%,61.176471%);fill-opacity:1;" d="M 66.539063 141.792969 L 66.539063 44.109375 L 66.832031 44.109375 L 66.832031 141.792969 Z M 66.539063 141.792969 "/>
</g>
<g clip-path="url(#clip74)" clip-rule="nonzero">
<path style=" stroke:none;fill-rule:evenodd;fill:rgb(100%,80%,60%);fill-opacity:1;" d="M 66.832031 141.792969 L 66.832031 44.109375 L 69.738281 44.109375 L 69.738281 141.792969 Z M 66.832031 141.792969 "/>
</g>
<path style="fill:none;stroke-width:0.12;stroke-linecap:butt;stroke-linejoin:round;stroke:rgb(50.196078%,50.196078%,50.196078%);stroke-opacity:1;stroke-miterlimit:10;" d="M 89.302209 683.302557 L 79.399885 683.302557 L 79.399885 773.999544 L 99.200502 773.999544 L 99.200502 683.302557 Z M 89.302209 683.302557 " transform="matrix(0.968838,0,0,-1.075826,-26.46861,876.798561)"/>
<g clip-path="url(#clip75)" clip-rule="nonzero">
<path style=" stroke:none;fill-rule:evenodd;fill:rgb(100%,80%,60%);fill-opacity:1;" d="M 83.300781 141.792969 L 83.300781 44.109375 L 86.207031 44.109375 L 86.207031 141.792969 Z M 83.300781 141.792969 "/>
</g>
<g clip-path="url(#clip76)" clip-rule="nonzero">
<path style=" stroke:none;fill-rule:evenodd;fill:rgb(100%,80%,60%);fill-opacity:1;" d="M 86.207031 141.792969 L 86.207031 44.109375 L 86.5 44.109375 L 86.5 141.792969 Z M 86.207031 141.792969 "/>
<path style=" stroke:none;fill-rule:evenodd;fill:rgb(100%,80.784314%,60.784314%);fill-opacity:1;" d="M 86.5 141.792969 L 86.5 44.109375 L 86.785156 44.109375 L 86.785156 141.792969 Z M 86.5 141.792969 "/>
</g>
<g clip-path="url(#clip77)" clip-rule="nonzero">
<path style=" stroke:none;fill-rule:evenodd;fill:rgb(100%,81.568627%,61.568627%);fill-opacity:1;" d="M 86.785156 141.792969 L 86.785156 44.109375 L 87.078125 44.109375 L 87.078125 141.792969 Z M 86.785156 141.792969 "/>
</g>
<g clip-path="url(#clip78)" clip-rule="nonzero">
<path style=" stroke:none;fill-rule:evenodd;fill:rgb(100%,82.352941%,62.352941%);fill-opacity:1;" d="M 87.078125 141.792969 L 87.078125 44.109375 L 87.371094 44.109375 L 87.371094 141.792969 Z M 87.078125 141.792969 "/>
<path style=" stroke:none;fill-rule:evenodd;fill:rgb(100%,83.137255%,63.137255%);fill-opacity:1;" d="M 87.269531 141.792969 L 87.269531 44.109375 L 87.660156 44.109375 L 87.660156 141.792969 Z M 87.269531 141.792969 "/>
<path style=" stroke:none;fill-rule:evenodd;fill:rgb(100%,83.921569%,63.921569%);fill-opacity:1;" d="M 87.5625 141.792969 L 87.5625 44.109375 L 87.855469 44.109375 L 87.855469 141.792969 Z M 87.5625 141.792969 "/>
</g>
<g clip-path="url(#clip79)" clip-rule="nonzero">
<path style=" stroke:none;fill-rule:evenodd;fill:rgb(100%,84.705882%,64.705882%);fill-opacity:1;" d="M 87.855469 141.792969 L 87.855469 44.109375 L 88.144531 44.109375 L 88.144531 141.792969 Z M 87.855469 141.792969 "/>
</g>
<g clip-path="url(#clip80)" clip-rule="nonzero">
<path style=" stroke:none;fill-rule:evenodd;fill:rgb(100%,85.490196%,65.490196%);fill-opacity:1;" d="M 88.144531 141.792969 L 88.144531 44.109375 L 88.4375 44.109375 L 88.4375 141.792969 Z M 88.144531 141.792969 "/>
<path style=" stroke:none;fill-rule:evenodd;fill:rgb(100%,86.27451%,66.27451%);fill-opacity:1;" d="M 88.4375 141.792969 L 88.4375 44.109375 L 88.726563 44.109375 L 88.726563 141.792969 Z M 88.4375 141.792969 "/>
</g>
<g clip-path="url(#clip81)" clip-rule="nonzero">
<path style=" stroke:none;fill-rule:evenodd;fill:rgb(100%,87.058824%,67.058824%);fill-opacity:1;" d="M 88.726563 141.792969 L 88.726563 44.109375 L 89.015625 44.109375 L 89.015625 141.792969 Z M 88.726563 141.792969 "/>
</g>
<g clip-path="url(#clip82)" clip-rule="nonzero">
<path style=" stroke:none;fill-rule:evenodd;fill:rgb(100%,87.843137%,67.843137%);fill-opacity:1;" d="M 89.015625 141.792969 L 89.015625 44.109375 L 89.308594 44.109375 L 89.308594 141.792969 Z M 89.015625 141.792969 "/>
<path style=" stroke:none;fill-rule:evenodd;fill:rgb(100%,88.627451%,68.627451%);fill-opacity:1;" d="M 89.308594 141.792969 L 89.308594 44.109375 L 89.597656 44.109375 L 89.597656 141.792969 Z M 89.308594 141.792969 "/>
<path style=" stroke:none;fill-rule:evenodd;fill:rgb(100%,89.411765%,69.411765%);fill-opacity:1;" d="M 89.5 141.792969 L 89.5 44.109375 L 89.792969 44.109375 L 89.792969 141.792969 Z M 89.5 141.792969 "/>
</g>
<g clip-path="url(#clip83)" clip-rule="nonzero">
<path style=" stroke:none;fill-rule:evenodd;fill:rgb(100%,90.196078%,70.196078%);fill-opacity:1;" d="M 89.792969 141.792969 L 89.792969 44.109375 L 90.082031 44.109375 L 90.082031 141.792969 Z M 89.792969 141.792969 "/>
</g>
<g clip-path="url(#clip84)" clip-rule="nonzero">
<path style=" stroke:none;fill-rule:evenodd;fill:rgb(100%,90.980392%,70.980392%);fill-opacity:1;" d="M 90.082031 141.792969 L 90.082031 44.109375 L 90.375 44.109375 L 90.375 141.792969 Z M 90.082031 141.792969 "/>
<path style=" stroke:none;fill-rule:evenodd;fill:rgb(100%,91.764706%,71.764706%);fill-opacity:1;" d="M 90.375 141.792969 L 90.375 44.109375 L 90.664063 44.109375 L 90.664063 141.792969 Z M 90.375 141.792969 "/>
</g>
<g clip-path="url(#clip85)" clip-rule="nonzero">
<path style=" stroke:none;fill-rule:evenodd;fill:rgb(100%,92.54902%,72.54902%);fill-opacity:1;" d="M 90.664063 141.792969 L 90.664063 44.109375 L 90.953125 44.109375 L 90.953125 141.792969 Z M 90.664063 141.792969 "/>
</g>
<g clip-path="url(#clip86)" clip-rule="nonzero">
<path style=" stroke:none;fill-rule:evenodd;fill:rgb(100%,93.333333%,73.333333%);fill-opacity:1;" d="M 90.953125 141.792969 L 90.953125 44.109375 L 91.246094 44.109375 L 91.246094 141.792969 Z M 90.953125 141.792969 "/>
</g>
<g clip-path="url(#clip87)" clip-rule="nonzero">
<path style=" stroke:none;fill-rule:evenodd;fill:rgb(100%,94.117647%,74.117647%);fill-opacity:1;" d="M 91.148438 141.792969 L 91.148438 44.109375 L 91.4375 44.109375 L 91.4375 141.792969 Z M 91.148438 141.792969 "/>
</g>
<g clip-path="url(#clip88)" clip-rule="nonzero">
<path style=" stroke:none;fill-rule:evenodd;fill:rgb(100%,94.901961%,74.901961%);fill-opacity:1;" d="M 91.4375 141.792969 L 91.4375 44.109375 L 91.828125 44.109375 L 91.828125 141.792969 Z M 91.4375 141.792969 "/>
</g>
<g clip-path="url(#clip89)" clip-rule="nonzero">
<path style=" stroke:none;fill-rule:evenodd;fill:rgb(100%,95.686275%,75.686275%);fill-opacity:1;" d="M 91.730469 141.792969 L 91.730469 44.109375 L 92.019531 44.109375 L 92.019531 141.792969 Z M 91.730469 141.792969 "/>
</g>
<g clip-path="url(#clip90)" clip-rule="nonzero">
<path style=" stroke:none;fill-rule:evenodd;fill:rgb(100%,96.470588%,76.470588%);fill-opacity:1;" d="M 92.019531 141.792969 L 92.019531 44.109375 L 92.3125 44.109375 L 92.3125 141.792969 Z M 92.019531 141.792969 "/>
<path style=" stroke:none;fill-rule:evenodd;fill:rgb(100%,97.254902%,77.254902%);fill-opacity:1;" d="M 92.3125 141.792969 L 92.3125 44.109375 L 92.601563 44.109375 L 92.601563 141.792969 Z M 92.3125 141.792969 "/>
</g>
<g clip-path="url(#clip91)" clip-rule="nonzero">
<path style=" stroke:none;fill-rule:evenodd;fill:rgb(100%,98.039216%,78.039216%);fill-opacity:1;" d="M 92.601563 141.792969 L 92.601563 44.109375 L 92.890625 44.109375 L 92.890625 141.792969 Z M 92.601563 141.792969 "/>
</g>
<g clip-path="url(#clip92)" clip-rule="nonzero">
<path style=" stroke:none;fill-rule:evenodd;fill:rgb(100%,98.823529%,78.823529%);fill-opacity:1;" d="M 92.890625 141.792969 L 92.890625 44.109375 L 93.183594 44.109375 L 93.183594 141.792969 Z M 92.890625 141.792969 "/>
</g>
<g clip-path="url(#clip93)" clip-rule="nonzero">
<path style=" stroke:none;fill-rule:evenodd;fill:rgb(100%,99.215686%,79.215686%);fill-opacity:1;" d="M 93.085938 141.792969 L 93.085938 44.109375 L 93.472656 44.109375 L 93.472656 141.792969 Z M 93.085938 141.792969 "/>
<path style=" stroke:none;fill-rule:evenodd;fill:rgb(100%,98.431373%,78.431373%);fill-opacity:1;" d="M 93.375 141.792969 L 93.375 44.109375 L 93.667969 44.109375 L 93.667969 141.792969 Z M 93.375 141.792969 "/>
</g>
<g clip-path="url(#clip94)" clip-rule="nonzero">
<path style=" stroke:none;fill-rule:evenodd;fill:rgb(100%,97.647059%,77.647059%);fill-opacity:1;" d="M 93.667969 141.792969 L 93.667969 44.109375 L 93.957031 44.109375 L 93.957031 141.792969 Z M 93.667969 141.792969 "/>
</g>
<g clip-path="url(#clip95)" clip-rule="nonzero">
<path style=" stroke:none;fill-rule:evenodd;fill:rgb(100%,96.862745%,76.862745%);fill-opacity:1;" d="M 93.957031 141.792969 L 93.957031 44.109375 L 94.25 44.109375 L 94.25 141.792969 Z M 93.957031 141.792969 "/>
</g>
<g clip-path="url(#clip96)" clip-rule="nonzero">
<path style=" stroke:none;fill-rule:evenodd;fill:rgb(100%,96.078431%,76.078431%);fill-opacity:1;" d="M 94.25 141.792969 L 94.25 44.109375 L 94.539063 44.109375 L 94.539063 141.792969 Z M 94.25 141.792969 "/>
</g>
<g clip-path="url(#clip97)" clip-rule="nonzero">
<path style=" stroke:none;fill-rule:evenodd;fill:rgb(100%,95.294118%,75.294118%);fill-opacity:1;" d="M 94.539063 141.792969 L 94.539063 44.109375 L 94.828125 44.109375 L 94.828125 141.792969 Z M 94.539063 141.792969 "/>
</g>
<g clip-path="url(#clip98)" clip-rule="nonzero">
<path style=" stroke:none;fill-rule:evenodd;fill:rgb(100%,94.509804%,74.509804%);fill-opacity:1;" d="M 94.828125 141.792969 L 94.828125 44.109375 L 95.121094 44.109375 L 95.121094 141.792969 Z M 94.828125 141.792969 "/>
</g>
<g clip-path="url(#clip99)" clip-rule="nonzero">
<path style=" stroke:none;fill-rule:evenodd;fill:rgb(100%,93.72549%,73.72549%);fill-opacity:1;" d="M 95.121094 141.792969 L 95.121094 44.109375 L 95.410156 44.109375 L 95.410156 141.792969 Z M 95.121094 141.792969 "/>
</g>
<g clip-path="url(#clip100)" clip-rule="nonzero">
<path style=" stroke:none;fill-rule:evenodd;fill:rgb(100%,92.941176%,72.941176%);fill-opacity:1;" d="M 95.3125 141.792969 L 95.3125 44.109375 L 95.703125 44.109375 L 95.703125 141.792969 Z M 95.3125 141.792969 "/>
</g>
<g clip-path="url(#clip101)" clip-rule="nonzero">
<path style=" stroke:none;fill-rule:evenodd;fill:rgb(100%,92.156863%,72.156863%);fill-opacity:1;" d="M 95.605469 141.792969 L 95.605469 44.109375 L 95.894531 44.109375 L 95.894531 141.792969 Z M 95.605469 141.792969 "/>
</g>
<g clip-path="url(#clip102)" clip-rule="nonzero">
<path style=" stroke:none;fill-rule:evenodd;fill:rgb(100%,91.372549%,71.372549%);fill-opacity:1;" d="M 95.894531 141.792969 L 95.894531 44.109375 L 96.1875 44.109375 L 96.1875 141.792969 Z M 95.894531 141.792969 "/>
</g>
<g clip-path="url(#clip103)" clip-rule="nonzero">
<path style=" stroke:none;fill-rule:evenodd;fill:rgb(100%,90.588235%,70.588235%);fill-opacity:1;" d="M 96.1875 141.792969 L 96.1875 44.109375 L 96.476563 44.109375 L 96.476563 141.792969 Z M 96.1875 141.792969 "/>
</g>
<g clip-path="url(#clip104)" clip-rule="nonzero">
<path style=" stroke:none;fill-rule:evenodd;fill:rgb(100%,89.803922%,69.803922%);fill-opacity:1;" d="M 96.476563 141.792969 L 96.476563 44.109375 L 96.765625 44.109375 L 96.765625 141.792969 Z M 96.476563 141.792969 "/>
</g>
<g clip-path="url(#clip105)" clip-rule="nonzero">
<path style=" stroke:none;fill-rule:evenodd;fill:rgb(100%,89.019608%,69.019608%);fill-opacity:1;" d="M 96.765625 141.792969 L 96.765625 44.109375 L 97.058594 44.109375 L 97.058594 141.792969 Z M 96.765625 141.792969 "/>
<path style=" stroke:none;fill-rule:evenodd;fill:rgb(100%,88.235294%,68.235294%);fill-opacity:1;" d="M 96.960938 141.792969 L 96.960938 44.109375 L 97.351563 44.109375 L 97.351563 141.792969 Z M 96.960938 141.792969 "/>
</g>
<g clip-path="url(#clip106)" clip-rule="nonzero">
<path style=" stroke:none;fill-rule:evenodd;fill:rgb(100%,87.45098%,67.45098%);fill-opacity:1;" d="M 97.351563 141.792969 L 97.351563 44.109375 L 97.640625 44.109375 L 97.640625 141.792969 Z M 97.351563 141.792969 "/>
</g>
<g clip-path="url(#clip107)" clip-rule="nonzero">
<path style=" stroke:none;fill-rule:evenodd;fill:rgb(100%,86.666667%,66.666667%);fill-opacity:1;" d="M 97.542969 141.792969 L 97.542969 44.109375 L 97.929688 44.109375 L 97.929688 141.792969 Z M 97.542969 141.792969 "/>
</g>
<g clip-path="url(#clip108)" clip-rule="nonzero">
<path style=" stroke:none;fill-rule:evenodd;fill:rgb(100%,85.882353%,65.882353%);fill-opacity:1;" d="M 97.835938 141.792969 L 97.835938 44.109375 L 98.125 44.109375 L 98.125 141.792969 Z M 97.835938 141.792969 "/>
</g>
<g clip-path="url(#clip109)" clip-rule="nonzero">
<path style=" stroke:none;fill-rule:evenodd;fill:rgb(100%,85.098039%,65.098039%);fill-opacity:1;" d="M 98.125 141.792969 L 98.125 44.109375 L 98.414063 44.109375 L 98.414063 141.792969 Z M 98.125 141.792969 "/>
</g>
<g clip-path="url(#clip110)" clip-rule="nonzero">
<path style=" stroke:none;fill-rule:evenodd;fill:rgb(100%,84.313725%,64.313725%);fill-opacity:1;" d="M 98.414063 141.792969 L 98.414063 44.109375 L 98.703125 44.109375 L 98.703125 141.792969 Z M 98.414063 141.792969 "/>
</g>
<g clip-path="url(#clip111)" clip-rule="nonzero">
<path style=" stroke:none;fill-rule:evenodd;fill:rgb(100%,83.529412%,63.529412%);fill-opacity:1;" d="M 98.703125 141.792969 L 98.703125 44.109375 L 98.996094 44.109375 L 98.996094 141.792969 Z M 98.703125 141.792969 "/>
</g>
<g clip-path="url(#clip112)" clip-rule="nonzero">
<path style=" stroke:none;fill-rule:evenodd;fill:rgb(100%,82.745098%,62.745098%);fill-opacity:1;" d="M 98.996094 141.792969 L 98.996094 44.109375 L 99.289063 44.109375 L 99.289063 141.792969 Z M 98.996094 141.792969 "/>
</g>
<g clip-path="url(#clip113)" clip-rule="nonzero">
<path style=" stroke:none;fill-rule:evenodd;fill:rgb(100%,81.960784%,61.960784%);fill-opacity:1;" d="M 99.1875 141.792969 L 99.1875 44.109375 L 99.578125 44.109375 L 99.578125 141.792969 Z M 99.1875 141.792969 "/>
</g>
<g clip-path="url(#clip114)" clip-rule="nonzero">
<path style=" stroke:none;fill-rule:evenodd;fill:rgb(100%,81.176471%,61.176471%);fill-opacity:1;" d="M 99.480469 141.792969 L 99.480469 44.109375 L 99.867188 44.109375 L 99.867188 141.792969 Z M 99.480469 141.792969 "/>
</g>
<g clip-path="url(#clip115)" clip-rule="nonzero">
<path style=" stroke:none;fill-rule:evenodd;fill:rgb(100%,80%,60%);fill-opacity:1;" d="M 99.773438 141.792969 L 99.773438 44.109375 L 102.679688 44.109375 L 102.679688 141.792969 Z M 99.773438 141.792969 "/>
</g>
<path style="fill:none;stroke-width:0.12;stroke-linecap:butt;stroke-linejoin:round;stroke:rgb(50.196078%,50.196078%,50.196078%);stroke-opacity:1;stroke-miterlimit:10;" d="M 123.299115 683.302557 L 113.39679 683.302557 L 113.39679 773.999544 L 133.197407 773.999544 L 133.197407 683.302557 Z M 123.299115 683.302557 " transform="matrix(0.968838,0,0,-1.075826,-26.46861,876.798561)"/>
<g clip-path="url(#clip116)" clip-rule="nonzero">
<path style=" stroke:none;fill-rule:evenodd;fill:rgb(100%,80%,60%);fill-opacity:1;" d="M 116.242188 141.792969 L 116.242188 44.109375 L 119.148438 44.109375 L 119.148438 141.792969 Z M 116.242188 141.792969 "/>
</g>
<g clip-path="url(#clip117)" clip-rule="nonzero">
<path style=" stroke:none;fill-rule:evenodd;fill:rgb(100%,80%,60%);fill-opacity:1;" d="M 119.148438 141.792969 L 119.148438 44.109375 L 119.441406 44.109375 L 119.441406 141.792969 Z M 119.148438 141.792969 "/>
<path style=" stroke:none;fill-rule:evenodd;fill:rgb(100%,80.784314%,60.784314%);fill-opacity:1;" d="M 119.441406 141.792969 L 119.441406 44.109375 L 119.726563 44.109375 L 119.726563 141.792969 Z M 119.441406 141.792969 "/>
</g>
<g clip-path="url(#clip118)" clip-rule="nonzero">
<path style=" stroke:none;fill-rule:evenodd;fill:rgb(100%,81.568627%,61.568627%);fill-opacity:1;" d="M 119.726563 141.792969 L 119.726563 44.109375 L 120.019531 44.109375 L 120.019531 141.792969 Z M 119.726563 141.792969 "/>
</g>
<g clip-path="url(#clip119)" clip-rule="nonzero">
<path style=" stroke:none;fill-rule:evenodd;fill:rgb(100%,82.352941%,62.352941%);fill-opacity:1;" d="M 120.019531 141.792969 L 120.019531 44.109375 L 120.308594 44.109375 L 120.308594 141.792969 Z M 120.019531 141.792969 "/>
<path style=" stroke:none;fill-rule:evenodd;fill:rgb(100%,83.137255%,63.137255%);fill-opacity:1;" d="M 120.308594 141.792969 L 120.308594 44.109375 L 120.601563 44.109375 L 120.601563 141.792969 Z M 120.308594 141.792969 "/>
</g>
<g clip-path="url(#clip120)" clip-rule="nonzero">
<path style=" stroke:none;fill-rule:evenodd;fill:rgb(100%,83.921569%,63.921569%);fill-opacity:1;" d="M 120.503906 141.792969 L 120.503906 44.109375 L 120.894531 44.109375 L 120.894531 141.792969 Z M 120.503906 141.792969 "/>
</g>
<g clip-path="url(#clip121)" clip-rule="nonzero">
<path style=" stroke:none;fill-rule:evenodd;fill:rgb(100%,84.705882%,64.705882%);fill-opacity:1;" d="M 120.792969 141.792969 L 120.792969 44.109375 L 121.085938 44.109375 L 121.085938 141.792969 Z M 120.792969 141.792969 "/>
</g>
<g clip-path="url(#clip122)" clip-rule="nonzero">
<path style=" stroke:none;fill-rule:evenodd;fill:rgb(100%,85.490196%,65.490196%);fill-opacity:1;" d="M 121.085938 141.792969 L 121.085938 44.109375 L 121.378906 44.109375 L 121.378906 141.792969 Z M 121.085938 141.792969 "/>
<path style=" stroke:none;fill-rule:evenodd;fill:rgb(100%,86.27451%,66.27451%);fill-opacity:1;" d="M 121.378906 141.792969 L 121.378906 44.109375 L 121.664063 44.109375 L 121.664063 141.792969 Z M 121.378906 141.792969 "/>
</g>
<g clip-path="url(#clip123)" clip-rule="nonzero">
<path style=" stroke:none;fill-rule:evenodd;fill:rgb(100%,87.058824%,67.058824%);fill-opacity:1;" d="M 121.664063 141.792969 L 121.664063 44.109375 L 121.957031 44.109375 L 121.957031 141.792969 Z M 121.664063 141.792969 "/>
</g>
<g clip-path="url(#clip124)" clip-rule="nonzero">
<path style=" stroke:none;fill-rule:evenodd;fill:rgb(100%,87.843137%,67.843137%);fill-opacity:1;" d="M 121.957031 141.792969 L 121.957031 44.109375 L 122.25 44.109375 L 122.25 141.792969 Z M 121.957031 141.792969 "/>
</g>
<g clip-path="url(#clip125)" clip-rule="nonzero">
<path style=" stroke:none;fill-rule:evenodd;fill:rgb(100%,88.627451%,68.627451%);fill-opacity:1;" d="M 122.25 141.792969 L 122.25 44.109375 L 122.539063 44.109375 L 122.539063 141.792969 Z M 122.25 141.792969 "/>
</g>
<g clip-path="url(#clip126)" clip-rule="nonzero">
<path style=" stroke:none;fill-rule:evenodd;fill:rgb(100%,89.411765%,69.411765%);fill-opacity:1;" d="M 122.539063 141.792969 L 122.539063 44.109375 L 122.832031 44.109375 L 122.832031 141.792969 Z M 122.539063 141.792969 "/>
</g>
<g clip-path="url(#clip127)" clip-rule="nonzero">
<path style=" stroke:none;fill-rule:evenodd;fill:rgb(100%,90.196078%,70.196078%);fill-opacity:1;" d="M 122.734375 141.792969 L 122.734375 44.109375 L 123.023438 44.109375 L 123.023438 141.792969 Z M 122.734375 141.792969 "/>
</g>
<g clip-path="url(#clip128)" clip-rule="nonzero">
<path style=" stroke:none;fill-rule:evenodd;fill:rgb(100%,90.980392%,70.980392%);fill-opacity:1;" d="M 123.023438 141.792969 L 123.023438 44.109375 L 123.316406 44.109375 L 123.316406 141.792969 Z M 123.023438 141.792969 "/>
<path style=" stroke:none;fill-rule:evenodd;fill:rgb(100%,91.764706%,71.764706%);fill-opacity:1;" d="M 123.316406 141.792969 L 123.316406 44.109375 L 123.601563 44.109375 L 123.601563 141.792969 Z M 123.316406 141.792969 "/>
</g>
<g clip-path="url(#clip129)" clip-rule="nonzero">
<path style=" stroke:none;fill-rule:evenodd;fill:rgb(100%,92.54902%,72.54902%);fill-opacity:1;" d="M 123.601563 141.792969 L 123.601563 44.109375 L 123.894531 44.109375 L 123.894531 141.792969 Z M 123.601563 141.792969 "/>
</g>
<g clip-path="url(#clip130)" clip-rule="nonzero">
<path style=" stroke:none;fill-rule:evenodd;fill:rgb(100%,93.333333%,73.333333%);fill-opacity:1;" d="M 123.894531 141.792969 L 123.894531 44.109375 L 124.1875 44.109375 L 124.1875 141.792969 Z M 123.894531 141.792969 "/>
</g>
<g clip-path="url(#clip131)" clip-rule="nonzero">
<path style=" stroke:none;fill-rule:evenodd;fill:rgb(100%,94.117647%,74.117647%);fill-opacity:1;" d="M 124.1875 141.792969 L 124.1875 44.109375 L 124.476563 44.109375 L 124.476563 141.792969 Z M 124.1875 141.792969 "/>
</g>
<g clip-path="url(#clip132)" clip-rule="nonzero">
<path style=" stroke:none;fill-rule:evenodd;fill:rgb(100%,94.901961%,74.901961%);fill-opacity:1;" d="M 124.378906 141.792969 L 124.378906 44.109375 L 124.769531 44.109375 L 124.769531 141.792969 Z M 124.378906 141.792969 "/>
</g>
<g clip-path="url(#clip133)" clip-rule="nonzero">
<path style=" stroke:none;fill-rule:evenodd;fill:rgb(100%,95.686275%,75.686275%);fill-opacity:1;" d="M 124.671875 141.792969 L 124.671875 44.109375 L 125.054688 44.109375 L 125.054688 141.792969 Z M 124.671875 141.792969 "/>
<path style=" stroke:none;fill-rule:evenodd;fill:rgb(100%,96.470588%,76.470588%);fill-opacity:1;" d="M 124.960938 141.792969 L 124.960938 44.109375 L 125.253906 44.109375 L 125.253906 141.792969 Z M 124.960938 141.792969 "/>
</g>
<g clip-path="url(#clip134)" clip-rule="nonzero">
<path style=" stroke:none;fill-rule:evenodd;fill:rgb(100%,97.254902%,77.254902%);fill-opacity:1;" d="M 125.253906 141.792969 L 125.253906 44.109375 L 125.539063 44.109375 L 125.539063 141.792969 Z M 125.253906 141.792969 "/>
</g>
<g clip-path="url(#clip135)" clip-rule="nonzero">
<path style=" stroke:none;fill-rule:evenodd;fill:rgb(100%,98.039216%,78.039216%);fill-opacity:1;" d="M 125.539063 141.792969 L 125.539063 44.109375 L 125.832031 44.109375 L 125.832031 141.792969 Z M 125.539063 141.792969 "/>
</g>
<g clip-path="url(#clip136)" clip-rule="nonzero">
<path style=" stroke:none;fill-rule:evenodd;fill:rgb(100%,98.823529%,78.823529%);fill-opacity:1;" d="M 125.832031 141.792969 L 125.832031 44.109375 L 126.125 44.109375 L 126.125 141.792969 Z M 125.832031 141.792969 "/>
</g>
<g clip-path="url(#clip137)" clip-rule="nonzero">
<path style=" stroke:none;fill-rule:evenodd;fill:rgb(100%,99.215686%,79.215686%);fill-opacity:1;" d="M 126.125 141.792969 L 126.125 44.109375 L 126.414063 44.109375 L 126.414063 141.792969 Z M 126.125 141.792969 "/>
</g>
<g clip-path="url(#clip138)" clip-rule="nonzero">
<path style=" stroke:none;fill-rule:evenodd;fill:rgb(100%,98.431373%,78.431373%);fill-opacity:1;" d="M 126.316406 141.792969 L 126.316406 44.109375 L 126.707031 44.109375 L 126.707031 141.792969 Z M 126.316406 141.792969 "/>
</g>
<g clip-path="url(#clip139)" clip-rule="nonzero">
<path style=" stroke:none;fill-rule:evenodd;fill:rgb(100%,97.647059%,77.647059%);fill-opacity:1;" d="M 126.609375 141.792969 L 126.609375 44.109375 L 126.898438 44.109375 L 126.898438 141.792969 Z M 126.609375 141.792969 "/>
</g>
<g clip-path="url(#clip140)" clip-rule="nonzero">
<path style=" stroke:none;fill-rule:evenodd;fill:rgb(100%,96.862745%,76.862745%);fill-opacity:1;" d="M 126.898438 141.792969 L 126.898438 44.109375 L 127.191406 44.109375 L 127.191406 141.792969 Z M 126.898438 141.792969 "/>
</g>
<g clip-path="url(#clip141)" clip-rule="nonzero">
<path style=" stroke:none;fill-rule:evenodd;fill:rgb(100%,96.078431%,76.078431%);fill-opacity:1;" d="M 127.191406 141.792969 L 127.191406 44.109375 L 127.476563 44.109375 L 127.476563 141.792969 Z M 127.191406 141.792969 "/>
</g>
<g clip-path="url(#clip142)" clip-rule="nonzero">
<path style=" stroke:none;fill-rule:evenodd;fill:rgb(100%,95.294118%,75.294118%);fill-opacity:1;" d="M 127.476563 141.792969 L 127.476563 44.109375 L 127.769531 44.109375 L 127.769531 141.792969 Z M 127.476563 141.792969 "/>
</g>
<g clip-path="url(#clip143)" clip-rule="nonzero">
<path style=" stroke:none;fill-rule:evenodd;fill:rgb(100%,94.509804%,74.509804%);fill-opacity:1;" d="M 127.769531 141.792969 L 127.769531 44.109375 L 128.0625 44.109375 L 128.0625 141.792969 Z M 127.769531 141.792969 "/>
</g>
<g clip-path="url(#clip144)" clip-rule="nonzero">
<path style=" stroke:none;fill-rule:evenodd;fill:rgb(100%,93.72549%,73.72549%);fill-opacity:1;" d="M 128.0625 141.792969 L 128.0625 44.109375 L 128.351563 44.109375 L 128.351563 141.792969 Z M 128.0625 141.792969 "/>
</g>
<g clip-path="url(#clip145)" clip-rule="nonzero">
<path style=" stroke:none;fill-rule:evenodd;fill:rgb(100%,92.941176%,72.941176%);fill-opacity:1;" d="M 128.351563 141.792969 L 128.351563 44.109375 L 128.644531 44.109375 L 128.644531 141.792969 Z M 128.351563 141.792969 "/>
</g>
<g clip-path="url(#clip146)" clip-rule="nonzero">
<path style=" stroke:none;fill-rule:evenodd;fill:rgb(100%,92.156863%,72.156863%);fill-opacity:1;" d="M 128.546875 141.792969 L 128.546875 44.109375 L 128.929688 44.109375 L 128.929688 141.792969 Z M 128.546875 141.792969 "/>
</g>
<g clip-path="url(#clip147)" clip-rule="nonzero">
<path style=" stroke:none;fill-rule:evenodd;fill:rgb(100%,91.372549%,71.372549%);fill-opacity:1;" d="M 128.835938 141.792969 L 128.835938 44.109375 L 129.128906 44.109375 L 129.128906 141.792969 Z M 128.835938 141.792969 "/>
</g>
<g clip-path="url(#clip148)" clip-rule="nonzero">
<path style=" stroke:none;fill-rule:evenodd;fill:rgb(100%,90.588235%,70.588235%);fill-opacity:1;" d="M 129.128906 141.792969 L 129.128906 44.109375 L 129.414063 44.109375 L 129.414063 141.792969 Z M 129.128906 141.792969 "/>
</g>
<g clip-path="url(#clip149)" clip-rule="nonzero">
<path style=" stroke:none;fill-rule:evenodd;fill:rgb(100%,89.803922%,69.803922%);fill-opacity:1;" d="M 129.414063 141.792969 L 129.414063 44.109375 L 129.707031 44.109375 L 129.707031 141.792969 Z M 129.414063 141.792969 "/>
</g>
<g clip-path="url(#clip150)" clip-rule="nonzero">
<path style=" stroke:none;fill-rule:evenodd;fill:rgb(100%,89.019608%,69.019608%);fill-opacity:1;" d="M 129.707031 141.792969 L 129.707031 44.109375 L 130 44.109375 L 130 141.792969 Z M 129.707031 141.792969 "/>
</g>
<g clip-path="url(#clip151)" clip-rule="nonzero">
<path style=" stroke:none;fill-rule:evenodd;fill:rgb(100%,88.235294%,68.235294%);fill-opacity:1;" d="M 130 141.792969 L 130 44.109375 L 130.289063 44.109375 L 130.289063 141.792969 Z M 130 141.792969 "/>
</g>
<g clip-path="url(#clip152)" clip-rule="nonzero">
<path style=" stroke:none;fill-rule:evenodd;fill:rgb(100%,87.45098%,67.45098%);fill-opacity:1;" d="M 130.289063 141.792969 L 130.289063 44.109375 L 130.582031 44.109375 L 130.582031 141.792969 Z M 130.289063 141.792969 "/>
</g>
<g clip-path="url(#clip153)" clip-rule="nonzero">
<path style=" stroke:none;fill-rule:evenodd;fill:rgb(100%,86.666667%,66.666667%);fill-opacity:1;" d="M 130.582031 141.792969 L 130.582031 44.109375 L 130.871094 44.109375 L 130.871094 141.792969 Z M 130.582031 141.792969 "/>
</g>
<g clip-path="url(#clip154)" clip-rule="nonzero">
<path style=" stroke:none;fill-rule:evenodd;fill:rgb(100%,85.882353%,65.882353%);fill-opacity:1;" d="M 130.773438 141.792969 L 130.773438 44.109375 L 131.160156 44.109375 L 131.160156 141.792969 Z M 130.773438 141.792969 "/>
</g>
<g clip-path="url(#clip155)" clip-rule="nonzero">
<path style=" stroke:none;fill-rule:evenodd;fill:rgb(100%,85.098039%,65.098039%);fill-opacity:1;" d="M 131.066406 141.792969 L 131.066406 44.109375 L 131.355469 44.109375 L 131.355469 141.792969 Z M 131.066406 141.792969 "/>
</g>
<g clip-path="url(#clip156)" clip-rule="nonzero">
<path style=" stroke:none;fill-rule:evenodd;fill:rgb(100%,84.313725%,64.313725%);fill-opacity:1;" d="M 131.355469 141.792969 L 131.355469 44.109375 L 131.644531 44.109375 L 131.644531 141.792969 Z M 131.355469 141.792969 "/>
</g>
<g clip-path="url(#clip157)" clip-rule="nonzero">
<path style=" stroke:none;fill-rule:evenodd;fill:rgb(100%,83.529412%,63.529412%);fill-opacity:1;" d="M 131.644531 141.792969 L 131.644531 44.109375 L 131.9375 44.109375 L 131.9375 141.792969 Z M 131.644531 141.792969 "/>
</g>
<g clip-path="url(#clip158)" clip-rule="nonzero">
<path style=" stroke:none;fill-rule:evenodd;fill:rgb(100%,82.745098%,62.745098%);fill-opacity:1;" d="M 131.9375 141.792969 L 131.9375 44.109375 L 132.226563 44.109375 L 132.226563 141.792969 Z M 131.9375 141.792969 "/>
</g>
<g clip-path="url(#clip159)" clip-rule="nonzero">
<path style=" stroke:none;fill-rule:evenodd;fill:rgb(100%,81.960784%,61.960784%);fill-opacity:1;" d="M 132.226563 141.792969 L 132.226563 44.109375 L 132.519531 44.109375 L 132.519531 141.792969 Z M 132.226563 141.792969 "/>
</g>
<g clip-path="url(#clip160)" clip-rule="nonzero">
<path style=" stroke:none;fill-rule:evenodd;fill:rgb(100%,81.176471%,61.176471%);fill-opacity:1;" d="M 132.421875 141.792969 L 132.421875 44.109375 L 132.808594 44.109375 L 132.808594 141.792969 Z M 132.421875 141.792969 "/>
</g>
<g clip-path="url(#clip161)" clip-rule="nonzero">
<path style=" stroke:none;fill-rule:evenodd;fill:rgb(100%,80%,60%);fill-opacity:1;" d="M 132.808594 141.792969 L 132.808594 44.109375 L 135.617188 44.109375 L 135.617188 141.792969 Z M 132.808594 141.792969 "/>
</g>
<path style="fill:none;stroke-width:0.12;stroke-linecap:butt;stroke-linejoin:round;stroke:rgb(50.196078%,50.196078%,50.196078%);stroke-opacity:1;stroke-miterlimit:10;" d="M 157.300052 683.302557 L 147.397727 683.302557 L 147.397727 773.999544 L 167.198344 773.999544 L 167.198344 683.302557 Z M 157.300052 683.302557 " transform="matrix(0.968838,0,0,-1.075826,-26.46861,876.798561)"/>
<path style="fill-rule:evenodd;fill:rgb(100%,80%,60%);fill-opacity:1;stroke-width:0.12;stroke-linecap:butt;stroke-linejoin:round;stroke:rgb(50.196078%,50.196078%,50.196078%);stroke-opacity:1;stroke-miterlimit:10;" d="M 110.897018 813.700127 L 189.897891 773.999544 L 28.299698 773.999544 Z M 110.897018 813.700127 " transform="matrix(0.968838,0,0,-1.075826,-26.46861,876.798561)"/>
<path style="fill:none;stroke-width:0.12;stroke-linecap:butt;stroke-linejoin:round;stroke:rgb(50.196078%,50.196078%,50.196078%);stroke-opacity:1;stroke-miterlimit:10;" d="M 28.299698 813.700127 Z M 28.299698 813.700127 " transform="matrix(0.968838,0,0,-1.075826,-26.46861,876.798561)"/>
<path style="fill:none;stroke-width:0.12;stroke-linecap:butt;stroke-linejoin:round;stroke:rgb(50.196078%,50.196078%,50.196078%);stroke-opacity:1;stroke-miterlimit:10;" d="M 189.897891 773.897878 Z M 189.897891 773.897878 " transform="matrix(0.968838,0,0,-1.075826,-26.46861,876.798561)"/>
<path style="fill-rule:evenodd;fill:rgb(100%,100%,80%);fill-opacity:1;stroke-width:0.12;stroke-linecap:butt;stroke-linejoin:round;stroke:rgb(50.196078%,50.196078%,50.196078%);stroke-opacity:1;stroke-miterlimit:10;" d="M 109.800343 807.999568 L 170.101306 779.602068 L 48.201112 779.602068 Z M 109.800343 807.999568 " transform="matrix(0.968838,0,0,-1.075826,-26.46861,876.798561)"/>
<path style="fill:none;stroke-width:0.12;stroke-linecap:butt;stroke-linejoin:round;stroke:rgb(50.196078%,50.196078%,50.196078%);stroke-opacity:1;stroke-miterlimit:10;" d="M 48.201112 807.999568 Z M 48.201112 807.999568 " transform="matrix(0.968838,0,0,-1.075826,-26.46861,876.798561)"/>
<path style="fill:none;stroke-width:0.12;stroke-linecap:butt;stroke-linejoin:round;stroke:rgb(50.196078%,50.196078%,50.196078%);stroke-opacity:1;stroke-miterlimit:10;" d="M 170.101306 779.602068 Z M 170.101306 779.602068 " transform="matrix(0.968838,0,0,-1.075826,-26.46861,876.798561)"/>
<path style="fill-rule:evenodd;fill:rgb(100%,80%,60%);fill-opacity:1;stroke-width:0.12;stroke-linecap:butt;stroke-linejoin:round;stroke:rgb(50.196078%,50.196078%,50.196078%);stroke-opacity:1;stroke-miterlimit:10;" d="M 106.300662 674.802551 L 31.198628 674.802551 L 31.198628 683.302557 L 181.398664 683.302557 L 181.398664 674.802551 Z M 106.300662 674.802551 " transform="matrix(0.968838,0,0,-1.075826,-26.46861,876.798561)"/>
</g>
</svg>
