<?xml version="1.0" encoding="UTF-8"?>
<svg xmlns="http://www.w3.org/2000/svg" xmlns:xlink="http://www.w3.org/1999/xlink" width="175pt" height="168pt" viewBox="0 0 175 168" version="1.1">
<defs>
<clipPath id="clip1">
  <path d="M 25.421875 52.21875 L 29 52.21875 L 29 149.792969 L 25.421875 149.792969 Z M 25.421875 52.21875 "/>
</clipPath>
<clipPath id="clip2">
  <path d="M 28.035156 52.21875 L 29 52.21875 L 29 149.792969 L 28.035156 149.792969 Z M 28.035156 52.21875 "/>
</clipPath>
<clipPath id="clip3">
  <path d="M 28.035156 52.21875 L 29.972656 52.21875 L 29.972656 149.792969 L 28.035156 149.792969 Z M 28.035156 52.21875 "/>
</clipPath>
<clipPath id="clip4">
  <path d="M 29.003906 52.21875 L 29.972656 52.21875 L 29.972656 149.792969 L 29.003906 149.792969 Z M 29.003906 52.21875 "/>
</clipPath>
<clipPath id="clip5">
  <path d="M 29.972656 52.21875 L 30.941406 52.21875 L 30.941406 149.792969 L 29.972656 149.792969 Z M 29.972656 52.21875 "/>
</clipPath>
<clipPath id="clip6">
  <path d="M 30 52.21875 L 30.941406 52.21875 L 30.941406 149.792969 L 30 149.792969 Z M 30 52.21875 "/>
</clipPath>
<clipPath id="clip7">
  <path d="M 30 52.21875 L 31.910156 52.21875 L 31.910156 149.792969 L 30 149.792969 Z M 30 52.21875 "/>
</clipPath>
<clipPath id="clip8">
  <path d="M 31 52.21875 L 31.910156 52.21875 L 31.910156 149.792969 L 31 149.792969 Z M 31 52.21875 "/>
</clipPath>
<clipPath id="clip9">
  <path d="M 31.910156 52.21875 L 32.878906 52.21875 L 32.878906 149.792969 L 31.910156 149.792969 Z M 31.910156 52.21875 "/>
</clipPath>
<clipPath id="clip10">
  <path d="M 32 52.21875 L 32.878906 52.21875 L 32.878906 149.792969 L 32 149.792969 Z M 32 52.21875 "/>
</clipPath>
<clipPath id="clip11">
  <path d="M 32 52.21875 L 33 52.21875 L 33 149.792969 L 32 149.792969 Z M 32 52.21875 "/>
</clipPath>
<clipPath id="clip12">
  <path d="M 32.878906 52.21875 L 33.847656 52.21875 L 33.847656 149.792969 L 32.878906 149.792969 Z M 32.878906 52.21875 "/>
</clipPath>
<clipPath id="clip13">
  <path d="M 33 52.21875 L 33.847656 52.21875 L 33.847656 149.792969 L 33 149.792969 Z M 33 52.21875 "/>
</clipPath>
<clipPath id="clip14">
  <path d="M 33.847656 52.21875 L 34.816406 52.21875 L 34.816406 149.792969 L 33.847656 149.792969 Z M 33.847656 52.21875 "/>
</clipPath>
<clipPath id="clip15">
  <path d="M 34 52.21875 L 34.816406 52.21875 L 34.816406 149.792969 L 34 149.792969 Z M 34 52.21875 "/>
</clipPath>
<clipPath id="clip16">
  <path d="M 34 52.21875 L 35.785156 52.21875 L 35.785156 149.792969 L 34 149.792969 Z M 34 52.21875 "/>
</clipPath>
<clipPath id="clip17">
  <path d="M 34.816406 52.21875 L 35.785156 52.21875 L 35.785156 149.792969 L 34.816406 149.792969 Z M 34.816406 52.21875 "/>
</clipPath>
<clipPath id="clip18">
  <path d="M 35 52.21875 L 35.785156 52.21875 L 35.785156 149.792969 L 35 149.792969 Z M 35 52.21875 "/>
</clipPath>
<clipPath id="clip19">
  <path d="M 35.785156 52.21875 L 36.753906 52.21875 L 36.753906 149.792969 L 35.785156 149.792969 Z M 35.785156 52.21875 "/>
</clipPath>
<clipPath id="clip20">
  <path d="M 36 52.21875 L 36.753906 52.21875 L 36.753906 149.792969 L 36 149.792969 Z M 36 52.21875 "/>
</clipPath>
<clipPath id="clip21">
  <path d="M 36 52.21875 L 37 52.21875 L 37 149.792969 L 36 149.792969 Z M 36 52.21875 "/>
</clipPath>
<clipPath id="clip22">
  <path d="M 36.753906 52.21875 L 37.722656 52.21875 L 37.722656 149.792969 L 36.753906 149.792969 Z M 36.753906 52.21875 "/>
</clipPath>
<clipPath id="clip23">
  <path d="M 37 52.21875 L 37.722656 52.21875 L 37.722656 149.792969 L 37 149.792969 Z M 37 52.21875 "/>
</clipPath>
<clipPath id="clip24">
  <path d="M 37.722656 52.21875 L 38.691406 52.21875 L 38.691406 149.792969 L 37.722656 149.792969 Z M 37.722656 52.21875 "/>
</clipPath>
<clipPath id="clip25">
  <path d="M 38 52.21875 L 38.691406 52.21875 L 38.691406 149.792969 L 38 149.792969 Z M 38 52.21875 "/>
</clipPath>
<clipPath id="clip26">
  <path d="M 38 52.21875 L 39 52.21875 L 39 149.792969 L 38 149.792969 Z M 38 52.21875 "/>
</clipPath>
<clipPath id="clip27">
  <path d="M 38.691406 52.21875 L 39.660156 52.21875 L 39.660156 149.792969 L 38.691406 149.792969 Z M 38.691406 52.21875 "/>
</clipPath>
<clipPath id="clip28">
  <path d="M 39 52.21875 L 39.660156 52.21875 L 39.660156 149.792969 L 39 149.792969 Z M 39 52.21875 "/>
</clipPath>
<clipPath id="clip29">
  <path d="M 39.660156 52.21875 L 40 52.21875 L 40 149.792969 L 39.660156 149.792969 Z M 39.660156 52.21875 "/>
</clipPath>
<clipPath id="clip30">
  <path d="M 39.660156 52.21875 L 40.628906 52.21875 L 40.628906 149.792969 L 39.660156 149.792969 Z M 39.660156 52.21875 "/>
</clipPath>
<clipPath id="clip31">
  <path d="M 40 52.21875 L 40.628906 52.21875 L 40.628906 149.792969 L 40 149.792969 Z M 40 52.21875 "/>
</clipPath>
<clipPath id="clip32">
  <path d="M 40 52.21875 L 41 52.21875 L 41 149.792969 L 40 149.792969 Z M 40 52.21875 "/>
</clipPath>
<clipPath id="clip33">
  <path d="M 40.628906 52.21875 L 41.597656 52.21875 L 41.597656 149.792969 L 40.628906 149.792969 Z M 40.628906 52.21875 "/>
</clipPath>
<clipPath id="clip34">
  <path d="M 41 52.21875 L 41.597656 52.21875 L 41.597656 149.792969 L 41 149.792969 Z M 41 52.21875 "/>
</clipPath>
<clipPath id="clip35">
  <path d="M 41.597656 52.21875 L 42 52.21875 L 42 149.792969 L 41.597656 149.792969 Z M 41.597656 52.21875 "/>
</clipPath>
<clipPath id="clip36">
  <path d="M 41.597656 52.21875 L 44.605469 52.21875 L 44.605469 149.792969 L 41.597656 149.792969 Z M 41.597656 52.21875 "/>
</clipPath>
<clipPath id="clip37">
  <path d="M 58.359375 52.21875 L 61.945313 52.21875 L 61.945313 149.792969 L 58.359375 149.792969 Z M 58.359375 52.21875 "/>
</clipPath>
<clipPath id="clip38">
  <path d="M 61 52.21875 L 61.945313 52.21875 L 61.945313 149.792969 L 61 149.792969 Z M 61 52.21875 "/>
</clipPath>
<clipPath id="clip39">
  <path d="M 61 52.21875 L 62.914063 52.21875 L 62.914063 149.792969 L 61 149.792969 Z M 61 52.21875 "/>
</clipPath>
<clipPath id="clip40">
  <path d="M 62 52.21875 L 62.914063 52.21875 L 62.914063 149.792969 L 62 149.792969 Z M 62 52.21875 "/>
</clipPath>
<clipPath id="clip41">
  <path d="M 62.914063 52.21875 L 63.882813 52.21875 L 63.882813 149.792969 L 62.914063 149.792969 Z M 62.914063 52.21875 "/>
</clipPath>
<clipPath id="clip42">
  <path d="M 63 52.21875 L 63.882813 52.21875 L 63.882813 149.792969 L 63 149.792969 Z M 63 52.21875 "/>
</clipPath>
<clipPath id="clip43">
  <path d="M 63 52.21875 L 64.851563 52.21875 L 64.851563 149.792969 L 63 149.792969 Z M 63 52.21875 "/>
</clipPath>
<clipPath id="clip44">
  <path d="M 64 52.21875 L 64.851563 52.21875 L 64.851563 149.792969 L 64 149.792969 Z M 64 52.21875 "/>
</clipPath>
<clipPath id="clip45">
  <path d="M 64.851563 52.21875 L 65.820313 52.21875 L 65.820313 149.792969 L 64.851563 149.792969 Z M 64.851563 52.21875 "/>
</clipPath>
<clipPath id="clip46">
  <path d="M 65 52.21875 L 65.820313 52.21875 L 65.820313 149.792969 L 65 149.792969 Z M 65 52.21875 "/>
</clipPath>
<clipPath id="clip47">
  <path d="M 65 52.21875 L 66.789063 52.21875 L 66.789063 149.792969 L 65 149.792969 Z M 65 52.21875 "/>
</clipPath>
<clipPath id="clip48">
  <path d="M 65.820313 52.21875 L 66.789063 52.21875 L 66.789063 149.792969 L 65.820313 149.792969 Z M 65.820313 52.21875 "/>
</clipPath>
<clipPath id="clip49">
  <path d="M 66 52.21875 L 66.789063 52.21875 L 66.789063 149.792969 L 66 149.792969 Z M 66 52.21875 "/>
</clipPath>
<clipPath id="clip50">
  <path d="M 66.789063 52.21875 L 67.757813 52.21875 L 67.757813 149.792969 L 66.789063 149.792969 Z M 66.789063 52.21875 "/>
</clipPath>
<clipPath id="clip51">
  <path d="M 67 52.21875 L 67.757813 52.21875 L 67.757813 149.792969 L 67 149.792969 Z M 67 52.21875 "/>
</clipPath>
<clipPath id="clip52">
  <path d="M 67 52.21875 L 68 52.21875 L 68 149.792969 L 67 149.792969 Z M 67 52.21875 "/>
</clipPath>
<clipPath id="clip53">
  <path d="M 67.757813 52.21875 L 68.726563 52.21875 L 68.726563 149.792969 L 67.757813 149.792969 Z M 67.757813 52.21875 "/>
</clipPath>
<clipPath id="clip54">
  <path d="M 68 52.21875 L 68.726563 52.21875 L 68.726563 149.792969 L 68 149.792969 Z M 68 52.21875 "/>
</clipPath>
<clipPath id="clip55">
  <path d="M 68.726563 52.21875 L 69.695313 52.21875 L 69.695313 149.792969 L 68.726563 149.792969 Z M 68.726563 52.21875 "/>
</clipPath>
<clipPath id="clip56">
  <path d="M 69 52.21875 L 69.695313 52.21875 L 69.695313 149.792969 L 69 149.792969 Z M 69 52.21875 "/>
</clipPath>
<clipPath id="clip57">
  <path d="M 69 52.21875 L 70 52.21875 L 70 149.792969 L 69 149.792969 Z M 69 52.21875 "/>
</clipPath>
<clipPath id="clip58">
  <path d="M 69.695313 52.21875 L 70.664063 52.21875 L 70.664063 149.792969 L 69.695313 149.792969 Z M 69.695313 52.21875 "/>
</clipPath>
<clipPath id="clip59">
  <path d="M 70 52.21875 L 70.664063 52.21875 L 70.664063 149.792969 L 70 149.792969 Z M 70 52.21875 "/>
</clipPath>
<clipPath id="clip60">
  <path d="M 70.664063 52.21875 L 71 52.21875 L 71 149.792969 L 70.664063 149.792969 Z M 70.664063 52.21875 "/>
</clipPath>
<clipPath id="clip61">
  <path d="M 70.664063 52.21875 L 71.632813 52.21875 L 71.632813 149.792969 L 70.664063 149.792969 Z M 70.664063 52.21875 "/>
</clipPath>
<clipPath id="clip62">
  <path d="M 71 52.21875 L 71.632813 52.21875 L 71.632813 149.792969 L 71 149.792969 Z M 71 52.21875 "/>
</clipPath>
<clipPath id="clip63">
  <path d="M 71 52.21875 L 72 52.21875 L 72 149.792969 L 71 149.792969 Z M 71 52.21875 "/>
</clipPath>
<clipPath id="clip64">
  <path d="M 71.632813 52.21875 L 72.601563 52.21875 L 72.601563 149.792969 L 71.632813 149.792969 Z M 71.632813 52.21875 "/>
</clipPath>
<clipPath id="clip65">
  <path d="M 72 52.21875 L 72.601563 52.21875 L 72.601563 149.792969 L 72 149.792969 Z M 72 52.21875 "/>
</clipPath>
<clipPath id="clip66">
  <path d="M 72 52.21875 L 73 52.21875 L 73 149.792969 L 72 149.792969 Z M 72 52.21875 "/>
</clipPath>
<clipPath id="clip67">
  <path d="M 72.601563 52.21875 L 73 52.21875 L 73 149.792969 L 72.601563 149.792969 Z M 72.601563 52.21875 "/>
</clipPath>
<clipPath id="clip68">
  <path d="M 72.601563 52.21875 L 73.570313 52.21875 L 73.570313 149.792969 L 72.601563 149.792969 Z M 72.601563 52.21875 "/>
</clipPath>
<clipPath id="clip69">
  <path d="M 73 52.21875 L 73.570313 52.21875 L 73.570313 149.792969 L 73 149.792969 Z M 73 52.21875 "/>
</clipPath>
<clipPath id="clip70">
  <path d="M 73 52.21875 L 74 52.21875 L 74 149.792969 L 73 149.792969 Z M 73 52.21875 "/>
</clipPath>
<clipPath id="clip71">
  <path d="M 73.570313 52.21875 L 74.539063 52.21875 L 74.539063 149.792969 L 73.570313 149.792969 Z M 73.570313 52.21875 "/>
</clipPath>
<clipPath id="clip72">
  <path d="M 74 52.21875 L 74.539063 52.21875 L 74.539063 149.792969 L 74 149.792969 Z M 74 52.21875 "/>
</clipPath>
<clipPath id="clip73">
  <path d="M 74.539063 52.21875 L 75 52.21875 L 75 149.792969 L 74.539063 149.792969 Z M 74.539063 52.21875 "/>
</clipPath>
<clipPath id="clip74">
  <path d="M 74.539063 52.21875 L 77.542969 52.21875 L 77.542969 149.792969 L 74.539063 149.792969 Z M 74.539063 52.21875 "/>
</clipPath>
<clipPath id="clip75">
  <path d="M 91.300781 52.21875 L 94.886719 52.21875 L 94.886719 149.792969 L 91.300781 149.792969 Z M 91.300781 52.21875 "/>
</clipPath>
<clipPath id="clip76">
  <path d="M 94 52.21875 L 94.886719 52.21875 L 94.886719 149.792969 L 94 149.792969 Z M 94 52.21875 "/>
</clipPath>
<clipPath id="clip77">
  <path d="M 94 52.21875 L 95.855469 52.21875 L 95.855469 149.792969 L 94 149.792969 Z M 94 52.21875 "/>
</clipPath>
<clipPath id="clip78">
  <path d="M 95 52.21875 L 95.855469 52.21875 L 95.855469 149.792969 L 95 149.792969 Z M 95 52.21875 "/>
</clipPath>
<clipPath id="clip79">
  <path d="M 95.855469 52.21875 L 96.824219 52.21875 L 96.824219 149.792969 L 95.855469 149.792969 Z M 95.855469 52.21875 "/>
</clipPath>
<clipPath id="clip80">
  <path d="M 96 52.21875 L 96.824219 52.21875 L 96.824219 149.792969 L 96 149.792969 Z M 96 52.21875 "/>
</clipPath>
<clipPath id="clip81">
  <path d="M 96 52.21875 L 97.792969 52.21875 L 97.792969 149.792969 L 96 149.792969 Z M 96 52.21875 "/>
</clipPath>
<clipPath id="clip82">
  <path d="M 97 52.21875 L 97.792969 52.21875 L 97.792969 149.792969 L 97 149.792969 Z M 97 52.21875 "/>
</clipPath>
<clipPath id="clip83">
  <path d="M 97.792969 52.21875 L 98.761719 52.21875 L 98.761719 149.792969 L 97.792969 149.792969 Z M 97.792969 52.21875 "/>
</clipPath>
<clipPath id="clip84">
  <path d="M 98 52.21875 L 98.761719 52.21875 L 98.761719 149.792969 L 98 149.792969 Z M 98 52.21875 "/>
</clipPath>
<clipPath id="clip85">
  <path d="M 98 52.21875 L 99 52.21875 L 99 149.792969 L 98 149.792969 Z M 98 52.21875 "/>
</clipPath>
<clipPath id="clip86">
  <path d="M 98.761719 52.21875 L 99.730469 52.21875 L 99.730469 149.792969 L 98.761719 149.792969 Z M 98.761719 52.21875 "/>
</clipPath>
<clipPath id="clip87">
  <path d="M 99 52.21875 L 99.730469 52.21875 L 99.730469 149.792969 L 99 149.792969 Z M 99 52.21875 "/>
</clipPath>
<clipPath id="clip88">
  <path d="M 99 52.21875 L 100 52.21875 L 100 149.792969 L 99 149.792969 Z M 99 52.21875 "/>
</clipPath>
<clipPath id="clip89">
  <path d="M 99.730469 52.21875 L 100.699219 52.21875 L 100.699219 149.792969 L 99.730469 149.792969 Z M 99.730469 52.21875 "/>
</clipPath>
<clipPath id="clip90">
  <path d="M 100 52.21875 L 100.699219 52.21875 L 100.699219 149.792969 L 100 149.792969 Z M 100 52.21875 "/>
</clipPath>
<clipPath id="clip91">
  <path d="M 100 52.21875 L 101 52.21875 L 101 149.792969 L 100 149.792969 Z M 100 52.21875 "/>
</clipPath>
<clipPath id="clip92">
  <path d="M 100.699219 52.21875 L 101.667969 52.21875 L 101.667969 149.792969 L 100.699219 149.792969 Z M 100.699219 52.21875 "/>
</clipPath>
<clipPath id="clip93">
  <path d="M 101 52.21875 L 101.667969 52.21875 L 101.667969 149.792969 L 101 149.792969 Z M 101 52.21875 "/>
</clipPath>
<clipPath id="clip94">
  <path d="M 101.667969 52.21875 L 102 52.21875 L 102 149.792969 L 101.667969 149.792969 Z M 101.667969 52.21875 "/>
</clipPath>
<clipPath id="clip95">
  <path d="M 101.667969 52.21875 L 102.636719 52.21875 L 102.636719 149.792969 L 101.667969 149.792969 Z M 101.667969 52.21875 "/>
</clipPath>
<clipPath id="clip96">
  <path d="M 102 52.21875 L 102.636719 52.21875 L 102.636719 149.792969 L 102 149.792969 Z M 102 52.21875 "/>
</clipPath>
<clipPath id="clip97">
  <path d="M 102 52.21875 L 103 52.21875 L 103 149.792969 L 102 149.792969 Z M 102 52.21875 "/>
</clipPath>
<clipPath id="clip98">
  <path d="M 102.636719 52.21875 L 103.605469 52.21875 L 103.605469 149.792969 L 102.636719 149.792969 Z M 102.636719 52.21875 "/>
</clipPath>
<clipPath id="clip99">
  <path d="M 103 52.21875 L 103.605469 52.21875 L 103.605469 149.792969 L 103 149.792969 Z M 103 52.21875 "/>
</clipPath>
<clipPath id="clip100">
  <path d="M 103 52.21875 L 104 52.21875 L 104 149.792969 L 103 149.792969 Z M 103 52.21875 "/>
</clipPath>
<clipPath id="clip101">
  <path d="M 103.605469 52.21875 L 104 52.21875 L 104 149.792969 L 103.605469 149.792969 Z M 103.605469 52.21875 "/>
</clipPath>
<clipPath id="clip102">
  <path d="M 103.605469 52.21875 L 104.574219 52.21875 L 104.574219 149.792969 L 103.605469 149.792969 Z M 103.605469 52.21875 "/>
</clipPath>
<clipPath id="clip103">
  <path d="M 104 52.21875 L 104.574219 52.21875 L 104.574219 149.792969 L 104 149.792969 Z M 104 52.21875 "/>
</clipPath>
<clipPath id="clip104">
  <path d="M 104 52.21875 L 105 52.21875 L 105 149.792969 L 104 149.792969 Z M 104 52.21875 "/>
</clipPath>
<clipPath id="clip105">
  <path d="M 104.574219 52.21875 L 105.542969 52.21875 L 105.542969 149.792969 L 104.574219 149.792969 Z M 104.574219 52.21875 "/>
</clipPath>
<clipPath id="clip106">
  <path d="M 105 52.21875 L 106 52.21875 L 106 149.792969 L 105 149.792969 Z M 105 52.21875 "/>
</clipPath>
<clipPath id="clip107">
  <path d="M 105.542969 52.21875 L 106 52.21875 L 106 149.792969 L 105.542969 149.792969 Z M 105.542969 52.21875 "/>
</clipPath>
<clipPath id="clip108">
  <path d="M 105.542969 52.21875 L 106.511719 52.21875 L 106.511719 149.792969 L 105.542969 149.792969 Z M 105.542969 52.21875 "/>
</clipPath>
<clipPath id="clip109">
  <path d="M 106 52.21875 L 106.511719 52.21875 L 106.511719 149.792969 L 106 149.792969 Z M 106 52.21875 "/>
</clipPath>
<clipPath id="clip110">
  <path d="M 106 52.21875 L 107 52.21875 L 107 149.792969 L 106 149.792969 Z M 106 52.21875 "/>
</clipPath>
<clipPath id="clip111">
  <path d="M 106.511719 52.21875 L 107 52.21875 L 107 149.792969 L 106.511719 149.792969 Z M 106.511719 52.21875 "/>
</clipPath>
<clipPath id="clip112">
  <path d="M 106.511719 52.21875 L 107.480469 52.21875 L 107.480469 149.792969 L 106.511719 149.792969 Z M 106.511719 52.21875 "/>
</clipPath>
<clipPath id="clip113">
  <path d="M 107 52.21875 L 108 52.21875 L 108 149.792969 L 107 149.792969 Z M 107 52.21875 "/>
</clipPath>
<clipPath id="clip114">
  <path d="M 107.480469 52.21875 L 108 52.21875 L 108 149.792969 L 107.480469 149.792969 Z M 107.480469 52.21875 "/>
</clipPath>
<clipPath id="clip115">
  <path d="M 107.480469 52.21875 L 110.484375 52.21875 L 110.484375 149.792969 L 107.480469 149.792969 Z M 107.480469 52.21875 "/>
</clipPath>
<clipPath id="clip116">
  <path d="M 124.335938 52.21875 L 127.824219 52.21875 L 127.824219 149.792969 L 124.335938 149.792969 Z M 124.335938 52.21875 "/>
</clipPath>
<clipPath id="clip117">
  <path d="M 127 52.21875 L 127.824219 52.21875 L 127.824219 149.792969 L 127 149.792969 Z M 127 52.21875 "/>
</clipPath>
<clipPath id="clip118">
  <path d="M 127 52.21875 L 128.792969 52.21875 L 128.792969 149.792969 L 127 149.792969 Z M 127 52.21875 "/>
</clipPath>
<clipPath id="clip119">
  <path d="M 128 52.21875 L 128.792969 52.21875 L 128.792969 149.792969 L 128 149.792969 Z M 128 52.21875 "/>
</clipPath>
<clipPath id="clip120">
  <path d="M 128 52.21875 L 129 52.21875 L 129 149.792969 L 128 149.792969 Z M 128 52.21875 "/>
</clipPath>
<clipPath id="clip121">
  <path d="M 128.792969 52.21875 L 129.761719 52.21875 L 129.761719 149.792969 L 128.792969 149.792969 Z M 128.792969 52.21875 "/>
</clipPath>
<clipPath id="clip122">
  <path d="M 129 52.21875 L 129.761719 52.21875 L 129.761719 149.792969 L 129 149.792969 Z M 129 52.21875 "/>
</clipPath>
<clipPath id="clip123">
  <path d="M 129 52.21875 L 130 52.21875 L 130 149.792969 L 129 149.792969 Z M 129 52.21875 "/>
</clipPath>
<clipPath id="clip124">
  <path d="M 129.761719 52.21875 L 130.734375 52.21875 L 130.734375 149.792969 L 129.761719 149.792969 Z M 129.761719 52.21875 "/>
</clipPath>
<clipPath id="clip125">
  <path d="M 130 52.21875 L 130.734375 52.21875 L 130.734375 149.792969 L 130 149.792969 Z M 130 52.21875 "/>
</clipPath>
<clipPath id="clip126">
  <path d="M 130 52.21875 L 131 52.21875 L 131 149.792969 L 130 149.792969 Z M 130 52.21875 "/>
</clipPath>
<clipPath id="clip127">
  <path d="M 130.734375 52.21875 L 131.703125 52.21875 L 131.703125 149.792969 L 130.734375 149.792969 Z M 130.734375 52.21875 "/>
</clipPath>
<clipPath id="clip128">
  <path d="M 131 52.21875 L 131.703125 52.21875 L 131.703125 149.792969 L 131 149.792969 Z M 131 52.21875 "/>
</clipPath>
<clipPath id="clip129">
  <path d="M 131 52.21875 L 132 52.21875 L 132 149.792969 L 131 149.792969 Z M 131 52.21875 "/>
</clipPath>
<clipPath id="clip130">
  <path d="M 131.703125 52.21875 L 132.671875 52.21875 L 132.671875 149.792969 L 131.703125 149.792969 Z M 131.703125 52.21875 "/>
</clipPath>
<clipPath id="clip131">
  <path d="M 132 52.21875 L 132.671875 52.21875 L 132.671875 149.792969 L 132 149.792969 Z M 132 52.21875 "/>
</clipPath>
<clipPath id="clip132">
  <path d="M 132 52.21875 L 133 52.21875 L 133 149.792969 L 132 149.792969 Z M 132 52.21875 "/>
</clipPath>
<clipPath id="clip133">
  <path d="M 132.671875 52.21875 L 133.640625 52.21875 L 133.640625 149.792969 L 132.671875 149.792969 Z M 132.671875 52.21875 "/>
</clipPath>
<clipPath id="clip134">
  <path d="M 133 52.21875 L 133.640625 52.21875 L 133.640625 149.792969 L 133 149.792969 Z M 133 52.21875 "/>
</clipPath>
<clipPath id="clip135">
  <path d="M 133 52.21875 L 134 52.21875 L 134 149.792969 L 133 149.792969 Z M 133 52.21875 "/>
</clipPath>
<clipPath id="clip136">
  <path d="M 133.640625 52.21875 L 134.609375 52.21875 L 134.609375 149.792969 L 133.640625 149.792969 Z M 133.640625 52.21875 "/>
</clipPath>
<clipPath id="clip137">
  <path d="M 134 52.21875 L 134.609375 52.21875 L 134.609375 149.792969 L 134 149.792969 Z M 134 52.21875 "/>
</clipPath>
<clipPath id="clip138">
  <path d="M 134 52.21875 L 135 52.21875 L 135 149.792969 L 134 149.792969 Z M 134 52.21875 "/>
</clipPath>
<clipPath id="clip139">
  <path d="M 134.609375 52.21875 L 135 52.21875 L 135 149.792969 L 134.609375 149.792969 Z M 134.609375 52.21875 "/>
</clipPath>
<clipPath id="clip140">
  <path d="M 134.609375 52.21875 L 135.578125 52.21875 L 135.578125 149.792969 L 134.609375 149.792969 Z M 134.609375 52.21875 "/>
</clipPath>
<clipPath id="clip141">
  <path d="M 135 52.21875 L 135.578125 52.21875 L 135.578125 149.792969 L 135 149.792969 Z M 135 52.21875 "/>
</clipPath>
<clipPath id="clip142">
  <path d="M 135 52.21875 L 136 52.21875 L 136 149.792969 L 135 149.792969 Z M 135 52.21875 "/>
</clipPath>
<clipPath id="clip143">
  <path d="M 135.578125 52.21875 L 136.546875 52.21875 L 136.546875 149.792969 L 135.578125 149.792969 Z M 135.578125 52.21875 "/>
</clipPath>
<clipPath id="clip144">
  <path d="M 136 52.21875 L 136.546875 52.21875 L 136.546875 149.792969 L 136 149.792969 Z M 136 52.21875 "/>
</clipPath>
<clipPath id="clip145">
  <path d="M 136 52.21875 L 137 52.21875 L 137 149.792969 L 136 149.792969 Z M 136 52.21875 "/>
</clipPath>
<clipPath id="clip146">
  <path d="M 136.546875 52.21875 L 137 52.21875 L 137 149.792969 L 136.546875 149.792969 Z M 136.546875 52.21875 "/>
</clipPath>
<clipPath id="clip147">
  <path d="M 136.546875 52.21875 L 137.515625 52.21875 L 137.515625 149.792969 L 136.546875 149.792969 Z M 136.546875 52.21875 "/>
</clipPath>
<clipPath id="clip148">
  <path d="M 137 52.21875 L 137.515625 52.21875 L 137.515625 149.792969 L 137 149.792969 Z M 137 52.21875 "/>
</clipPath>
<clipPath id="clip149">
  <path d="M 137 52.21875 L 138 52.21875 L 138 149.792969 L 137 149.792969 Z M 137 52.21875 "/>
</clipPath>
<clipPath id="clip150">
  <path d="M 137.515625 52.21875 L 138 52.21875 L 138 149.792969 L 137.515625 149.792969 Z M 137.515625 52.21875 "/>
</clipPath>
<clipPath id="clip151">
  <path d="M 138 52.21875 L 138.484375 52.21875 L 138.484375 149.792969 L 138 149.792969 Z M 138 52.21875 "/>
</clipPath>
<clipPath id="clip152">
  <path d="M 138 52.21875 L 139 52.21875 L 139 149.792969 L 138 149.792969 Z M 138 52.21875 "/>
</clipPath>
<clipPath id="clip153">
  <path d="M 138.484375 52.21875 L 139 52.21875 L 139 149.792969 L 138.484375 149.792969 Z M 138.484375 52.21875 "/>
</clipPath>
<clipPath id="clip154">
  <path d="M 138.484375 52.21875 L 139.453125 52.21875 L 139.453125 149.792969 L 138.484375 149.792969 Z M 138.484375 52.21875 "/>
</clipPath>
<clipPath id="clip155">
  <path d="M 139 52.21875 L 139.453125 52.21875 L 139.453125 149.792969 L 139 149.792969 Z M 139 52.21875 "/>
</clipPath>
<clipPath id="clip156">
  <path d="M 139 52.21875 L 140 52.21875 L 140 149.792969 L 139 149.792969 Z M 139 52.21875 "/>
</clipPath>
<clipPath id="clip157">
  <path d="M 139.453125 52.21875 L 140 52.21875 L 140 149.792969 L 139.453125 149.792969 Z M 139.453125 52.21875 "/>
</clipPath>
<clipPath id="clip158">
  <path d="M 139.453125 52.21875 L 140.421875 52.21875 L 140.421875 149.792969 L 139.453125 149.792969 Z M 139.453125 52.21875 "/>
</clipPath>
<clipPath id="clip159">
  <path d="M 140 52.21875 L 141 52.21875 L 141 149.792969 L 140 149.792969 Z M 140 52.21875 "/>
</clipPath>
<clipPath id="clip160">
  <path d="M 140.421875 52.21875 L 141 52.21875 L 141 149.792969 L 140.421875 149.792969 Z M 140.421875 52.21875 "/>
</clipPath>
<clipPath id="clip161">
  <path d="M 140.421875 52.21875 L 143.519531 52.21875 L 143.519531 149.792969 L 140.421875 149.792969 Z M 140.421875 52.21875 "/>
</clipPath>
</defs>
<g id="surface596384">
<g clip-path="url(#clip1)" clip-rule="nonzero">
<path style=" stroke:none;fill-rule:evenodd;fill:rgb(100%,80%,60%);fill-opacity:1;" d="M 25.421875 149.792969 L 25.421875 52.109375 L 28.328125 52.109375 L 28.328125 149.792969 Z M 25.421875 149.792969 "/>
</g>
<g clip-path="url(#clip2)" clip-rule="nonzero">
<path style=" stroke:none;fill-rule:evenodd;fill:rgb(100%,80%,60%);fill-opacity:1;" d="M 28.328125 149.792969 L 28.328125 52.109375 L 28.617188 52.109375 L 28.617188 149.792969 Z M 28.328125 149.792969 "/>
<path style=" stroke:none;fill-rule:evenodd;fill:rgb(100%,80.784314%,60.784314%);fill-opacity:1;" d="M 28.617188 149.792969 L 28.617188 52.109375 L 28.90625 52.109375 L 28.90625 149.792969 Z M 28.617188 149.792969 "/>
</g>
<g clip-path="url(#clip3)" clip-rule="nonzero">
<path style=" stroke:none;fill-rule:evenodd;fill:rgb(100%,81.568627%,61.568627%);fill-opacity:1;" d="M 28.8125 149.792969 L 28.8125 52.109375 L 29.199219 52.109375 L 29.199219 149.792969 Z M 28.8125 149.792969 "/>
</g>
<g clip-path="url(#clip4)" clip-rule="nonzero">
<path style=" stroke:none;fill-rule:evenodd;fill:rgb(100%,82.352941%,62.352941%);fill-opacity:1;" d="M 29.101563 149.792969 L 29.101563 52.109375 L 29.390625 52.109375 L 29.390625 149.792969 Z M 29.101563 149.792969 "/>
<path style=" stroke:none;fill-rule:evenodd;fill:rgb(100%,83.137255%,63.137255%);fill-opacity:1;" d="M 29.390625 149.792969 L 29.390625 52.109375 L 29.683594 52.109375 L 29.683594 149.792969 Z M 29.390625 149.792969 "/>
<path style=" stroke:none;fill-rule:evenodd;fill:rgb(100%,83.921569%,63.921569%);fill-opacity:1;" d="M 29.683594 149.792969 L 29.683594 52.109375 L 29.972656 52.109375 L 29.972656 149.792969 Z M 29.683594 149.792969 "/>
</g>
<g clip-path="url(#clip5)" clip-rule="nonzero">
<path style=" stroke:none;fill-rule:evenodd;fill:rgb(100%,84.705882%,64.705882%);fill-opacity:1;" d="M 29.972656 149.792969 L 29.972656 52.109375 L 30.265625 52.109375 L 30.265625 149.792969 Z M 29.972656 149.792969 "/>
</g>
<g clip-path="url(#clip6)" clip-rule="nonzero">
<path style=" stroke:none;fill-rule:evenodd;fill:rgb(100%,85.490196%,65.490196%);fill-opacity:1;" d="M 30.265625 149.792969 L 30.265625 52.109375 L 30.554688 52.109375 L 30.554688 149.792969 Z M 30.265625 149.792969 "/>
<path style=" stroke:none;fill-rule:evenodd;fill:rgb(100%,86.27451%,66.27451%);fill-opacity:1;" d="M 30.457031 149.792969 L 30.457031 52.109375 L 30.84375 52.109375 L 30.84375 149.792969 Z M 30.457031 149.792969 "/>
</g>
<g clip-path="url(#clip7)" clip-rule="nonzero">
<path style=" stroke:none;fill-rule:evenodd;fill:rgb(100%,87.058824%,67.058824%);fill-opacity:1;" d="M 30.75 149.792969 L 30.75 52.109375 L 31.136719 52.109375 L 31.136719 149.792969 Z M 30.75 149.792969 "/>
</g>
<g clip-path="url(#clip8)" clip-rule="nonzero">
<path style=" stroke:none;fill-rule:evenodd;fill:rgb(100%,87.843137%,67.843137%);fill-opacity:1;" d="M 31.039063 149.792969 L 31.039063 52.109375 L 31.328125 52.109375 L 31.328125 149.792969 Z M 31.039063 149.792969 "/>
<path style=" stroke:none;fill-rule:evenodd;fill:rgb(100%,88.627451%,68.627451%);fill-opacity:1;" d="M 31.328125 149.792969 L 31.328125 52.109375 L 31.621094 52.109375 L 31.621094 149.792969 Z M 31.328125 149.792969 "/>
<path style=" stroke:none;fill-rule:evenodd;fill:rgb(100%,89.411765%,69.411765%);fill-opacity:1;" d="M 31.621094 149.792969 L 31.621094 52.109375 L 31.910156 52.109375 L 31.910156 149.792969 Z M 31.621094 149.792969 "/>
</g>
<g clip-path="url(#clip9)" clip-rule="nonzero">
<path style=" stroke:none;fill-rule:evenodd;fill:rgb(100%,90.196078%,70.196078%);fill-opacity:1;" d="M 31.910156 149.792969 L 31.910156 52.109375 L 32.203125 52.109375 L 32.203125 149.792969 Z M 31.910156 149.792969 "/>
</g>
<g clip-path="url(#clip10)" clip-rule="nonzero">
<path style=" stroke:none;fill-rule:evenodd;fill:rgb(100%,90.980392%,70.980392%);fill-opacity:1;" d="M 32.203125 149.792969 L 32.203125 52.109375 L 32.492188 52.109375 L 32.492188 149.792969 Z M 32.203125 149.792969 "/>
<path style=" stroke:none;fill-rule:evenodd;fill:rgb(100%,91.764706%,71.764706%);fill-opacity:1;" d="M 32.492188 149.792969 L 32.492188 52.109375 L 32.78125 52.109375 L 32.78125 149.792969 Z M 32.492188 149.792969 "/>
</g>
<g clip-path="url(#clip11)" clip-rule="nonzero">
<path style=" stroke:none;fill-rule:evenodd;fill:rgb(100%,92.54902%,72.54902%);fill-opacity:1;" d="M 32.6875 149.792969 L 32.6875 52.109375 L 32.976563 52.109375 L 32.976563 149.792969 Z M 32.6875 149.792969 "/>
</g>
<g clip-path="url(#clip12)" clip-rule="nonzero">
<path style=" stroke:none;fill-rule:evenodd;fill:rgb(100%,93.333333%,73.333333%);fill-opacity:1;" d="M 32.976563 149.792969 L 32.976563 52.109375 L 33.265625 52.109375 L 33.265625 149.792969 Z M 32.976563 149.792969 "/>
</g>
<g clip-path="url(#clip13)" clip-rule="nonzero">
<path style=" stroke:none;fill-rule:evenodd;fill:rgb(100%,94.117647%,74.117647%);fill-opacity:1;" d="M 33.265625 149.792969 L 33.265625 52.109375 L 33.558594 52.109375 L 33.558594 149.792969 Z M 33.265625 149.792969 "/>
<path style=" stroke:none;fill-rule:evenodd;fill:rgb(100%,94.901961%,74.901961%);fill-opacity:1;" d="M 33.558594 149.792969 L 33.558594 52.109375 L 33.847656 52.109375 L 33.847656 149.792969 Z M 33.558594 149.792969 "/>
</g>
<g clip-path="url(#clip14)" clip-rule="nonzero">
<path style=" stroke:none;fill-rule:evenodd;fill:rgb(100%,95.686275%,75.686275%);fill-opacity:1;" d="M 33.847656 149.792969 L 33.847656 52.109375 L 34.140625 52.109375 L 34.140625 149.792969 Z M 33.847656 149.792969 "/>
</g>
<g clip-path="url(#clip15)" clip-rule="nonzero">
<path style=" stroke:none;fill-rule:evenodd;fill:rgb(100%,96.470588%,76.470588%);fill-opacity:1;" d="M 34.140625 149.792969 L 34.140625 52.109375 L 34.429688 52.109375 L 34.429688 149.792969 Z M 34.140625 149.792969 "/>
<path style=" stroke:none;fill-rule:evenodd;fill:rgb(100%,97.254902%,77.254902%);fill-opacity:1;" d="M 34.429688 149.792969 L 34.429688 52.109375 L 34.71875 52.109375 L 34.71875 149.792969 Z M 34.429688 149.792969 "/>
</g>
<g clip-path="url(#clip16)" clip-rule="nonzero">
<path style=" stroke:none;fill-rule:evenodd;fill:rgb(100%,98.039216%,78.039216%);fill-opacity:1;" d="M 34.71875 149.792969 L 34.71875 52.109375 L 35.011719 52.109375 L 35.011719 149.792969 Z M 34.71875 149.792969 "/>
</g>
<g clip-path="url(#clip17)" clip-rule="nonzero">
<path style=" stroke:none;fill-rule:evenodd;fill:rgb(100%,98.823529%,78.823529%);fill-opacity:1;" d="M 34.914063 149.792969 L 34.914063 52.109375 L 35.203125 52.109375 L 35.203125 149.792969 Z M 34.914063 149.792969 "/>
</g>
<g clip-path="url(#clip18)" clip-rule="nonzero">
<path style=" stroke:none;fill-rule:evenodd;fill:rgb(100%,99.215686%,79.215686%);fill-opacity:1;" d="M 35.203125 149.792969 L 35.203125 52.109375 L 35.496094 52.109375 L 35.496094 149.792969 Z M 35.203125 149.792969 "/>
<path style=" stroke:none;fill-rule:evenodd;fill:rgb(100%,98.431373%,78.431373%);fill-opacity:1;" d="M 35.496094 149.792969 L 35.496094 52.109375 L 35.785156 52.109375 L 35.785156 149.792969 Z M 35.496094 149.792969 "/>
</g>
<g clip-path="url(#clip19)" clip-rule="nonzero">
<path style=" stroke:none;fill-rule:evenodd;fill:rgb(100%,97.647059%,77.647059%);fill-opacity:1;" d="M 35.785156 149.792969 L 35.785156 52.109375 L 36.078125 52.109375 L 36.078125 149.792969 Z M 35.785156 149.792969 "/>
</g>
<g clip-path="url(#clip20)" clip-rule="nonzero">
<path style=" stroke:none;fill-rule:evenodd;fill:rgb(100%,96.862745%,76.862745%);fill-opacity:1;" d="M 36.078125 149.792969 L 36.078125 52.109375 L 36.371094 52.109375 L 36.371094 149.792969 Z M 36.078125 149.792969 "/>
<path style=" stroke:none;fill-rule:evenodd;fill:rgb(100%,96.078431%,76.078431%);fill-opacity:1;" d="M 36.371094 149.792969 L 36.371094 52.109375 L 36.65625 52.109375 L 36.65625 149.792969 Z M 36.371094 149.792969 "/>
</g>
<g clip-path="url(#clip21)" clip-rule="nonzero">
<path style=" stroke:none;fill-rule:evenodd;fill:rgb(100%,95.294118%,75.294118%);fill-opacity:1;" d="M 36.65625 149.792969 L 36.65625 52.109375 L 36.949219 52.109375 L 36.949219 149.792969 Z M 36.65625 149.792969 "/>
</g>
<g clip-path="url(#clip22)" clip-rule="nonzero">
<path style=" stroke:none;fill-rule:evenodd;fill:rgb(100%,94.509804%,74.509804%);fill-opacity:1;" d="M 36.855469 149.792969 L 36.855469 52.109375 L 37.238281 52.109375 L 37.238281 149.792969 Z M 36.855469 149.792969 "/>
</g>
<g clip-path="url(#clip23)" clip-rule="nonzero">
<path style=" stroke:none;fill-rule:evenodd;fill:rgb(100%,93.72549%,73.72549%);fill-opacity:1;" d="M 37.140625 149.792969 L 37.140625 52.109375 L 37.433594 52.109375 L 37.433594 149.792969 Z M 37.140625 149.792969 "/>
<path style=" stroke:none;fill-rule:evenodd;fill:rgb(100%,92.941176%,72.941176%);fill-opacity:1;" d="M 37.433594 149.792969 L 37.433594 52.109375 L 37.722656 52.109375 L 37.722656 149.792969 Z M 37.433594 149.792969 "/>
</g>
<g clip-path="url(#clip24)" clip-rule="nonzero">
<path style=" stroke:none;fill-rule:evenodd;fill:rgb(100%,92.156863%,72.156863%);fill-opacity:1;" d="M 37.722656 149.792969 L 37.722656 52.109375 L 38.015625 52.109375 L 38.015625 149.792969 Z M 37.722656 149.792969 "/>
</g>
<g clip-path="url(#clip25)" clip-rule="nonzero">
<path style=" stroke:none;fill-rule:evenodd;fill:rgb(100%,91.372549%,71.372549%);fill-opacity:1;" d="M 38.015625 149.792969 L 38.015625 52.109375 L 38.308594 52.109375 L 38.308594 149.792969 Z M 38.015625 149.792969 "/>
<path style=" stroke:none;fill-rule:evenodd;fill:rgb(100%,90.588235%,70.588235%);fill-opacity:1;" d="M 38.308594 149.792969 L 38.308594 52.109375 L 38.59375 52.109375 L 38.59375 149.792969 Z M 38.308594 149.792969 "/>
</g>
<g clip-path="url(#clip26)" clip-rule="nonzero">
<path style=" stroke:none;fill-rule:evenodd;fill:rgb(100%,89.803922%,69.803922%);fill-opacity:1;" d="M 38.5 149.792969 L 38.5 52.109375 L 38.886719 52.109375 L 38.886719 149.792969 Z M 38.5 149.792969 "/>
</g>
<g clip-path="url(#clip27)" clip-rule="nonzero">
<path style=" stroke:none;fill-rule:evenodd;fill:rgb(100%,89.019608%,69.019608%);fill-opacity:1;" d="M 38.792969 149.792969 L 38.792969 52.109375 L 39.078125 52.109375 L 39.078125 149.792969 Z M 38.792969 149.792969 "/>
</g>
<g clip-path="url(#clip28)" clip-rule="nonzero">
<path style=" stroke:none;fill-rule:evenodd;fill:rgb(100%,88.235294%,68.235294%);fill-opacity:1;" d="M 39.078125 149.792969 L 39.078125 52.109375 L 39.46875 52.109375 L 39.46875 149.792969 Z M 39.078125 149.792969 "/>
<path style=" stroke:none;fill-rule:evenodd;fill:rgb(100%,87.45098%,67.45098%);fill-opacity:1;" d="M 39.371094 149.792969 L 39.371094 52.109375 L 39.660156 52.109375 L 39.660156 149.792969 Z M 39.371094 149.792969 "/>
</g>
<g clip-path="url(#clip29)" clip-rule="nonzero">
<path style=" stroke:none;fill-rule:evenodd;fill:rgb(100%,86.666667%,66.666667%);fill-opacity:1;" d="M 39.660156 149.792969 L 39.660156 52.109375 L 39.953125 52.109375 L 39.953125 149.792969 Z M 39.660156 149.792969 "/>
</g>
<g clip-path="url(#clip30)" clip-rule="nonzero">
<path style=" stroke:none;fill-rule:evenodd;fill:rgb(100%,85.882353%,65.882353%);fill-opacity:1;" d="M 39.953125 149.792969 L 39.953125 52.109375 L 40.246094 52.109375 L 40.246094 149.792969 Z M 39.953125 149.792969 "/>
</g>
<g clip-path="url(#clip31)" clip-rule="nonzero">
<path style=" stroke:none;fill-rule:evenodd;fill:rgb(100%,85.098039%,65.098039%);fill-opacity:1;" d="M 40.246094 149.792969 L 40.246094 52.109375 L 40.53125 52.109375 L 40.53125 149.792969 Z M 40.246094 149.792969 "/>
</g>
<g clip-path="url(#clip32)" clip-rule="nonzero">
<path style=" stroke:none;fill-rule:evenodd;fill:rgb(100%,84.313725%,64.313725%);fill-opacity:1;" d="M 40.53125 149.792969 L 40.53125 52.109375 L 40.824219 52.109375 L 40.824219 149.792969 Z M 40.53125 149.792969 "/>
</g>
<g clip-path="url(#clip33)" clip-rule="nonzero">
<path style=" stroke:none;fill-rule:evenodd;fill:rgb(100%,83.529412%,63.529412%);fill-opacity:1;" d="M 40.730469 149.792969 L 40.730469 52.109375 L 41.113281 52.109375 L 41.113281 149.792969 Z M 40.730469 149.792969 "/>
</g>
<g clip-path="url(#clip34)" clip-rule="nonzero">
<path style=" stroke:none;fill-rule:evenodd;fill:rgb(100%,82.745098%,62.745098%);fill-opacity:1;" d="M 41.015625 149.792969 L 41.015625 52.109375 L 41.308594 52.109375 L 41.308594 149.792969 Z M 41.015625 149.792969 "/>
<path style=" stroke:none;fill-rule:evenodd;fill:rgb(100%,81.960784%,61.960784%);fill-opacity:1;" d="M 41.308594 149.792969 L 41.308594 52.109375 L 41.597656 52.109375 L 41.597656 149.792969 Z M 41.308594 149.792969 "/>
</g>
<g clip-path="url(#clip35)" clip-rule="nonzero">
<path style=" stroke:none;fill-rule:evenodd;fill:rgb(100%,81.176471%,61.176471%);fill-opacity:1;" d="M 41.597656 149.792969 L 41.597656 52.109375 L 41.890625 52.109375 L 41.890625 149.792969 Z M 41.597656 149.792969 "/>
</g>
<g clip-path="url(#clip36)" clip-rule="nonzero">
<path style=" stroke:none;fill-rule:evenodd;fill:rgb(100%,80%,60%);fill-opacity:1;" d="M 41.890625 149.792969 L 41.890625 52.109375 L 44.796875 52.109375 L 44.796875 149.792969 Z M 41.890625 149.792969 "/>
</g>
<path style="fill:none;stroke-width:0.12;stroke-linecap:butt;stroke-linejoin:round;stroke:rgb(50.196078%,50.196078%,50.196078%);stroke-opacity:1;stroke-miterlimit:10;" d="M 55.301272 683.302557 L 45.398948 683.302557 L 45.398948 773.999544 L 65.199565 773.999544 L 65.199565 683.302557 Z M 55.301272 683.302557 " transform="matrix(0.968838,0,0,-1.075826,-18.46861,884.798561)"/>
<g clip-path="url(#clip37)" clip-rule="nonzero">
<path style=" stroke:none;fill-rule:evenodd;fill:rgb(100%,80%,60%);fill-opacity:1;" d="M 58.359375 149.792969 L 58.359375 52.109375 L 61.265625 52.109375 L 61.265625 149.792969 Z M 58.359375 149.792969 "/>
</g>
<g clip-path="url(#clip38)" clip-rule="nonzero">
<path style=" stroke:none;fill-rule:evenodd;fill:rgb(100%,80%,60%);fill-opacity:1;" d="M 61.265625 149.792969 L 61.265625 52.109375 L 61.558594 52.109375 L 61.558594 149.792969 Z M 61.265625 149.792969 "/>
<path style=" stroke:none;fill-rule:evenodd;fill:rgb(100%,80.784314%,60.784314%);fill-opacity:1;" d="M 61.558594 149.792969 L 61.558594 52.109375 L 61.847656 52.109375 L 61.847656 149.792969 Z M 61.558594 149.792969 "/>
</g>
<g clip-path="url(#clip39)" clip-rule="nonzero">
<path style=" stroke:none;fill-rule:evenodd;fill:rgb(100%,81.568627%,61.568627%);fill-opacity:1;" d="M 61.847656 149.792969 L 61.847656 52.109375 L 62.136719 52.109375 L 62.136719 149.792969 Z M 61.847656 149.792969 "/>
</g>
<g clip-path="url(#clip40)" clip-rule="nonzero">
<path style=" stroke:none;fill-rule:evenodd;fill:rgb(100%,82.352941%,62.352941%);fill-opacity:1;" d="M 62.042969 149.792969 L 62.042969 52.109375 L 62.429688 52.109375 L 62.429688 149.792969 Z M 62.042969 149.792969 "/>
<path style=" stroke:none;fill-rule:evenodd;fill:rgb(100%,83.137255%,63.137255%);fill-opacity:1;" d="M 62.332031 149.792969 L 62.332031 52.109375 L 62.621094 52.109375 L 62.621094 149.792969 Z M 62.332031 149.792969 "/>
<path style=" stroke:none;fill-rule:evenodd;fill:rgb(100%,83.921569%,63.921569%);fill-opacity:1;" d="M 62.621094 149.792969 L 62.621094 52.109375 L 62.914063 52.109375 L 62.914063 149.792969 Z M 62.621094 149.792969 "/>
</g>
<g clip-path="url(#clip41)" clip-rule="nonzero">
<path style=" stroke:none;fill-rule:evenodd;fill:rgb(100%,84.705882%,64.705882%);fill-opacity:1;" d="M 62.914063 149.792969 L 62.914063 52.109375 L 63.207031 52.109375 L 63.207031 149.792969 Z M 62.914063 149.792969 "/>
</g>
<g clip-path="url(#clip42)" clip-rule="nonzero">
<path style=" stroke:none;fill-rule:evenodd;fill:rgb(100%,85.490196%,65.490196%);fill-opacity:1;" d="M 63.207031 149.792969 L 63.207031 52.109375 L 63.496094 52.109375 L 63.496094 149.792969 Z M 63.207031 149.792969 "/>
<path style=" stroke:none;fill-rule:evenodd;fill:rgb(100%,86.27451%,66.27451%);fill-opacity:1;" d="M 63.496094 149.792969 L 63.496094 52.109375 L 63.785156 52.109375 L 63.785156 149.792969 Z M 63.496094 149.792969 "/>
</g>
<g clip-path="url(#clip43)" clip-rule="nonzero">
<path style=" stroke:none;fill-rule:evenodd;fill:rgb(100%,87.058824%,67.058824%);fill-opacity:1;" d="M 63.691406 149.792969 L 63.691406 52.109375 L 64.074219 52.109375 L 64.074219 149.792969 Z M 63.691406 149.792969 "/>
</g>
<g clip-path="url(#clip44)" clip-rule="nonzero">
<path style=" stroke:none;fill-rule:evenodd;fill:rgb(100%,87.843137%,67.843137%);fill-opacity:1;" d="M 64.074219 149.792969 L 64.074219 52.109375 L 64.367188 52.109375 L 64.367188 149.792969 Z M 64.074219 149.792969 "/>
<path style=" stroke:none;fill-rule:evenodd;fill:rgb(100%,88.627451%,68.627451%);fill-opacity:1;" d="M 64.269531 149.792969 L 64.269531 52.109375 L 64.558594 52.109375 L 64.558594 149.792969 Z M 64.269531 149.792969 "/>
<path style=" stroke:none;fill-rule:evenodd;fill:rgb(100%,89.411765%,69.411765%);fill-opacity:1;" d="M 64.558594 149.792969 L 64.558594 52.109375 L 64.851563 52.109375 L 64.851563 149.792969 Z M 64.558594 149.792969 "/>
</g>
<g clip-path="url(#clip45)" clip-rule="nonzero">
<path style=" stroke:none;fill-rule:evenodd;fill:rgb(100%,90.196078%,70.196078%);fill-opacity:1;" d="M 64.851563 149.792969 L 64.851563 52.109375 L 65.144531 52.109375 L 65.144531 149.792969 Z M 64.851563 149.792969 "/>
</g>
<g clip-path="url(#clip46)" clip-rule="nonzero">
<path style=" stroke:none;fill-rule:evenodd;fill:rgb(100%,90.980392%,70.980392%);fill-opacity:1;" d="M 65.144531 149.792969 L 65.144531 52.109375 L 65.433594 52.109375 L 65.433594 149.792969 Z M 65.144531 149.792969 "/>
<path style=" stroke:none;fill-rule:evenodd;fill:rgb(100%,91.764706%,71.764706%);fill-opacity:1;" d="M 65.433594 149.792969 L 65.433594 52.109375 L 65.722656 52.109375 L 65.722656 149.792969 Z M 65.433594 149.792969 "/>
</g>
<g clip-path="url(#clip47)" clip-rule="nonzero">
<path style=" stroke:none;fill-rule:evenodd;fill:rgb(100%,92.54902%,72.54902%);fill-opacity:1;" d="M 65.722656 149.792969 L 65.722656 52.109375 L 66.011719 52.109375 L 66.011719 149.792969 Z M 65.722656 149.792969 "/>
</g>
<g clip-path="url(#clip48)" clip-rule="nonzero">
<path style=" stroke:none;fill-rule:evenodd;fill:rgb(100%,93.333333%,73.333333%);fill-opacity:1;" d="M 65.917969 149.792969 L 65.917969 52.109375 L 66.207031 52.109375 L 66.207031 149.792969 Z M 65.917969 149.792969 "/>
</g>
<g clip-path="url(#clip49)" clip-rule="nonzero">
<path style=" stroke:none;fill-rule:evenodd;fill:rgb(100%,94.117647%,74.117647%);fill-opacity:1;" d="M 66.207031 149.792969 L 66.207031 52.109375 L 66.496094 52.109375 L 66.496094 149.792969 Z M 66.207031 149.792969 "/>
<path style=" stroke:none;fill-rule:evenodd;fill:rgb(100%,94.901961%,74.901961%);fill-opacity:1;" d="M 66.496094 149.792969 L 66.496094 52.109375 L 66.789063 52.109375 L 66.789063 149.792969 Z M 66.496094 149.792969 "/>
</g>
<g clip-path="url(#clip50)" clip-rule="nonzero">
<path style=" stroke:none;fill-rule:evenodd;fill:rgb(100%,95.686275%,75.686275%);fill-opacity:1;" d="M 66.789063 149.792969 L 66.789063 52.109375 L 67.082031 52.109375 L 67.082031 149.792969 Z M 66.789063 149.792969 "/>
</g>
<g clip-path="url(#clip51)" clip-rule="nonzero">
<path style=" stroke:none;fill-rule:evenodd;fill:rgb(100%,96.470588%,76.470588%);fill-opacity:1;" d="M 67.082031 149.792969 L 67.082031 52.109375 L 67.371094 52.109375 L 67.371094 149.792969 Z M 67.082031 149.792969 "/>
<path style=" stroke:none;fill-rule:evenodd;fill:rgb(100%,97.254902%,77.254902%);fill-opacity:1;" d="M 67.371094 149.792969 L 67.371094 52.109375 L 67.660156 52.109375 L 67.660156 149.792969 Z M 67.371094 149.792969 "/>
</g>
<g clip-path="url(#clip52)" clip-rule="nonzero">
<path style=" stroke:none;fill-rule:evenodd;fill:rgb(100%,98.039216%,78.039216%);fill-opacity:1;" d="M 67.660156 149.792969 L 67.660156 52.109375 L 67.949219 52.109375 L 67.949219 149.792969 Z M 67.660156 149.792969 "/>
</g>
<g clip-path="url(#clip53)" clip-rule="nonzero">
<path style=" stroke:none;fill-rule:evenodd;fill:rgb(100%,98.823529%,78.823529%);fill-opacity:1;" d="M 67.855469 149.792969 L 67.855469 52.109375 L 68.242188 52.109375 L 68.242188 149.792969 Z M 67.855469 149.792969 "/>
</g>
<g clip-path="url(#clip54)" clip-rule="nonzero">
<path style=" stroke:none;fill-rule:evenodd;fill:rgb(100%,99.215686%,79.215686%);fill-opacity:1;" d="M 68.144531 149.792969 L 68.144531 52.109375 L 68.433594 52.109375 L 68.433594 149.792969 Z M 68.144531 149.792969 "/>
<path style=" stroke:none;fill-rule:evenodd;fill:rgb(100%,98.431373%,78.431373%);fill-opacity:1;" d="M 68.433594 149.792969 L 68.433594 52.109375 L 68.726563 52.109375 L 68.726563 149.792969 Z M 68.433594 149.792969 "/>
</g>
<g clip-path="url(#clip55)" clip-rule="nonzero">
<path style=" stroke:none;fill-rule:evenodd;fill:rgb(100%,97.647059%,77.647059%);fill-opacity:1;" d="M 68.726563 149.792969 L 68.726563 52.109375 L 69.019531 52.109375 L 69.019531 149.792969 Z M 68.726563 149.792969 "/>
</g>
<g clip-path="url(#clip56)" clip-rule="nonzero">
<path style=" stroke:none;fill-rule:evenodd;fill:rgb(100%,96.862745%,76.862745%);fill-opacity:1;" d="M 69.019531 149.792969 L 69.019531 52.109375 L 69.308594 52.109375 L 69.308594 149.792969 Z M 69.019531 149.792969 "/>
<path style=" stroke:none;fill-rule:evenodd;fill:rgb(100%,96.078431%,76.078431%);fill-opacity:1;" d="M 69.308594 149.792969 L 69.308594 52.109375 L 69.597656 52.109375 L 69.597656 149.792969 Z M 69.308594 149.792969 "/>
</g>
<g clip-path="url(#clip57)" clip-rule="nonzero">
<path style=" stroke:none;fill-rule:evenodd;fill:rgb(100%,95.294118%,75.294118%);fill-opacity:1;" d="M 69.597656 149.792969 L 69.597656 52.109375 L 69.890625 52.109375 L 69.890625 149.792969 Z M 69.597656 149.792969 "/>
</g>
<g clip-path="url(#clip58)" clip-rule="nonzero">
<path style=" stroke:none;fill-rule:evenodd;fill:rgb(100%,94.509804%,74.509804%);fill-opacity:1;" d="M 69.890625 149.792969 L 69.890625 52.109375 L 70.179688 52.109375 L 70.179688 149.792969 Z M 69.890625 149.792969 "/>
</g>
<g clip-path="url(#clip59)" clip-rule="nonzero">
<path style=" stroke:none;fill-rule:evenodd;fill:rgb(100%,93.72549%,73.72549%);fill-opacity:1;" d="M 70.082031 149.792969 L 70.082031 52.109375 L 70.472656 52.109375 L 70.472656 149.792969 Z M 70.082031 149.792969 "/>
<path style=" stroke:none;fill-rule:evenodd;fill:rgb(100%,92.941176%,72.941176%);fill-opacity:1;" d="M 70.375 149.792969 L 70.375 52.109375 L 70.664063 52.109375 L 70.664063 149.792969 Z M 70.375 149.792969 "/>
</g>
<g clip-path="url(#clip60)" clip-rule="nonzero">
<path style=" stroke:none;fill-rule:evenodd;fill:rgb(100%,92.156863%,72.156863%);fill-opacity:1;" d="M 70.664063 149.792969 L 70.664063 52.109375 L 70.957031 52.109375 L 70.957031 149.792969 Z M 70.664063 149.792969 "/>
</g>
<g clip-path="url(#clip61)" clip-rule="nonzero">
<path style=" stroke:none;fill-rule:evenodd;fill:rgb(100%,91.372549%,71.372549%);fill-opacity:1;" d="M 70.957031 149.792969 L 70.957031 52.109375 L 71.246094 52.109375 L 71.246094 149.792969 Z M 70.957031 149.792969 "/>
</g>
<g clip-path="url(#clip62)" clip-rule="nonzero">
<path style=" stroke:none;fill-rule:evenodd;fill:rgb(100%,90.588235%,70.588235%);fill-opacity:1;" d="M 71.246094 149.792969 L 71.246094 52.109375 L 71.535156 52.109375 L 71.535156 149.792969 Z M 71.246094 149.792969 "/>
</g>
<g clip-path="url(#clip63)" clip-rule="nonzero">
<path style=" stroke:none;fill-rule:evenodd;fill:rgb(100%,89.803922%,69.803922%);fill-opacity:1;" d="M 71.535156 149.792969 L 71.535156 52.109375 L 71.828125 52.109375 L 71.828125 149.792969 Z M 71.535156 149.792969 "/>
</g>
<g clip-path="url(#clip64)" clip-rule="nonzero">
<path style=" stroke:none;fill-rule:evenodd;fill:rgb(100%,89.019608%,69.019608%);fill-opacity:1;" d="M 71.730469 149.792969 L 71.730469 52.109375 L 72.117188 52.109375 L 72.117188 149.792969 Z M 71.730469 149.792969 "/>
</g>
<g clip-path="url(#clip65)" clip-rule="nonzero">
<path style=" stroke:none;fill-rule:evenodd;fill:rgb(100%,88.235294%,68.235294%);fill-opacity:1;" d="M 72.019531 149.792969 L 72.019531 52.109375 L 72.410156 52.109375 L 72.410156 149.792969 Z M 72.019531 149.792969 "/>
</g>
<g clip-path="url(#clip66)" clip-rule="nonzero">
<path style=" stroke:none;fill-rule:evenodd;fill:rgb(100%,87.45098%,67.45098%);fill-opacity:1;" d="M 72.3125 149.792969 L 72.3125 52.109375 L 72.699219 52.109375 L 72.699219 149.792969 Z M 72.3125 149.792969 "/>
</g>
<g clip-path="url(#clip67)" clip-rule="nonzero">
<path style=" stroke:none;fill-rule:evenodd;fill:rgb(100%,86.666667%,66.666667%);fill-opacity:1;" d="M 72.601563 149.792969 L 72.601563 52.109375 L 72.894531 52.109375 L 72.894531 149.792969 Z M 72.601563 149.792969 "/>
</g>
<g clip-path="url(#clip68)" clip-rule="nonzero">
<path style=" stroke:none;fill-rule:evenodd;fill:rgb(100%,85.882353%,65.882353%);fill-opacity:1;" d="M 72.894531 149.792969 L 72.894531 52.109375 L 73.183594 52.109375 L 73.183594 149.792969 Z M 72.894531 149.792969 "/>
</g>
<g clip-path="url(#clip69)" clip-rule="nonzero">
<path style=" stroke:none;fill-rule:evenodd;fill:rgb(100%,85.098039%,65.098039%);fill-opacity:1;" d="M 73.183594 149.792969 L 73.183594 52.109375 L 73.472656 52.109375 L 73.472656 149.792969 Z M 73.183594 149.792969 "/>
</g>
<g clip-path="url(#clip70)" clip-rule="nonzero">
<path style=" stroke:none;fill-rule:evenodd;fill:rgb(100%,84.313725%,64.313725%);fill-opacity:1;" d="M 73.472656 149.792969 L 73.472656 52.109375 L 73.765625 52.109375 L 73.765625 149.792969 Z M 73.472656 149.792969 "/>
</g>
<g clip-path="url(#clip71)" clip-rule="nonzero">
<path style=" stroke:none;fill-rule:evenodd;fill:rgb(100%,83.529412%,63.529412%);fill-opacity:1;" d="M 73.765625 149.792969 L 73.765625 52.109375 L 74.054688 52.109375 L 74.054688 149.792969 Z M 73.765625 149.792969 "/>
<path style=" stroke:none;fill-rule:evenodd;fill:rgb(100%,82.745098%,62.745098%);fill-opacity:1;" d="M 73.957031 149.792969 L 73.957031 52.109375 L 74.347656 52.109375 L 74.347656 149.792969 Z M 73.957031 149.792969 "/>
</g>
<g clip-path="url(#clip72)" clip-rule="nonzero">
<path style=" stroke:none;fill-rule:evenodd;fill:rgb(100%,81.960784%,61.960784%);fill-opacity:1;" d="M 74.25 149.792969 L 74.25 52.109375 L 74.539063 52.109375 L 74.539063 149.792969 Z M 74.25 149.792969 "/>
</g>
<g clip-path="url(#clip73)" clip-rule="nonzero">
<path style=" stroke:none;fill-rule:evenodd;fill:rgb(100%,81.176471%,61.176471%);fill-opacity:1;" d="M 74.539063 149.792969 L 74.539063 52.109375 L 74.832031 52.109375 L 74.832031 149.792969 Z M 74.539063 149.792969 "/>
</g>
<g clip-path="url(#clip74)" clip-rule="nonzero">
<path style=" stroke:none;fill-rule:evenodd;fill:rgb(100%,80%,60%);fill-opacity:1;" d="M 74.832031 149.792969 L 74.832031 52.109375 L 77.738281 52.109375 L 77.738281 149.792969 Z M 74.832031 149.792969 "/>
</g>
<path style="fill:none;stroke-width:0.12;stroke-linecap:butt;stroke-linejoin:round;stroke:rgb(50.196078%,50.196078%,50.196078%);stroke-opacity:1;stroke-miterlimit:10;" d="M 89.302209 683.302557 L 79.399885 683.302557 L 79.399885 773.999544 L 99.200502 773.999544 L 99.200502 683.302557 Z M 89.302209 683.302557 " transform="matrix(0.968838,0,0,-1.075826,-18.46861,884.798561)"/>
<g clip-path="url(#clip75)" clip-rule="nonzero">
<path style=" stroke:none;fill-rule:evenodd;fill:rgb(100%,80%,60%);fill-opacity:1;" d="M 91.300781 149.792969 L 91.300781 52.109375 L 94.207031 52.109375 L 94.207031 149.792969 Z M 91.300781 149.792969 "/>
</g>
<g clip-path="url(#clip76)" clip-rule="nonzero">
<path style=" stroke:none;fill-rule:evenodd;fill:rgb(100%,80%,60%);fill-opacity:1;" d="M 94.207031 149.792969 L 94.207031 52.109375 L 94.5 52.109375 L 94.5 149.792969 Z M 94.207031 149.792969 "/>
<path style=" stroke:none;fill-rule:evenodd;fill:rgb(100%,80.784314%,60.784314%);fill-opacity:1;" d="M 94.5 149.792969 L 94.5 52.109375 L 94.785156 52.109375 L 94.785156 149.792969 Z M 94.5 149.792969 "/>
</g>
<g clip-path="url(#clip77)" clip-rule="nonzero">
<path style=" stroke:none;fill-rule:evenodd;fill:rgb(100%,81.568627%,61.568627%);fill-opacity:1;" d="M 94.785156 149.792969 L 94.785156 52.109375 L 95.078125 52.109375 L 95.078125 149.792969 Z M 94.785156 149.792969 "/>
</g>
<g clip-path="url(#clip78)" clip-rule="nonzero">
<path style=" stroke:none;fill-rule:evenodd;fill:rgb(100%,82.352941%,62.352941%);fill-opacity:1;" d="M 95.078125 149.792969 L 95.078125 52.109375 L 95.371094 52.109375 L 95.371094 149.792969 Z M 95.078125 149.792969 "/>
<path style=" stroke:none;fill-rule:evenodd;fill:rgb(100%,83.137255%,63.137255%);fill-opacity:1;" d="M 95.269531 149.792969 L 95.269531 52.109375 L 95.660156 52.109375 L 95.660156 149.792969 Z M 95.269531 149.792969 "/>
<path style=" stroke:none;fill-rule:evenodd;fill:rgb(100%,83.921569%,63.921569%);fill-opacity:1;" d="M 95.5625 149.792969 L 95.5625 52.109375 L 95.855469 52.109375 L 95.855469 149.792969 Z M 95.5625 149.792969 "/>
</g>
<g clip-path="url(#clip79)" clip-rule="nonzero">
<path style=" stroke:none;fill-rule:evenodd;fill:rgb(100%,84.705882%,64.705882%);fill-opacity:1;" d="M 95.855469 149.792969 L 95.855469 52.109375 L 96.144531 52.109375 L 96.144531 149.792969 Z M 95.855469 149.792969 "/>
</g>
<g clip-path="url(#clip80)" clip-rule="nonzero">
<path style=" stroke:none;fill-rule:evenodd;fill:rgb(100%,85.490196%,65.490196%);fill-opacity:1;" d="M 96.144531 149.792969 L 96.144531 52.109375 L 96.4375 52.109375 L 96.4375 149.792969 Z M 96.144531 149.792969 "/>
<path style=" stroke:none;fill-rule:evenodd;fill:rgb(100%,86.27451%,66.27451%);fill-opacity:1;" d="M 96.4375 149.792969 L 96.4375 52.109375 L 96.726563 52.109375 L 96.726563 149.792969 Z M 96.4375 149.792969 "/>
</g>
<g clip-path="url(#clip81)" clip-rule="nonzero">
<path style=" stroke:none;fill-rule:evenodd;fill:rgb(100%,87.058824%,67.058824%);fill-opacity:1;" d="M 96.726563 149.792969 L 96.726563 52.109375 L 97.015625 52.109375 L 97.015625 149.792969 Z M 96.726563 149.792969 "/>
</g>
<g clip-path="url(#clip82)" clip-rule="nonzero">
<path style=" stroke:none;fill-rule:evenodd;fill:rgb(100%,87.843137%,67.843137%);fill-opacity:1;" d="M 97.015625 149.792969 L 97.015625 52.109375 L 97.308594 52.109375 L 97.308594 149.792969 Z M 97.015625 149.792969 "/>
<path style=" stroke:none;fill-rule:evenodd;fill:rgb(100%,88.627451%,68.627451%);fill-opacity:1;" d="M 97.308594 149.792969 L 97.308594 52.109375 L 97.597656 52.109375 L 97.597656 149.792969 Z M 97.308594 149.792969 "/>
<path style=" stroke:none;fill-rule:evenodd;fill:rgb(100%,89.411765%,69.411765%);fill-opacity:1;" d="M 97.5 149.792969 L 97.5 52.109375 L 97.792969 52.109375 L 97.792969 149.792969 Z M 97.5 149.792969 "/>
</g>
<g clip-path="url(#clip83)" clip-rule="nonzero">
<path style=" stroke:none;fill-rule:evenodd;fill:rgb(100%,90.196078%,70.196078%);fill-opacity:1;" d="M 97.792969 149.792969 L 97.792969 52.109375 L 98.082031 52.109375 L 98.082031 149.792969 Z M 97.792969 149.792969 "/>
</g>
<g clip-path="url(#clip84)" clip-rule="nonzero">
<path style=" stroke:none;fill-rule:evenodd;fill:rgb(100%,90.980392%,70.980392%);fill-opacity:1;" d="M 98.082031 149.792969 L 98.082031 52.109375 L 98.375 52.109375 L 98.375 149.792969 Z M 98.082031 149.792969 "/>
<path style=" stroke:none;fill-rule:evenodd;fill:rgb(100%,91.764706%,71.764706%);fill-opacity:1;" d="M 98.375 149.792969 L 98.375 52.109375 L 98.664063 52.109375 L 98.664063 149.792969 Z M 98.375 149.792969 "/>
</g>
<g clip-path="url(#clip85)" clip-rule="nonzero">
<path style=" stroke:none;fill-rule:evenodd;fill:rgb(100%,92.54902%,72.54902%);fill-opacity:1;" d="M 98.664063 149.792969 L 98.664063 52.109375 L 98.953125 52.109375 L 98.953125 149.792969 Z M 98.664063 149.792969 "/>
</g>
<g clip-path="url(#clip86)" clip-rule="nonzero">
<path style=" stroke:none;fill-rule:evenodd;fill:rgb(100%,93.333333%,73.333333%);fill-opacity:1;" d="M 98.953125 149.792969 L 98.953125 52.109375 L 99.246094 52.109375 L 99.246094 149.792969 Z M 98.953125 149.792969 "/>
</g>
<g clip-path="url(#clip87)" clip-rule="nonzero">
<path style=" stroke:none;fill-rule:evenodd;fill:rgb(100%,94.117647%,74.117647%);fill-opacity:1;" d="M 99.148438 149.792969 L 99.148438 52.109375 L 99.4375 52.109375 L 99.4375 149.792969 Z M 99.148438 149.792969 "/>
</g>
<g clip-path="url(#clip88)" clip-rule="nonzero">
<path style=" stroke:none;fill-rule:evenodd;fill:rgb(100%,94.901961%,74.901961%);fill-opacity:1;" d="M 99.4375 149.792969 L 99.4375 52.109375 L 99.828125 52.109375 L 99.828125 149.792969 Z M 99.4375 149.792969 "/>
</g>
<g clip-path="url(#clip89)" clip-rule="nonzero">
<path style=" stroke:none;fill-rule:evenodd;fill:rgb(100%,95.686275%,75.686275%);fill-opacity:1;" d="M 99.730469 149.792969 L 99.730469 52.109375 L 100.019531 52.109375 L 100.019531 149.792969 Z M 99.730469 149.792969 "/>
</g>
<g clip-path="url(#clip90)" clip-rule="nonzero">
<path style=" stroke:none;fill-rule:evenodd;fill:rgb(100%,96.470588%,76.470588%);fill-opacity:1;" d="M 100.019531 149.792969 L 100.019531 52.109375 L 100.3125 52.109375 L 100.3125 149.792969 Z M 100.019531 149.792969 "/>
<path style=" stroke:none;fill-rule:evenodd;fill:rgb(100%,97.254902%,77.254902%);fill-opacity:1;" d="M 100.3125 149.792969 L 100.3125 52.109375 L 100.601563 52.109375 L 100.601563 149.792969 Z M 100.3125 149.792969 "/>
</g>
<g clip-path="url(#clip91)" clip-rule="nonzero">
<path style=" stroke:none;fill-rule:evenodd;fill:rgb(100%,98.039216%,78.039216%);fill-opacity:1;" d="M 100.601563 149.792969 L 100.601563 52.109375 L 100.890625 52.109375 L 100.890625 149.792969 Z M 100.601563 149.792969 "/>
</g>
<g clip-path="url(#clip92)" clip-rule="nonzero">
<path style=" stroke:none;fill-rule:evenodd;fill:rgb(100%,98.823529%,78.823529%);fill-opacity:1;" d="M 100.890625 149.792969 L 100.890625 52.109375 L 101.183594 52.109375 L 101.183594 149.792969 Z M 100.890625 149.792969 "/>
</g>
<g clip-path="url(#clip93)" clip-rule="nonzero">
<path style=" stroke:none;fill-rule:evenodd;fill:rgb(100%,99.215686%,79.215686%);fill-opacity:1;" d="M 101.085938 149.792969 L 101.085938 52.109375 L 101.472656 52.109375 L 101.472656 149.792969 Z M 101.085938 149.792969 "/>
<path style=" stroke:none;fill-rule:evenodd;fill:rgb(100%,98.431373%,78.431373%);fill-opacity:1;" d="M 101.375 149.792969 L 101.375 52.109375 L 101.667969 52.109375 L 101.667969 149.792969 Z M 101.375 149.792969 "/>
</g>
<g clip-path="url(#clip94)" clip-rule="nonzero">
<path style=" stroke:none;fill-rule:evenodd;fill:rgb(100%,97.647059%,77.647059%);fill-opacity:1;" d="M 101.667969 149.792969 L 101.667969 52.109375 L 101.957031 52.109375 L 101.957031 149.792969 Z M 101.667969 149.792969 "/>
</g>
<g clip-path="url(#clip95)" clip-rule="nonzero">
<path style=" stroke:none;fill-rule:evenodd;fill:rgb(100%,96.862745%,76.862745%);fill-opacity:1;" d="M 101.957031 149.792969 L 101.957031 52.109375 L 102.25 52.109375 L 102.25 149.792969 Z M 101.957031 149.792969 "/>
</g>
<g clip-path="url(#clip96)" clip-rule="nonzero">
<path style=" stroke:none;fill-rule:evenodd;fill:rgb(100%,96.078431%,76.078431%);fill-opacity:1;" d="M 102.25 149.792969 L 102.25 52.109375 L 102.539063 52.109375 L 102.539063 149.792969 Z M 102.25 149.792969 "/>
</g>
<g clip-path="url(#clip97)" clip-rule="nonzero">
<path style=" stroke:none;fill-rule:evenodd;fill:rgb(100%,95.294118%,75.294118%);fill-opacity:1;" d="M 102.539063 149.792969 L 102.539063 52.109375 L 102.828125 52.109375 L 102.828125 149.792969 Z M 102.539063 149.792969 "/>
</g>
<g clip-path="url(#clip98)" clip-rule="nonzero">
<path style=" stroke:none;fill-rule:evenodd;fill:rgb(100%,94.509804%,74.509804%);fill-opacity:1;" d="M 102.828125 149.792969 L 102.828125 52.109375 L 103.121094 52.109375 L 103.121094 149.792969 Z M 102.828125 149.792969 "/>
</g>
<g clip-path="url(#clip99)" clip-rule="nonzero">
<path style=" stroke:none;fill-rule:evenodd;fill:rgb(100%,93.72549%,73.72549%);fill-opacity:1;" d="M 103.121094 149.792969 L 103.121094 52.109375 L 103.410156 52.109375 L 103.410156 149.792969 Z M 103.121094 149.792969 "/>
</g>
<g clip-path="url(#clip100)" clip-rule="nonzero">
<path style=" stroke:none;fill-rule:evenodd;fill:rgb(100%,92.941176%,72.941176%);fill-opacity:1;" d="M 103.3125 149.792969 L 103.3125 52.109375 L 103.703125 52.109375 L 103.703125 149.792969 Z M 103.3125 149.792969 "/>
</g>
<g clip-path="url(#clip101)" clip-rule="nonzero">
<path style=" stroke:none;fill-rule:evenodd;fill:rgb(100%,92.156863%,72.156863%);fill-opacity:1;" d="M 103.605469 149.792969 L 103.605469 52.109375 L 103.894531 52.109375 L 103.894531 149.792969 Z M 103.605469 149.792969 "/>
</g>
<g clip-path="url(#clip102)" clip-rule="nonzero">
<path style=" stroke:none;fill-rule:evenodd;fill:rgb(100%,91.372549%,71.372549%);fill-opacity:1;" d="M 103.894531 149.792969 L 103.894531 52.109375 L 104.1875 52.109375 L 104.1875 149.792969 Z M 103.894531 149.792969 "/>
</g>
<g clip-path="url(#clip103)" clip-rule="nonzero">
<path style=" stroke:none;fill-rule:evenodd;fill:rgb(100%,90.588235%,70.588235%);fill-opacity:1;" d="M 104.1875 149.792969 L 104.1875 52.109375 L 104.476563 52.109375 L 104.476563 149.792969 Z M 104.1875 149.792969 "/>
</g>
<g clip-path="url(#clip104)" clip-rule="nonzero">
<path style=" stroke:none;fill-rule:evenodd;fill:rgb(100%,89.803922%,69.803922%);fill-opacity:1;" d="M 104.476563 149.792969 L 104.476563 52.109375 L 104.765625 52.109375 L 104.765625 149.792969 Z M 104.476563 149.792969 "/>
</g>
<g clip-path="url(#clip105)" clip-rule="nonzero">
<path style=" stroke:none;fill-rule:evenodd;fill:rgb(100%,89.019608%,69.019608%);fill-opacity:1;" d="M 104.765625 149.792969 L 104.765625 52.109375 L 105.058594 52.109375 L 105.058594 149.792969 Z M 104.765625 149.792969 "/>
<path style=" stroke:none;fill-rule:evenodd;fill:rgb(100%,88.235294%,68.235294%);fill-opacity:1;" d="M 104.960938 149.792969 L 104.960938 52.109375 L 105.351563 52.109375 L 105.351563 149.792969 Z M 104.960938 149.792969 "/>
</g>
<g clip-path="url(#clip106)" clip-rule="nonzero">
<path style=" stroke:none;fill-rule:evenodd;fill:rgb(100%,87.45098%,67.45098%);fill-opacity:1;" d="M 105.351563 149.792969 L 105.351563 52.109375 L 105.640625 52.109375 L 105.640625 149.792969 Z M 105.351563 149.792969 "/>
</g>
<g clip-path="url(#clip107)" clip-rule="nonzero">
<path style=" stroke:none;fill-rule:evenodd;fill:rgb(100%,86.666667%,66.666667%);fill-opacity:1;" d="M 105.542969 149.792969 L 105.542969 52.109375 L 105.929688 52.109375 L 105.929688 149.792969 Z M 105.542969 149.792969 "/>
</g>
<g clip-path="url(#clip108)" clip-rule="nonzero">
<path style=" stroke:none;fill-rule:evenodd;fill:rgb(100%,85.882353%,65.882353%);fill-opacity:1;" d="M 105.835938 149.792969 L 105.835938 52.109375 L 106.125 52.109375 L 106.125 149.792969 Z M 105.835938 149.792969 "/>
</g>
<g clip-path="url(#clip109)" clip-rule="nonzero">
<path style=" stroke:none;fill-rule:evenodd;fill:rgb(100%,85.098039%,65.098039%);fill-opacity:1;" d="M 106.125 149.792969 L 106.125 52.109375 L 106.414063 52.109375 L 106.414063 149.792969 Z M 106.125 149.792969 "/>
</g>
<g clip-path="url(#clip110)" clip-rule="nonzero">
<path style=" stroke:none;fill-rule:evenodd;fill:rgb(100%,84.313725%,64.313725%);fill-opacity:1;" d="M 106.414063 149.792969 L 106.414063 52.109375 L 106.703125 52.109375 L 106.703125 149.792969 Z M 106.414063 149.792969 "/>
</g>
<g clip-path="url(#clip111)" clip-rule="nonzero">
<path style=" stroke:none;fill-rule:evenodd;fill:rgb(100%,83.529412%,63.529412%);fill-opacity:1;" d="M 106.703125 149.792969 L 106.703125 52.109375 L 106.996094 52.109375 L 106.996094 149.792969 Z M 106.703125 149.792969 "/>
</g>
<g clip-path="url(#clip112)" clip-rule="nonzero">
<path style=" stroke:none;fill-rule:evenodd;fill:rgb(100%,82.745098%,62.745098%);fill-opacity:1;" d="M 106.996094 149.792969 L 106.996094 52.109375 L 107.289063 52.109375 L 107.289063 149.792969 Z M 106.996094 149.792969 "/>
</g>
<g clip-path="url(#clip113)" clip-rule="nonzero">
<path style=" stroke:none;fill-rule:evenodd;fill:rgb(100%,81.960784%,61.960784%);fill-opacity:1;" d="M 107.1875 149.792969 L 107.1875 52.109375 L 107.578125 52.109375 L 107.578125 149.792969 Z M 107.1875 149.792969 "/>
</g>
<g clip-path="url(#clip114)" clip-rule="nonzero">
<path style=" stroke:none;fill-rule:evenodd;fill:rgb(100%,81.176471%,61.176471%);fill-opacity:1;" d="M 107.480469 149.792969 L 107.480469 52.109375 L 107.867188 52.109375 L 107.867188 149.792969 Z M 107.480469 149.792969 "/>
</g>
<g clip-path="url(#clip115)" clip-rule="nonzero">
<path style=" stroke:none;fill-rule:evenodd;fill:rgb(100%,80%,60%);fill-opacity:1;" d="M 107.773438 149.792969 L 107.773438 52.109375 L 110.679688 52.109375 L 110.679688 149.792969 Z M 107.773438 149.792969 "/>
</g>
<path style="fill:none;stroke-width:0.12;stroke-linecap:butt;stroke-linejoin:round;stroke:rgb(50.196078%,50.196078%,50.196078%);stroke-opacity:1;stroke-miterlimit:10;" d="M 123.299115 683.302557 L 113.39679 683.302557 L 113.39679 773.999544 L 133.197407 773.999544 L 133.197407 683.302557 Z M 123.299115 683.302557 " transform="matrix(0.968838,0,0,-1.075826,-18.46861,884.798561)"/>
<g clip-path="url(#clip116)" clip-rule="nonzero">
<path style=" stroke:none;fill-rule:evenodd;fill:rgb(100%,80%,60%);fill-opacity:1;" d="M 124.242188 149.792969 L 124.242188 52.109375 L 127.148438 52.109375 L 127.148438 149.792969 Z M 124.242188 149.792969 "/>
</g>
<g clip-path="url(#clip117)" clip-rule="nonzero">
<path style=" stroke:none;fill-rule:evenodd;fill:rgb(100%,80%,60%);fill-opacity:1;" d="M 127.148438 149.792969 L 127.148438 52.109375 L 127.441406 52.109375 L 127.441406 149.792969 Z M 127.148438 149.792969 "/>
<path style=" stroke:none;fill-rule:evenodd;fill:rgb(100%,80.784314%,60.784314%);fill-opacity:1;" d="M 127.441406 149.792969 L 127.441406 52.109375 L 127.726563 52.109375 L 127.726563 149.792969 Z M 127.441406 149.792969 "/>
</g>
<g clip-path="url(#clip118)" clip-rule="nonzero">
<path style=" stroke:none;fill-rule:evenodd;fill:rgb(100%,81.568627%,61.568627%);fill-opacity:1;" d="M 127.726563 149.792969 L 127.726563 52.109375 L 128.019531 52.109375 L 128.019531 149.792969 Z M 127.726563 149.792969 "/>
</g>
<g clip-path="url(#clip119)" clip-rule="nonzero">
<path style=" stroke:none;fill-rule:evenodd;fill:rgb(100%,82.352941%,62.352941%);fill-opacity:1;" d="M 128.019531 149.792969 L 128.019531 52.109375 L 128.308594 52.109375 L 128.308594 149.792969 Z M 128.019531 149.792969 "/>
<path style=" stroke:none;fill-rule:evenodd;fill:rgb(100%,83.137255%,63.137255%);fill-opacity:1;" d="M 128.308594 149.792969 L 128.308594 52.109375 L 128.601563 52.109375 L 128.601563 149.792969 Z M 128.308594 149.792969 "/>
</g>
<g clip-path="url(#clip120)" clip-rule="nonzero">
<path style=" stroke:none;fill-rule:evenodd;fill:rgb(100%,83.921569%,63.921569%);fill-opacity:1;" d="M 128.503906 149.792969 L 128.503906 52.109375 L 128.894531 52.109375 L 128.894531 149.792969 Z M 128.503906 149.792969 "/>
</g>
<g clip-path="url(#clip121)" clip-rule="nonzero">
<path style=" stroke:none;fill-rule:evenodd;fill:rgb(100%,84.705882%,64.705882%);fill-opacity:1;" d="M 128.792969 149.792969 L 128.792969 52.109375 L 129.085938 52.109375 L 129.085938 149.792969 Z M 128.792969 149.792969 "/>
</g>
<g clip-path="url(#clip122)" clip-rule="nonzero">
<path style=" stroke:none;fill-rule:evenodd;fill:rgb(100%,85.490196%,65.490196%);fill-opacity:1;" d="M 129.085938 149.792969 L 129.085938 52.109375 L 129.378906 52.109375 L 129.378906 149.792969 Z M 129.085938 149.792969 "/>
<path style=" stroke:none;fill-rule:evenodd;fill:rgb(100%,86.27451%,66.27451%);fill-opacity:1;" d="M 129.378906 149.792969 L 129.378906 52.109375 L 129.664063 52.109375 L 129.664063 149.792969 Z M 129.378906 149.792969 "/>
</g>
<g clip-path="url(#clip123)" clip-rule="nonzero">
<path style=" stroke:none;fill-rule:evenodd;fill:rgb(100%,87.058824%,67.058824%);fill-opacity:1;" d="M 129.664063 149.792969 L 129.664063 52.109375 L 129.957031 52.109375 L 129.957031 149.792969 Z M 129.664063 149.792969 "/>
</g>
<g clip-path="url(#clip124)" clip-rule="nonzero">
<path style=" stroke:none;fill-rule:evenodd;fill:rgb(100%,87.843137%,67.843137%);fill-opacity:1;" d="M 129.957031 149.792969 L 129.957031 52.109375 L 130.25 52.109375 L 130.25 149.792969 Z M 129.957031 149.792969 "/>
</g>
<g clip-path="url(#clip125)" clip-rule="nonzero">
<path style=" stroke:none;fill-rule:evenodd;fill:rgb(100%,88.627451%,68.627451%);fill-opacity:1;" d="M 130.25 149.792969 L 130.25 52.109375 L 130.539063 52.109375 L 130.539063 149.792969 Z M 130.25 149.792969 "/>
</g>
<g clip-path="url(#clip126)" clip-rule="nonzero">
<path style=" stroke:none;fill-rule:evenodd;fill:rgb(100%,89.411765%,69.411765%);fill-opacity:1;" d="M 130.539063 149.792969 L 130.539063 52.109375 L 130.832031 52.109375 L 130.832031 149.792969 Z M 130.539063 149.792969 "/>
</g>
<g clip-path="url(#clip127)" clip-rule="nonzero">
<path style=" stroke:none;fill-rule:evenodd;fill:rgb(100%,90.196078%,70.196078%);fill-opacity:1;" d="M 130.734375 149.792969 L 130.734375 52.109375 L 131.023438 52.109375 L 131.023438 149.792969 Z M 130.734375 149.792969 "/>
</g>
<g clip-path="url(#clip128)" clip-rule="nonzero">
<path style=" stroke:none;fill-rule:evenodd;fill:rgb(100%,90.980392%,70.980392%);fill-opacity:1;" d="M 131.023438 149.792969 L 131.023438 52.109375 L 131.316406 52.109375 L 131.316406 149.792969 Z M 131.023438 149.792969 "/>
<path style=" stroke:none;fill-rule:evenodd;fill:rgb(100%,91.764706%,71.764706%);fill-opacity:1;" d="M 131.316406 149.792969 L 131.316406 52.109375 L 131.601563 52.109375 L 131.601563 149.792969 Z M 131.316406 149.792969 "/>
</g>
<g clip-path="url(#clip129)" clip-rule="nonzero">
<path style=" stroke:none;fill-rule:evenodd;fill:rgb(100%,92.54902%,72.54902%);fill-opacity:1;" d="M 131.601563 149.792969 L 131.601563 52.109375 L 131.894531 52.109375 L 131.894531 149.792969 Z M 131.601563 149.792969 "/>
</g>
<g clip-path="url(#clip130)" clip-rule="nonzero">
<path style=" stroke:none;fill-rule:evenodd;fill:rgb(100%,93.333333%,73.333333%);fill-opacity:1;" d="M 131.894531 149.792969 L 131.894531 52.109375 L 132.1875 52.109375 L 132.1875 149.792969 Z M 131.894531 149.792969 "/>
</g>
<g clip-path="url(#clip131)" clip-rule="nonzero">
<path style=" stroke:none;fill-rule:evenodd;fill:rgb(100%,94.117647%,74.117647%);fill-opacity:1;" d="M 132.1875 149.792969 L 132.1875 52.109375 L 132.476563 52.109375 L 132.476563 149.792969 Z M 132.1875 149.792969 "/>
</g>
<g clip-path="url(#clip132)" clip-rule="nonzero">
<path style=" stroke:none;fill-rule:evenodd;fill:rgb(100%,94.901961%,74.901961%);fill-opacity:1;" d="M 132.378906 149.792969 L 132.378906 52.109375 L 132.769531 52.109375 L 132.769531 149.792969 Z M 132.378906 149.792969 "/>
</g>
<g clip-path="url(#clip133)" clip-rule="nonzero">
<path style=" stroke:none;fill-rule:evenodd;fill:rgb(100%,95.686275%,75.686275%);fill-opacity:1;" d="M 132.671875 149.792969 L 132.671875 52.109375 L 133.054688 52.109375 L 133.054688 149.792969 Z M 132.671875 149.792969 "/>
<path style=" stroke:none;fill-rule:evenodd;fill:rgb(100%,96.470588%,76.470588%);fill-opacity:1;" d="M 132.960938 149.792969 L 132.960938 52.109375 L 133.253906 52.109375 L 133.253906 149.792969 Z M 132.960938 149.792969 "/>
</g>
<g clip-path="url(#clip134)" clip-rule="nonzero">
<path style=" stroke:none;fill-rule:evenodd;fill:rgb(100%,97.254902%,77.254902%);fill-opacity:1;" d="M 133.253906 149.792969 L 133.253906 52.109375 L 133.539063 52.109375 L 133.539063 149.792969 Z M 133.253906 149.792969 "/>
</g>
<g clip-path="url(#clip135)" clip-rule="nonzero">
<path style=" stroke:none;fill-rule:evenodd;fill:rgb(100%,98.039216%,78.039216%);fill-opacity:1;" d="M 133.539063 149.792969 L 133.539063 52.109375 L 133.832031 52.109375 L 133.832031 149.792969 Z M 133.539063 149.792969 "/>
</g>
<g clip-path="url(#clip136)" clip-rule="nonzero">
<path style=" stroke:none;fill-rule:evenodd;fill:rgb(100%,98.823529%,78.823529%);fill-opacity:1;" d="M 133.832031 149.792969 L 133.832031 52.109375 L 134.125 52.109375 L 134.125 149.792969 Z M 133.832031 149.792969 "/>
</g>
<g clip-path="url(#clip137)" clip-rule="nonzero">
<path style=" stroke:none;fill-rule:evenodd;fill:rgb(100%,99.215686%,79.215686%);fill-opacity:1;" d="M 134.125 149.792969 L 134.125 52.109375 L 134.414063 52.109375 L 134.414063 149.792969 Z M 134.125 149.792969 "/>
</g>
<g clip-path="url(#clip138)" clip-rule="nonzero">
<path style=" stroke:none;fill-rule:evenodd;fill:rgb(100%,98.431373%,78.431373%);fill-opacity:1;" d="M 134.316406 149.792969 L 134.316406 52.109375 L 134.707031 52.109375 L 134.707031 149.792969 Z M 134.316406 149.792969 "/>
</g>
<g clip-path="url(#clip139)" clip-rule="nonzero">
<path style=" stroke:none;fill-rule:evenodd;fill:rgb(100%,97.647059%,77.647059%);fill-opacity:1;" d="M 134.609375 149.792969 L 134.609375 52.109375 L 134.898438 52.109375 L 134.898438 149.792969 Z M 134.609375 149.792969 "/>
</g>
<g clip-path="url(#clip140)" clip-rule="nonzero">
<path style=" stroke:none;fill-rule:evenodd;fill:rgb(100%,96.862745%,76.862745%);fill-opacity:1;" d="M 134.898438 149.792969 L 134.898438 52.109375 L 135.191406 52.109375 L 135.191406 149.792969 Z M 134.898438 149.792969 "/>
</g>
<g clip-path="url(#clip141)" clip-rule="nonzero">
<path style=" stroke:none;fill-rule:evenodd;fill:rgb(100%,96.078431%,76.078431%);fill-opacity:1;" d="M 135.191406 149.792969 L 135.191406 52.109375 L 135.476563 52.109375 L 135.476563 149.792969 Z M 135.191406 149.792969 "/>
</g>
<g clip-path="url(#clip142)" clip-rule="nonzero">
<path style=" stroke:none;fill-rule:evenodd;fill:rgb(100%,95.294118%,75.294118%);fill-opacity:1;" d="M 135.476563 149.792969 L 135.476563 52.109375 L 135.769531 52.109375 L 135.769531 149.792969 Z M 135.476563 149.792969 "/>
</g>
<g clip-path="url(#clip143)" clip-rule="nonzero">
<path style=" stroke:none;fill-rule:evenodd;fill:rgb(100%,94.509804%,74.509804%);fill-opacity:1;" d="M 135.769531 149.792969 L 135.769531 52.109375 L 136.0625 52.109375 L 136.0625 149.792969 Z M 135.769531 149.792969 "/>
</g>
<g clip-path="url(#clip144)" clip-rule="nonzero">
<path style=" stroke:none;fill-rule:evenodd;fill:rgb(100%,93.72549%,73.72549%);fill-opacity:1;" d="M 136.0625 149.792969 L 136.0625 52.109375 L 136.351563 52.109375 L 136.351563 149.792969 Z M 136.0625 149.792969 "/>
</g>
<g clip-path="url(#clip145)" clip-rule="nonzero">
<path style=" stroke:none;fill-rule:evenodd;fill:rgb(100%,92.941176%,72.941176%);fill-opacity:1;" d="M 136.351563 149.792969 L 136.351563 52.109375 L 136.644531 52.109375 L 136.644531 149.792969 Z M 136.351563 149.792969 "/>
</g>
<g clip-path="url(#clip146)" clip-rule="nonzero">
<path style=" stroke:none;fill-rule:evenodd;fill:rgb(100%,92.156863%,72.156863%);fill-opacity:1;" d="M 136.546875 149.792969 L 136.546875 52.109375 L 136.929688 52.109375 L 136.929688 149.792969 Z M 136.546875 149.792969 "/>
</g>
<g clip-path="url(#clip147)" clip-rule="nonzero">
<path style=" stroke:none;fill-rule:evenodd;fill:rgb(100%,91.372549%,71.372549%);fill-opacity:1;" d="M 136.835938 149.792969 L 136.835938 52.109375 L 137.128906 52.109375 L 137.128906 149.792969 Z M 136.835938 149.792969 "/>
</g>
<g clip-path="url(#clip148)" clip-rule="nonzero">
<path style=" stroke:none;fill-rule:evenodd;fill:rgb(100%,90.588235%,70.588235%);fill-opacity:1;" d="M 137.128906 149.792969 L 137.128906 52.109375 L 137.414063 52.109375 L 137.414063 149.792969 Z M 137.128906 149.792969 "/>
</g>
<g clip-path="url(#clip149)" clip-rule="nonzero">
<path style=" stroke:none;fill-rule:evenodd;fill:rgb(100%,89.803922%,69.803922%);fill-opacity:1;" d="M 137.414063 149.792969 L 137.414063 52.109375 L 137.707031 52.109375 L 137.707031 149.792969 Z M 137.414063 149.792969 "/>
</g>
<g clip-path="url(#clip150)" clip-rule="nonzero">
<path style=" stroke:none;fill-rule:evenodd;fill:rgb(100%,89.019608%,69.019608%);fill-opacity:1;" d="M 137.707031 149.792969 L 137.707031 52.109375 L 138 52.109375 L 138 149.792969 Z M 137.707031 149.792969 "/>
</g>
<g clip-path="url(#clip151)" clip-rule="nonzero">
<path style=" stroke:none;fill-rule:evenodd;fill:rgb(100%,88.235294%,68.235294%);fill-opacity:1;" d="M 138 149.792969 L 138 52.109375 L 138.289063 52.109375 L 138.289063 149.792969 Z M 138 149.792969 "/>
</g>
<g clip-path="url(#clip152)" clip-rule="nonzero">
<path style=" stroke:none;fill-rule:evenodd;fill:rgb(100%,87.45098%,67.45098%);fill-opacity:1;" d="M 138.289063 149.792969 L 138.289063 52.109375 L 138.582031 52.109375 L 138.582031 149.792969 Z M 138.289063 149.792969 "/>
</g>
<g clip-path="url(#clip153)" clip-rule="nonzero">
<path style=" stroke:none;fill-rule:evenodd;fill:rgb(100%,86.666667%,66.666667%);fill-opacity:1;" d="M 138.582031 149.792969 L 138.582031 52.109375 L 138.871094 52.109375 L 138.871094 149.792969 Z M 138.582031 149.792969 "/>
</g>
<g clip-path="url(#clip154)" clip-rule="nonzero">
<path style=" stroke:none;fill-rule:evenodd;fill:rgb(100%,85.882353%,65.882353%);fill-opacity:1;" d="M 138.773438 149.792969 L 138.773438 52.109375 L 139.160156 52.109375 L 139.160156 149.792969 Z M 138.773438 149.792969 "/>
</g>
<g clip-path="url(#clip155)" clip-rule="nonzero">
<path style=" stroke:none;fill-rule:evenodd;fill:rgb(100%,85.098039%,65.098039%);fill-opacity:1;" d="M 139.066406 149.792969 L 139.066406 52.109375 L 139.355469 52.109375 L 139.355469 149.792969 Z M 139.066406 149.792969 "/>
</g>
<g clip-path="url(#clip156)" clip-rule="nonzero">
<path style=" stroke:none;fill-rule:evenodd;fill:rgb(100%,84.313725%,64.313725%);fill-opacity:1;" d="M 139.355469 149.792969 L 139.355469 52.109375 L 139.644531 52.109375 L 139.644531 149.792969 Z M 139.355469 149.792969 "/>
</g>
<g clip-path="url(#clip157)" clip-rule="nonzero">
<path style=" stroke:none;fill-rule:evenodd;fill:rgb(100%,83.529412%,63.529412%);fill-opacity:1;" d="M 139.644531 149.792969 L 139.644531 52.109375 L 139.9375 52.109375 L 139.9375 149.792969 Z M 139.644531 149.792969 "/>
</g>
<g clip-path="url(#clip158)" clip-rule="nonzero">
<path style=" stroke:none;fill-rule:evenodd;fill:rgb(100%,82.745098%,62.745098%);fill-opacity:1;" d="M 139.9375 149.792969 L 139.9375 52.109375 L 140.226563 52.109375 L 140.226563 149.792969 Z M 139.9375 149.792969 "/>
</g>
<g clip-path="url(#clip159)" clip-rule="nonzero">
<path style=" stroke:none;fill-rule:evenodd;fill:rgb(100%,81.960784%,61.960784%);fill-opacity:1;" d="M 140.226563 149.792969 L 140.226563 52.109375 L 140.519531 52.109375 L 140.519531 149.792969 Z M 140.226563 149.792969 "/>
</g>
<g clip-path="url(#clip160)" clip-rule="nonzero">
<path style=" stroke:none;fill-rule:evenodd;fill:rgb(100%,81.176471%,61.176471%);fill-opacity:1;" d="M 140.421875 149.792969 L 140.421875 52.109375 L 140.808594 52.109375 L 140.808594 149.792969 Z M 140.421875 149.792969 "/>
</g>
<g clip-path="url(#clip161)" clip-rule="nonzero">
<path style=" stroke:none;fill-rule:evenodd;fill:rgb(100%,80%,60%);fill-opacity:1;" d="M 140.808594 149.792969 L 140.808594 52.109375 L 143.617188 52.109375 L 143.617188 149.792969 Z M 140.808594 149.792969 "/>
</g>
<path style="fill:none;stroke-width:0.12;stroke-linecap:butt;stroke-linejoin:round;stroke:rgb(50.196078%,50.196078%,50.196078%);stroke-opacity:1;stroke-miterlimit:10;" d="M 157.300052 683.302557 L 147.397727 683.302557 L 147.397727 773.999544 L 167.198344 773.999544 L 167.198344 683.302557 Z M 157.300052 683.302557 " transform="matrix(0.968838,0,0,-1.075826,-18.46861,884.798561)"/>
<path style="fill-rule:evenodd;fill:rgb(100%,80%,60%);fill-opacity:1;stroke-width:0.12;stroke-linecap:butt;stroke-linejoin:round;stroke:rgb(50.196078%,50.196078%,50.196078%);stroke-opacity:1;stroke-miterlimit:10;" d="M 110.897018 813.700127 L 189.897891 773.999544 L 28.299698 773.999544 Z M 110.897018 813.700127 " transform="matrix(0.968838,0,0,-1.075826,-18.46861,884.798561)"/>
<path style="fill:none;stroke-width:0.12;stroke-linecap:butt;stroke-linejoin:round;stroke:rgb(50.196078%,50.196078%,50.196078%);stroke-opacity:1;stroke-miterlimit:10;" d="M 28.299698 813.700127 Z M 28.299698 813.700127 " transform="matrix(0.968838,0,0,-1.075826,-18.46861,884.798561)"/>
<path style="fill:none;stroke-width:0.12;stroke-linecap:butt;stroke-linejoin:round;stroke:rgb(50.196078%,50.196078%,50.196078%);stroke-opacity:1;stroke-miterlimit:10;" d="M 189.897891 773.897878 Z M 189.897891 773.897878 " transform="matrix(0.968838,0,0,-1.075826,-18.46861,884.798561)"/>
<path style="fill-rule:evenodd;fill:rgb(100%,100%,80%);fill-opacity:1;stroke-width:0.12;stroke-linecap:butt;stroke-linejoin:round;stroke:rgb(50.196078%,50.196078%,50.196078%);stroke-opacity:1;stroke-miterlimit:10;" d="M 109.800343 807.999568 L 170.101306 779.602068 L 48.201112 779.602068 Z M 109.800343 807.999568 " transform="matrix(0.968838,0,0,-1.075826,-18.46861,884.798561)"/>
<path style="fill:none;stroke-width:0.12;stroke-linecap:butt;stroke-linejoin:round;stroke:rgb(50.196078%,50.196078%,50.196078%);stroke-opacity:1;stroke-miterlimit:10;" d="M 48.201112 807.999568 Z M 48.201112 807.999568 " transform="matrix(0.968838,0,0,-1.075826,-18.46861,884.798561)"/>
<path style="fill:none;stroke-width:0.12;stroke-linecap:butt;stroke-linejoin:round;stroke:rgb(50.196078%,50.196078%,50.196078%);stroke-opacity:1;stroke-miterlimit:10;" d="M 170.101306 779.602068 Z M 170.101306 779.602068 " transform="matrix(0.968838,0,0,-1.075826,-18.46861,884.798561)"/>
<path style="fill-rule:evenodd;fill:rgb(100%,80%,60%);fill-opacity:1;stroke-width:0.12;stroke-linecap:butt;stroke-linejoin:round;stroke:rgb(50.196078%,50.196078%,50.196078%);stroke-opacity:1;stroke-miterlimit:10;" d="M 106.300662 674.802551 L 31.198628 674.802551 L 31.198628 683.302557 L 181.398664 683.302557 L 181.398664 674.802551 Z M 106.300662 674.802551 " transform="matrix(0.968838,0,0,-1.075826,-18.46861,884.798561)"/>
<path style="fill:none;stroke-width:1;stroke-linecap:butt;stroke-linejoin:miter;stroke:rgb(0%,0%,0%);stroke-opacity:1;stroke-miterlimit:10;" d="M -74 -73.800781 L -74 -69 L -86 -81 L -86 -76.199219 M -74 -69 L -78.800781 -69 M -81.199219 -81 L -86 -81 M -81.199219 83 L -86 83 L -74 71 L -78.800781 71 M -86 83 L -86 78.199219 M -74 75.800781 L -74 71 M 73 75.800781 L 73 71 L 85 83 L 85 78.199219 M 73 71 L 77.800781 71 M 80.199219 83 L 85 83 M 80.199219 -81 L 85 -81 L 73 -69 L 77.800781 -69 M 85 -81 L 85 -76.199219 M 73 -73.800781 L 73 -69 " transform="matrix(1,0,0,1,88,83)"/>
</g>
</svg>
