<?xml version="1.0" encoding="UTF-8"?>
<svg xmlns="http://www.w3.org/2000/svg" xmlns:xlink="http://www.w3.org/1999/xlink" width="762pt" height="468pt" viewBox="0 0 762 468" version="1.1">
<defs>
<clipPath id="clip1">
  <path d="M 0.976563 10 L 11 10 L 11 458 L 0.976563 458 Z M 0.976563 10 "/>
</clipPath>
<clipPath id="clip2">
  <path d="M 750 10 L 761.976563 10 L 761.976563 458 L 750 458 Z M 750 10 "/>
</clipPath>
<clipPath id="clip3">
  <path d="M 0.976563 0.757813 L 761.976563 0.757813 L 761.976563 11 L 0.976563 11 Z M 0.976563 0.757813 "/>
</clipPath>
<clipPath id="clip4">
  <path d="M 0.976563 458 L 761.976563 458 L 761.976563 467.757813 L 0.976563 467.757813 Z M 0.976563 458 "/>
</clipPath>
<clipPath id="clip5">
  <path d="M 10.976563 10.757813 L 751.976563 10.757813 L 751.976563 457.757813 L 10.976563 457.757813 Z M 10.976563 10.757813 "/>
</clipPath>
</defs>
<g id="surface42996">
<g clip-path="url(#clip1)" clip-rule="nonzero">
<path style=" stroke:none;fill-rule:nonzero;fill:rgb(0%,100%,100%);fill-opacity:0.5;" d="M 0.875 10.519531 L 0.875 224.257813 L 6.875 224.257813 L 10.875 234.257813 L 6.875 244.257813 L 0.875 244.257813 L 0.875 458 L 10.875 458 L 10.875 10.519531 Z M 0.875 10.519531 "/>
</g>
<g clip-path="url(#clip2)" clip-rule="nonzero">
<path style=" stroke:none;fill-rule:nonzero;fill:rgb(0%,100%,100%);fill-opacity:0.5;" d="M 762.078125 10.519531 L 762.078125 224.257813 L 750.078125 224.257813 L 754.078125 234.257813 L 750.078125 244.257813 L 762.078125 244.257813 L 762.078125 458 L 752.078125 458 L 752.078125 10.519531 Z M 762.078125 10.519531 "/>
</g>
<g clip-path="url(#clip3)" clip-rule="nonzero">
<path style=" stroke:none;fill-rule:nonzero;fill:rgb(0%,100%,100%);fill-opacity:0.5;" d="M 0.875 10.519531 L 762.082031 10.519531 L 762.082031 0.519531 L 0.875 0.519531 Z M 0.875 10.519531 "/>
</g>
<g clip-path="url(#clip4)" clip-rule="nonzero">
<path style=" stroke:none;fill-rule:nonzero;fill:rgb(0%,100%,100%);fill-opacity:0.5;" d="M 0.875 458 L 762.082031 458 L 762.082031 468 L 0.875 468 Z M 0.875 458 "/>
</g>
<path style="fill:none;stroke-width:1;stroke-linecap:butt;stroke-linejoin:miter;stroke:rgb(0%,0%,0%);stroke-opacity:1;stroke-miterlimit:10;" d="M 718.976563 323.757813 L 1459.976563 323.757813 L 1459.976563 770.757813 L 718.976563 770.757813 Z M 718.976563 323.757813 " transform="matrix(1,0,0,1,-708,-313)"/>
<g clip-path="url(#clip5)" clip-rule="nonzero">
<rect x="0" y="0" width="762" height="468" style="fill:rgb(100%,100%,100%);fill-opacity:1;stroke:none;"/>
</g>
<path style=" stroke:none;fill-rule:evenodd;fill:rgb(90.588235%,95.294118%,94.901961%);fill-opacity:1;" d="M 121.742188 38.027344 C 84.0625 38.027344 46.390625 70.207031 46.390625 102.394531 L 46.390625 359.867188 C 46.390625 392.046875 84.0625 424.386719 121.742188 424.386719 L 636.675781 424.386719 C 674.355469 424.386719 712.207031 392.046875 712.207031 359.867188 L 712.207031 102.394531 C 712.207031 70.207031 674.355469 38.027344 636.675781 38.027344 Z M 46.390625 38.027344 Z M 712.207031 424.386719 Z M 712.207031 424.386719 "/>
<path style="fill:none;stroke-width:0.1;stroke-linecap:butt;stroke-linejoin:miter;stroke:rgb(50.196078%,50.196078%,50.196078%);stroke-opacity:1;stroke-miterlimit:10;" d="M 71.499366 763.699448 C 49.898379 763.699448 28.301871 742.102342 28.301871 720.499993 L 28.301871 547.699553 C 28.301871 526.102447 49.898379 504.397854 71.499366 504.397854 L 366.700163 504.397854 C 388.30115 504.397854 410.000669 526.102447 410.000669 547.699553 L 410.000669 720.499993 C 410.000669 742.102342 388.30115 763.699448 366.700163 763.699448 Z M 71.499366 763.699448 " transform="matrix(1.74435,0,0,-1.49,-2.977751,1175.939521)"/>
<path style="fill:none;stroke-width:0.1;stroke-linecap:butt;stroke-linejoin:miter;stroke:rgb(50.196078%,50.196078%,50.196078%);stroke-opacity:1;stroke-miterlimit:10;" d="M 28.301871 763.699448 Z M 28.301871 763.699448 " transform="matrix(1.74435,0,0,-1.49,-2.977751,1175.939521)"/>
<path style="fill:none;stroke-width:0.1;stroke-linecap:butt;stroke-linejoin:miter;stroke:rgb(50.196078%,50.196078%,50.196078%);stroke-opacity:1;stroke-miterlimit:10;" d="M 410.000669 504.397854 Z M 410.000669 504.397854 " transform="matrix(1.74435,0,0,-1.49,-2.977751,1175.939521)"/>
<path style=" stroke:none;fill-rule:evenodd;fill:rgb(81.176471%,90.588235%,89.803922%);fill-opacity:1;" d="M 241.578125 127.875 L 141.625 177.640625 L 140.582031 75.574219 Z M 241.054688 74.828125 Z M 141.625 177.640625 Z M 141.625 177.640625 "/>
<path style="fill:none;stroke-width:2.9;stroke-linecap:butt;stroke-linejoin:miter;stroke:rgb(0%,0%,100%);stroke-opacity:1;stroke-miterlimit:10;" d="M 140.198834 703.399008 L 82.897772 669.999259 L 82.299859 738.500203 Z M 140.198834 703.399008 " transform="matrix(1.74435,0,0,-1.49,-2.977751,1175.939521)"/>
<path style=" stroke:none;fill-rule:evenodd;fill:rgb(81.176471%,90.588235%,89.803922%);fill-opacity:1;" d="M 128.027344 322.320313 L 217.503906 322.320313 L 247.335938 351.816406 L 217.503906 381.320313 L 128.027344 381.320313 L 157.851563 351.816406 Z M 128.027344 322.320313 Z M 247.335938 381.320313 Z M 247.335938 381.320313 "/>
<path style="fill:none;stroke-width:1.4;stroke-linecap:butt;stroke-linejoin:miter;stroke:rgb(100%,0%,0%);stroke-opacity:1;stroke-miterlimit:10;" d="M 75.102516 572.898798 L 126.397582 572.898798 L 143.499669 553.102762 L 126.397582 533.301483 L 75.102516 533.301483 L 92.200125 553.102762 Z M 75.102516 572.898798 " transform="matrix(1.74435,0,0,-1.49,-2.977751,1175.939521)"/>
<path style=" stroke:none;fill-rule:evenodd;fill:rgb(81.176471%,90.588235%,89.803922%);fill-opacity:1;" d="M 599.695313 242.007813 L 499.574219 291.03125 L 498.523438 188.964844 Z M 599 188.222656 Z M 499.574219 291.03125 Z M 499.574219 291.03125 "/>
<path style="fill:none;stroke-width:1.4;stroke-linecap:butt;stroke-linejoin:miter;stroke:rgb(0%,0%,100%);stroke-opacity:1;stroke-miterlimit:10;" d="M 345.500024 626.799805 L 288.102668 593.898169 L 287.500277 662.399113 Z M 345.500024 626.799805 " transform="matrix(1.74435,0,0,-1.49,-2.977751,1175.939521)"/>
<path style="fill:none;stroke-width:1.4;stroke-linecap:butt;stroke-linejoin:miter;stroke:rgb(0%,0%,0%);stroke-opacity:1;stroke-miterlimit:10;" d="M 140.198834 704.801587 L 247.601377 704.801587 L 247.601377 662.399113 L 272.102352 662.399113 " transform="matrix(1.74435,0,0,-1.49,-2.977751,1175.939521)"/>
<path style=" stroke:none;fill-rule:evenodd;fill:rgb(0%,0%,0%);fill-opacity:1;" d="M 498.523438 188.964844 L 470.4375 180.917969 L 470.4375 197.007813 Z M 498.523438 188.964844 "/>
<path style="fill:none;stroke-width:1.4;stroke-linecap:butt;stroke-linejoin:miter;stroke:rgb(0%,0%,0%);stroke-opacity:1;stroke-miterlimit:10;" d="M 143.499669 553.102762 L 223.102643 553.102762 L 223.102643 596.299595 L 272.198645 596.299595 " transform="matrix(1.74435,0,0,-1.49,-2.977751,1175.939521)"/>
<path style=" stroke:none;fill-rule:evenodd;fill:rgb(0%,0%,0%);fill-opacity:1;" d="M 498.699219 287.453125 L 470.4375 279.40625 L 470.4375 295.5 Z M 498.699219 287.453125 "/>
<path style="fill:none;stroke-width:1.4;stroke-linecap:butt;stroke-linejoin:miter;stroke:rgb(0%,0%,0%);stroke-opacity:1;stroke-miterlimit:10;" d="M 345.101415 626.899427 L 378.300112 626.899427 " transform="matrix(1.74435,0,0,-1.49,-2.977751,1175.939521)"/>
<path style=" stroke:none;fill-rule:evenodd;fill:rgb(0%,0%,0%);fill-opacity:1;" d="M 655.863281 240.515625 L 656.210938 239.027344 L 657.082031 237.535156 L 658.308594 236.199219 L 659.875 235.15625 L 661.621094 234.554688 L 663.363281 234.109375 L 665.109375 233.960938 L 666.675781 234.109375 L 668.421875 234.554688 L 670.164063 235.15625 L 671.738281 236.199219 L 672.957031 237.535156 L 673.652344 239.027344 L 674.355469 240.515625 L 674.355469 243.351563 L 673.652344 244.988281 L 672.957031 246.332031 L 671.738281 247.667969 L 670.164063 248.710938 L 668.421875 249.3125 L 666.675781 249.753906 L 665.109375 250.054688 L 663.363281 249.753906 L 661.621094 249.3125 L 659.875 248.710938 L 658.308594 247.667969 L 657.082031 246.332031 L 656.210938 244.988281 L 655.863281 243.351563 L 655.515625 242.007813 Z M 655.863281 240.515625 "/>
<path style="fill:none;stroke-width:1.4;stroke-linecap:butt;stroke-linejoin:miter;stroke:rgb(0%,0%,0%);stroke-opacity:1;stroke-miterlimit:10;" d="M 54.601061 727.699029 L 68.601618 727.699029 " transform="matrix(1.74435,0,0,-1.49,-2.977751,1175.939521)"/>
<path style=" stroke:none;fill-rule:evenodd;fill:rgb(0%,0%,0%);fill-opacity:1;" d="M 93.308594 93.15625 L 92.785156 94.648438 L 91.914063 96.136719 L 90.691406 97.476563 L 89.125 98.519531 L 87.382813 99.117188 L 85.808594 99.566406 L 84.0625 99.863281 L 82.316406 99.566406 L 80.574219 99.117188 L 78.828125 98.519531 L 77.441406 97.476563 L 76.214844 96.136719 L 75.339844 94.648438 L 74.824219 93.15625 L 74.644531 91.667969 L 74.824219 90.324219 L 75.339844 88.6875 L 76.214844 87.34375 L 77.441406 86.003906 L 78.828125 84.960938 L 80.574219 84.363281 L 82.316406 83.921875 L 84.0625 83.769531 L 85.808594 83.921875 L 87.382813 84.363281 L 89.125 84.960938 L 90.691406 86.003906 L 91.914063 87.34375 L 92.785156 88.6875 L 93.308594 90.324219 L 93.484375 91.667969 Z M 93.308594 93.15625 "/>
<path style=" stroke:none;fill-rule:evenodd;fill:rgb(0%,0%,0%);fill-opacity:1;" d="M 143.726563 91.667969 L 115.460938 83.769531 L 115.460938 99.863281 Z M 143.726563 91.667969 "/>
<path style="fill:none;stroke-width:1.4;stroke-linecap:butt;stroke-linejoin:miter;stroke:rgb(0%,0%,0%);stroke-opacity:1;stroke-miterlimit:10;" d="M 52.800606 680.897435 L 66.897455 680.897435 " transform="matrix(1.74435,0,0,-1.49,-2.977751,1175.939521)"/>
<path style=" stroke:none;fill-rule:evenodd;fill:rgb(0%,0%,0%);fill-opacity:1;" d="M 90.167969 162.890625 L 89.648438 164.378906 L 88.949219 165.871094 L 87.726563 167.210938 L 86.160156 168.25 L 84.417969 168.851563 L 82.671875 169.292969 L 80.929688 169.597656 L 79.355469 169.292969 L 77.441406 168.851563 L 75.867188 168.25 L 74.296875 167.210938 L 73.078125 165.871094 L 72.207031 164.378906 L 71.683594 162.890625 L 71.503906 161.402344 L 71.683594 160.054688 L 72.207031 158.421875 L 73.078125 157.078125 L 74.296875 155.738281 L 75.867188 154.695313 L 77.441406 154.097656 L 79.355469 153.648438 L 80.929688 153.503906 L 82.671875 153.648438 L 84.417969 154.097656 L 86.160156 154.695313 L 87.726563 155.738281 L 88.949219 157.078125 L 89.648438 158.421875 L 90.167969 160.054688 L 90.34375 161.402344 Z M 90.167969 162.890625 "/>
<path style=" stroke:none;fill-rule:evenodd;fill:rgb(0%,0%,0%);fill-opacity:1;" d="M 140.582031 161.402344 L 112.496094 153.503906 L 112.496094 169.597656 Z M 140.582031 161.402344 "/>
</g>
</svg>
