<?xml version="1.0" encoding="UTF-8"?>
<svg xmlns="http://www.w3.org/2000/svg" xmlns:xlink="http://www.w3.org/1999/xlink" width="28pt" height="26pt" viewBox="0 0 28 26" version="1.1">
<g id="surface536755">
<path style="fill:none;stroke-width:2;stroke-linecap:butt;stroke-linejoin:miter;stroke:rgb(0%,0%,0%);stroke-opacity:1;stroke-miterlimit:10;" d="M 0 500 L 500 500 L 500 0 L 0 0 Z M 0 500 " transform="matrix(0.04,0,0,0.04,3,3)"/>
<path style="fill:none;stroke-width:2;stroke-linecap:butt;stroke-linejoin:miter;stroke:rgb(0%,0%,0%);stroke-opacity:1;stroke-miterlimit:10;" d="M 35.742188 500 L 35.742188 479.980469 " transform="matrix(0.04,0,0,0.04,3,3)"/>
<path style="fill:none;stroke-width:1;stroke-linecap:butt;stroke-linejoin:miter;stroke:rgb(50.196078%,50.196078%,50.196078%);stroke-opacity:1;stroke-miterlimit:10;" d="M 35.742188 500 L 35.742188 0 " transform="matrix(0.04,0,0,0.04,3,3)"/>
<path style="fill:none;stroke-width:2;stroke-linecap:butt;stroke-linejoin:miter;stroke:rgb(0%,0%,0%);stroke-opacity:1;stroke-miterlimit:10;" d="M 125 500 L 125 479.980469 " transform="matrix(0.04,0,0,0.04,3,3)"/>
<path style="fill:none;stroke-width:1;stroke-linecap:butt;stroke-linejoin:miter;stroke:rgb(50.196078%,50.196078%,50.196078%);stroke-opacity:1;stroke-miterlimit:10;" d="M 125 500 L 125 0 " transform="matrix(0.04,0,0,0.04,3,3)"/>
<path style="fill:none;stroke-width:2;stroke-linecap:butt;stroke-linejoin:miter;stroke:rgb(0%,0%,0%);stroke-opacity:1;stroke-miterlimit:10;" d="M 214.257813 500 L 214.257813 479.980469 " transform="matrix(0.04,0,0,0.04,3,3)"/>
<path style="fill:none;stroke-width:1;stroke-linecap:butt;stroke-linejoin:miter;stroke:rgb(50.196078%,50.196078%,50.196078%);stroke-opacity:1;stroke-miterlimit:10;" d="M 214.257813 500 L 214.257813 0 " transform="matrix(0.04,0,0,0.04,3,3)"/>
<path style="fill:none;stroke-width:2;stroke-linecap:butt;stroke-linejoin:miter;stroke:rgb(0%,0%,0%);stroke-opacity:1;stroke-miterlimit:10;" d="M 303.613281 500 L 303.613281 479.980469 " transform="matrix(0.04,0,0,0.04,3,3)"/>
<path style="fill:none;stroke-width:1;stroke-linecap:butt;stroke-linejoin:miter;stroke:rgb(50.196078%,50.196078%,50.196078%);stroke-opacity:1;stroke-miterlimit:10;" d="M 303.613281 500 L 303.613281 0 " transform="matrix(0.04,0,0,0.04,3,3)"/>
<path style="fill:none;stroke-width:2;stroke-linecap:butt;stroke-linejoin:miter;stroke:rgb(0%,0%,0%);stroke-opacity:1;stroke-miterlimit:10;" d="M 392.871094 500 L 392.871094 479.980469 " transform="matrix(0.04,0,0,0.04,3,3)"/>
<path style="fill:none;stroke-width:1;stroke-linecap:butt;stroke-linejoin:miter;stroke:rgb(50.196078%,50.196078%,50.196078%);stroke-opacity:1;stroke-miterlimit:10;" d="M 392.871094 500 L 392.871094 0 " transform="matrix(0.04,0,0,0.04,3,3)"/>
<path style="fill:none;stroke-width:2;stroke-linecap:butt;stroke-linejoin:miter;stroke:rgb(0%,0%,0%);stroke-opacity:1;stroke-miterlimit:10;" d="M 482.128906 500 L 482.128906 479.980469 " transform="matrix(0.04,0,0,0.04,3,3)"/>
<path style="fill:none;stroke-width:1;stroke-linecap:butt;stroke-linejoin:miter;stroke:rgb(50.196078%,50.196078%,50.196078%);stroke-opacity:1;stroke-miterlimit:10;" d="M 482.128906 500 L 482.128906 0 " transform="matrix(0.04,0,0,0.04,3,3)"/>
<path style="fill:none;stroke-width:2;stroke-linecap:butt;stroke-linejoin:miter;stroke:rgb(0%,0%,0%);stroke-opacity:1;stroke-miterlimit:10;" d="M 0 466.113281 L 20.019531 466.113281 " transform="matrix(0.04,0,0,0.04,3,3)"/>
<path style="fill:none;stroke-width:1;stroke-linecap:butt;stroke-linejoin:miter;stroke:rgb(50.196078%,50.196078%,50.196078%);stroke-opacity:1;stroke-miterlimit:10;" d="M 0 466.113281 L 500 466.113281 " transform="matrix(0.04,0,0,0.04,3,3)"/>
<path style="fill:none;stroke-width:2;stroke-linecap:butt;stroke-linejoin:miter;stroke:rgb(0%,0%,0%);stroke-opacity:1;stroke-miterlimit:10;" d="M 0 381.25 L 20.019531 381.25 " transform="matrix(0.04,0,0,0.04,3,3)"/>
<path style="fill:none;stroke-width:1;stroke-linecap:butt;stroke-linejoin:miter;stroke:rgb(50.196078%,50.196078%,50.196078%);stroke-opacity:1;stroke-miterlimit:10;" d="M 0 381.25 L 500 381.25 " transform="matrix(0.04,0,0,0.04,3,3)"/>
<path style="fill:none;stroke-width:2;stroke-linecap:butt;stroke-linejoin:miter;stroke:rgb(0%,0%,0%);stroke-opacity:1;stroke-miterlimit:10;" d="M 0 296.289063 L 20.019531 296.289063 " transform="matrix(0.04,0,0,0.04,3,3)"/>
<path style="fill:none;stroke-width:1;stroke-linecap:butt;stroke-linejoin:miter;stroke:rgb(50.196078%,50.196078%,50.196078%);stroke-opacity:1;stroke-miterlimit:10;" d="M 0 296.289063 L 500 296.289063 " transform="matrix(0.04,0,0,0.04,3,3)"/>
<path style="fill:none;stroke-width:2;stroke-linecap:butt;stroke-linejoin:miter;stroke:rgb(0%,0%,0%);stroke-opacity:1;stroke-miterlimit:10;" d="M 0 211.425781 L 20.019531 211.425781 " transform="matrix(0.04,0,0,0.04,3,3)"/>
<path style="fill:none;stroke-width:1;stroke-linecap:butt;stroke-linejoin:miter;stroke:rgb(50.196078%,50.196078%,50.196078%);stroke-opacity:1;stroke-miterlimit:10;" d="M 0 211.425781 L 500 211.425781 " transform="matrix(0.04,0,0,0.04,3,3)"/>
<path style="fill:none;stroke-width:2;stroke-linecap:butt;stroke-linejoin:miter;stroke:rgb(0%,0%,0%);stroke-opacity:1;stroke-miterlimit:10;" d="M 0 126.5625 L 20.019531 126.5625 " transform="matrix(0.04,0,0,0.04,3,3)"/>
<path style="fill:none;stroke-width:1;stroke-linecap:butt;stroke-linejoin:miter;stroke:rgb(50.196078%,50.196078%,50.196078%);stroke-opacity:1;stroke-miterlimit:10;" d="M 0 126.5625 L 500 126.5625 " transform="matrix(0.04,0,0,0.04,3,3)"/>
<path style="fill:none;stroke-width:2;stroke-linecap:butt;stroke-linejoin:miter;stroke:rgb(0%,0%,0%);stroke-opacity:1;stroke-miterlimit:10;" d="M 0 41.699219 L 20.019531 41.699219 " transform="matrix(0.04,0,0,0.04,3,3)"/>
<path style="fill:none;stroke-width:1;stroke-linecap:butt;stroke-linejoin:miter;stroke:rgb(50.196078%,50.196078%,50.196078%);stroke-opacity:1;stroke-miterlimit:10;" d="M 0 41.699219 L 500 41.699219 " transform="matrix(0.04,0,0,0.04,3,3)"/>
<path style=" stroke:none;fill-rule:nonzero;fill:rgb(7.058824%,0%,100%);fill-opacity:0.501961;" d="M 2.644531 23 L 6.214844 23 L 6.214844 21.332031 L 2.644531 21.332031 Z M 2.644531 23 "/>
<path style=" stroke:none;fill-rule:nonzero;fill:rgb(7.058824%,0%,100%);fill-opacity:0.501961;" d="M 6.214844 23 L 9.785156 23 L 9.785156 15.398438 L 6.214844 15.398438 Z M 6.214844 23 "/>
<path style=" stroke:none;fill-rule:nonzero;fill:rgb(7.058824%,0%,100%);fill-opacity:0.501961;" d="M 9.785156 23 L 13.355469 23 L 13.355469 4.667969 L 9.785156 4.667969 Z M 9.785156 23 "/>
<path style=" stroke:none;fill-rule:nonzero;fill:rgb(7.058824%,0%,100%);fill-opacity:0.501961;" d="M 13.355469 23 L 16.929688 23 L 16.929688 15.398438 L 13.355469 15.398438 Z M 13.355469 23 "/>
<path style=" stroke:none;fill-rule:nonzero;fill:rgb(7.058824%,0%,100%);fill-opacity:0.501961;" d="M 16.929688 23 L 20.5 23 L 20.5 21.332031 L 16.929688 21.332031 Z M 16.929688 23 "/>
<path style="fill:none;stroke-width:1;stroke-linecap:butt;stroke-linejoin:miter;stroke:rgb(0%,0%,100%);stroke-opacity:1;stroke-miterlimit:10;" d="M -12 -12 L -12 12 L 12 12 L 14 0 L 12 -12 Z M -12 -12 " transform="matrix(1,0,0,1,13,13)"/>
</g>
</svg>
