<?xml version="1.0" encoding="UTF-8"?>
<svg xmlns="http://www.w3.org/2000/svg" xmlns:xlink="http://www.w3.org/1999/xlink" width="30pt" height="30pt" viewBox="0 0 30 30" version="1.1">
<g id="surface518833">
<path style=" stroke:none;fill-rule:nonzero;fill:rgb(30.196078%,30.196078%,30.196078%);fill-opacity:1;" d="M 3.75 0 C 1.671875 0 0 1.671875 0 3.75 L 0 26.25 C 0 28.328125 1.671875 30 3.75 30 L 26.25 30 C 28.328125 30 30 28.328125 30 26.25 L 30 3.75 C 30 1.671875 28.328125 0 26.25 0 L 3.75 0 M 15 4.21875 C 17.964844 4.21875 20.578125 6.214844 21.355469 9.074219 C 21.519531 9.6875 21.160156 10.316406 20.550781 10.480469 C 19.9375 10.644531 19.308594 10.285156 19.144531 9.675781 C 18.636719 7.8125 16.929688 6.511719 15 6.511719 C 12.628906 6.511719 10.703125 8.433594 10.703125 10.804688 L 10.703125 13.460938 L 21.359375 13.460938 C 21.992188 13.460938 22.503906 13.972656 22.503906 14.605469 L 22.503906 24.640625 C 22.503906 25.273438 21.992188 25.785156 21.359375 25.785156 L 8.644531 25.785156 C 8.011719 25.785156 7.5 25.273438 7.5 24.640625 L 7.5 14.605469 C 7.5 14.054688 7.890625 13.59375 8.40625 13.484375 L 8.40625 10.804688 C 8.40625 7.171875 11.367188 4.21875 15 4.21875 M 15 16.984375 C 14.109375 16.984375 13.386719 17.699219 13.386719 18.589844 C 13.386719 19.0625 13.59375 19.480469 13.917969 19.773438 L 13.492188 22.039063 C 13.46875 22.164063 13.546875 22.261719 13.675781 22.261719 L 16.359375 22.261719 C 16.484375 22.261719 16.5625 22.164063 16.542969 22.039063 L 16.109375 19.753906 C 16.417969 19.460938 16.617188 19.050781 16.617188 18.589844 C 16.617188 17.699219 15.890625 16.984375 15.003906 16.984375 "/>
</g>
</svg>
