<?xml version="1.0" encoding="UTF-8"?>
<svg xmlns="http://www.w3.org/2000/svg" xmlns:xlink="http://www.w3.org/1999/xlink" width="68pt" height="68pt" viewBox="0 0 68 68" version="1.1">
<g id="surface500328">
<path style=" stroke:none;fill-rule:nonzero;fill:rgb(0%,0%,0%);fill-opacity:1;" d="M 11 34 L 1 31 L 1 37 "/>
<path style="fill:none;stroke-width:1;stroke-linecap:butt;stroke-linejoin:miter;stroke:rgb(0%,0%,0%);stroke-opacity:1;stroke-miterlimit:10;" d="M -30 -30 L 30 -30 L 30 30 L -30 30 Z M -33 -33 L 33 -33 L 33 33 L -33 33 Z M -33 -33 " transform="matrix(1,0,0,1,34,34)"/>
<path style=" stroke:none;fill-rule:evenodd;fill:rgb(50%,50%,50%);fill-opacity:0.5;" d="M 4 4 L 64 4 L 64 64 L 4 64 Z M 1 1 L 67 1 L 67 67 L 1 67 Z M 1 1 "/>
<path style=" stroke:none;fill-rule:nonzero;fill:rgb(20.392157%,25.490196%,35.686275%);fill-opacity:1;" d="M 13.726563 54.691406 C 7.613281 49.496094 12.570313 36.863281 24.789063 26.476563 C 37.011719 16.089844 51.871094 11.878906 57.980469 17.070313 L 53.554688 13.308594 C 47.445313 8.117188 32.585938 12.328125 20.363281 22.714844 C 8.144531 33.101563 3.1875 45.734375 9.300781 50.929688 Z M 13.726563 54.691406 "/>
<path style=" stroke:none;fill-rule:nonzero;fill:rgb(93.72549%,25.098039%,34.117647%);fill-opacity:1;" d="M 36.769531 60.601563 C 28.128906 60.601563 21.125 48.691406 21.125 34 C 21.125 19.308594 28.128906 7.398438 36.769531 7.398438 L 30.511719 7.398438 C 21.871094 7.398438 14.863281 19.308594 14.863281 34 C 14.863281 48.691406 21.871094 60.601563 30.511719 60.601563 Z M 36.769531 60.601563 "/>
<path style=" stroke:none;fill-rule:nonzero;fill:rgb(28.627451%,74.117647%,57.647059%);fill-opacity:1;" d="M 57.980469 50.929688 C 51.871094 56.121094 37.011719 51.910156 24.789063 41.523438 C 12.570313 31.136719 7.613281 18.503906 13.726563 13.308594 L 9.300781 17.070313 C 3.1875 22.265625 8.144531 34.898438 20.363281 45.285156 C 32.585938 55.675781 47.445313 59.882813 53.554688 54.691406 Z M 57.980469 50.929688 "/>
<path style=" stroke:none;fill-rule:nonzero;fill:rgb(7.45098%,61.960784%,84.313725%);fill-opacity:1;" d="M 53.554688 13.308594 C 59.667969 18.503906 54.714844 31.136719 42.492188 41.523438 C 30.273438 51.910156 15.410156 56.121094 9.300781 50.929688 L 13.726563 54.691406 C 19.835938 59.882813 34.699219 55.671875 46.917969 45.285156 C 59.140625 34.898438 64.09375 22.265625 57.980469 17.070313 Z M 53.554688 13.308594 "/>
</g>
</svg>
