<?xml version="1.0" encoding="UTF-8"?>
<svg xmlns="http://www.w3.org/2000/svg" xmlns:xlink="http://www.w3.org/1999/xlink" width="150pt" height="150pt" viewBox="0 0 150 150" version="1.1">
<g id="surface5123700">
<path style=" stroke:none;fill-rule:nonzero;fill:rgb(20.392157%,25.490196%,35.686275%);fill-opacity:1;" d="M 3.289063 13.410156 C 1.777344 12.125 3.003906 9.003906 6.023438 6.4375 C 9.039063 3.871094 12.710938 2.832031 14.222656 4.113281 L 13.128906 3.1875 C 11.617188 1.902344 7.949219 2.941406 4.929688 5.507813 C 1.910156 8.074219 0.683594 11.195313 2.195313 12.480469 Z M 3.289063 13.410156 "/>
<path style=" stroke:none;fill-rule:nonzero;fill:rgb(93.72549%,25.098039%,34.117647%);fill-opacity:1;" d="M 8.980469 14.867188 C 6.847656 14.867188 5.117188 11.925781 5.117188 8.296875 C 5.117188 4.667969 6.847656 1.726563 8.980469 1.726563 L 7.433594 1.726563 C 5.300781 1.726563 3.570313 4.667969 3.570313 8.296875 C 3.570313 11.925781 5.300781 14.867188 7.433594 14.867188 Z M 8.980469 14.867188 "/>
<path style=" stroke:none;fill-rule:nonzero;fill:rgb(28.627451%,74.117647%,57.647059%);fill-opacity:1;" d="M 14.222656 12.480469 C 12.710938 13.761719 9.039063 12.722656 6.023438 10.15625 C 3.003906 7.589844 1.777344 4.46875 3.289063 3.1875 L 2.195313 4.117188 C 0.683594 5.398438 1.910156 8.519531 4.929688 11.085938 C 7.949219 13.652344 11.617188 14.691406 13.128906 13.410156 Z M 14.222656 12.480469 "/>
<path style=" stroke:none;fill-rule:nonzero;fill:rgb(7.45098%,61.960784%,84.313725%);fill-opacity:1;" d="M 13.128906 3.1875 C 14.636719 4.46875 13.414063 7.589844 10.394531 10.15625 C 7.375 12.722656 3.703125 13.761719 2.195313 12.480469 L 3.289063 13.410156 C 4.796875 14.691406 8.46875 13.652344 11.488281 11.085938 C 14.507813 8.519531 15.730469 5.398438 14.222656 4.117188 Z M 13.128906 3.1875 "/>
<path style="fill:none;stroke-width:1;stroke-linecap:butt;stroke-linejoin:miter;stroke:rgb(0%,0%,0%);stroke-opacity:1;stroke-miterlimit:10;" d="M -40.00109 -40.00109 L 39.998455 -40.00109 L 39.998455 39.998455 L -40.00109 39.998455 Z M -40.00109 -40.00109 " transform="matrix(1.482284,0,0,1.482284,75,75)"/>
<path style="fill:none;stroke-width:1;stroke-linecap:butt;stroke-linejoin:miter;stroke:rgb(0%,0%,0%);stroke-opacity:1;stroke-miterlimit:10;" d="M -40.00109 -40.00109 L 39.998455 -40.00109 L 39.998455 39.998455 L -40.00109 39.998455 Z M -49.999386 -49.999386 L 49.999386 -49.999386 L 49.999386 49.999386 L -49.999386 49.999386 Z M -49.999386 -49.999386 " transform="matrix(1.482284,0,0,1.482284,75,75)"/>
</g>
</svg>
