<?xml version="1.0" encoding="UTF-8"?>
<svg xmlns="http://www.w3.org/2000/svg" xmlns:xlink="http://www.w3.org/1999/xlink" width="102pt" height="102pt" viewBox="0 0 102 102" version="1.1">
<g id="surface507161">
<path style=" stroke:none;fill-rule:nonzero;fill:rgb(20.392157%,25.490196%,35.686275%);fill-opacity:1;" d="M 2.621094 9.449219 C 1.601563 8.582031 2.429688 6.476563 4.464844 4.746094 C 6.5 3.015625 8.980469 2.3125 9.996094 3.179688 L 9.257813 2.550781 C 8.242188 1.6875 5.765625 2.386719 3.726563 4.117188 C 1.691406 5.851563 0.863281 7.957031 1.882813 8.820313 Z M 2.621094 9.449219 "/>
<path style=" stroke:none;fill-rule:nonzero;fill:rgb(93.72549%,25.098039%,34.117647%);fill-opacity:1;" d="M 6.460938 10.433594 C 5.023438 10.433594 3.855469 8.449219 3.855469 6 C 3.855469 3.550781 5.019531 1.566406 6.460938 1.566406 L 5.417969 1.566406 C 3.976563 1.566406 2.8125 3.550781 2.8125 6 C 2.8125 8.449219 3.976563 10.433594 5.417969 10.433594 Z M 6.460938 10.433594 "/>
<path style=" stroke:none;fill-rule:nonzero;fill:rgb(28.627451%,74.117647%,57.647059%);fill-opacity:1;" d="M 9.996094 8.820313 C 8.980469 9.6875 6.5 8.984375 4.464844 7.253906 C 2.429688 5.523438 1.601563 3.417969 2.621094 2.550781 L 1.882813 3.179688 C 0.863281 4.042969 1.691406 6.148438 3.726563 7.882813 C 5.765625 9.613281 8.242188 10.3125 9.257813 9.449219 Z M 9.996094 8.820313 "/>
<path style=" stroke:none;fill-rule:nonzero;fill:rgb(7.45098%,61.960784%,84.313725%);fill-opacity:1;" d="M 9.257813 2.550781 C 10.277344 3.417969 9.453125 5.523438 7.414063 7.253906 C 5.378906 8.984375 2.902344 9.6875 1.882813 8.820313 L 2.621094 9.449219 C 3.640625 10.3125 6.117188 9.613281 8.152344 7.882813 C 10.191406 6.148438 11.015625 4.042969 9.996094 3.179688 Z M 9.257813 2.550781 "/>
<path style="fill:none;stroke-width:1;stroke-linecap:butt;stroke-linejoin:miter;stroke:rgb(0%,0%,0%);stroke-opacity:1;stroke-miterlimit:10;" d="M -40 -40 L 40 -40 L 40 40 L -40 40 Z M -40 -40 " transform="matrix(1,0,0,1,51,51)"/>
<path style="fill:none;stroke-width:1;stroke-linecap:butt;stroke-linejoin:miter;stroke:rgb(0%,0%,0%);stroke-opacity:1;stroke-miterlimit:10;" d="M -40 -40 L 40 -40 L 40 40 L -40 40 Z M -50 -50 L 50 -50 L 50 50 L -50 50 Z M -50 -50 " transform="matrix(1,0,0,1,51,51)"/>
</g>
</svg>
