<?xml version="1.0" encoding="utf-8"?>
<!DOCTYPE svg PUBLIC "-//W3C//DTD SVG 1.1//EN" "http://www.w3.org/Graphics/SVG/1.1/DTD/svg11.dtd" [
        ]>
<svg version="1.1" id="Layer_1" 
     xmlns="http://www.w3.org/2000/svg" x="0px" y="0px" viewBox="200 1000 850 1000"
     style="enable-background:new 0 0 3000 3000;" xml:space="preserve">
<style type="text/css">
  .st30{fill:#34415B;}
  .st31{fill:#EF4057;}
  .st32{fill:#49BD93;}
  .st33{fill:#139ED7;}
</style>
<switch>
  <g>
    <path class="st30" d="M337.78,1844.83c-86.57-86.57-16.39-297.1,156.74-470.23s383.66-243.31,470.23-156.74l-62.7-62.7
			  c-86.57-86.57-297.1-16.39-470.23,156.74s-243.31,383.66-156.74,470.23L337.78,1844.83z"/>
    <path class="st31" d="M664.25,1943.34c-122.42,0-221.67-198.49-221.67-443.34s99.24-443.34,221.67-443.34h-88.67
			  c-122.42,0-221.67,198.49-221.67,443.34s99.24,443.34,221.67,443.34H664.25z"/>
    <path class="st32" d="M964.75,1782.14c-86.57,86.57-297.1,16.39-470.23-156.74s-243.31-383.66-156.74-470.23l-62.7,62.7
			  c-86.57,86.57-16.39,297.09,156.74,470.23s383.66,243.31,470.23,156.74L964.75,1782.14z"/>
    <path class="st33" d="M902.05,1155.17c86.57,86.57,16.39,297.1-156.74,470.23s-383.66,243.31-470.23,156.74l62.7,62.7
			  c86.57,86.57,297.1,16.39,470.23-156.74s243.31-383.66,156.74-470.23L902.05,1155.17z"/>
  </g>
</switch>
</svg>
