<?xml version="1.0" encoding="UTF-8" standalone="no"?>
<svg
   xmlns:dc="http://purl.org/dc/elements/1.1/"
   xmlns:cc="http://creativecommons.org/ns#"
   xmlns:rdf="http://www.w3.org/1999/02/22-rdf-syntax-ns#"
   xmlns:svg="http://www.w3.org/2000/svg"
   xmlns="http://www.w3.org/2000/svg"
   xmlns:sodipodi="http://sodipodi.sourceforge.net/DTD/sodipodi-0.dtd"
   xmlns:inkscape="http://www.inkscape.org/namespaces/inkscape"
   viewBox="0 0 8 8"
   version="1.1"
   id="svg4"
   sodipodi:docname="Antu_emblem-locked.svg"
   inkscape:version="1.0.1 (3bc2e813f5, 2020-09-07)"
   width="8"
   height="8">
  <metadata
     id="metadata10">
    <rdf:RDF>
      <cc:Work
         rdf:about="">
        <dc:format>image/svg+xml</dc:format>
        <dc:type
           rdf:resource="http://purl.org/dc/dcmitype/StillImage" />
        <dc:title></dc:title>
      </cc:Work>
    </rdf:RDF>
  </metadata>
  <defs
     id="defs8" />
  <sodipodi:namedview
     pagecolor="#ffffff"
     bordercolor="#666666"
     borderopacity="1"
     objecttolerance="10"
     gridtolerance="10"
     guidetolerance="10"
     inkscape:pageopacity="0"
     inkscape:pageshadow="2"
     inkscape:window-width="703"
     inkscape:window-height="480"
     id="namedview6"
     showgrid="false"
     inkscape:zoom="89.375"
     inkscape:cx="4"
     inkscape:cy="4"
     inkscape:window-x="660"
     inkscape:window-y="108"
     inkscape:window-maximized="0"
     inkscape:current-layer="svg4"
     fit-margin-top="0"
     fit-margin-left="0"
     fit-margin-right="0"
     fit-margin-bottom="0" />
  <path
     d="M 1,0 C 0.446,0 0,0.446 0,1 V 7 C 0,7.554 0.446,8 1,8 H 7 C 7.554,8 8,7.554 8,7 V 1 C 8,0.446 7.554,0 7,0 H 1 m 3,1.125 c 0.969,0 1.758,0.787 1.758,1.756 V 3.596 C 5.896,3.625 6,3.748 6,3.895 V 6.571 C 6,6.739 5.864,6.876 5.695,6.876 H 2.304 C 2.135,6.876 1.999,6.74 1.999,6.571 V 3.895 c 0,-0.147 0.104,-0.27 0.242,-0.299 V 2.881 c 0,-0.969 0.789,-1.756 1.758,-1.756 m 0,0.611 c -0.632,0 -1.146,0.513 -1.146,1.145 V 3.59 H 5.146 V 2.881 C 5.146,2.249 4.631,1.736 4,1.736 m 0,2.793 c -0.237,0 -0.43,0.191 -0.43,0.428 0,0.126 0.055,0.238 0.141,0.316 L 3.598,5.877 C 3.592,5.911 3.613,5.936 3.647,5.936 h 0.715 c 0.034,0 0.055,-0.025 0.049,-0.059 L 4.296,5.268 C 4.378,5.19 4.431,5.08 4.431,4.957 4.431,4.72 4.238,4.529 4.001,4.529"
     fill="#4d4d4d"
     id="path2" />
</svg>
