<?xml version="1.0" encoding="UTF-8"?>
<svg width="500pt" height="500pt" version="1.1" viewBox="0 0 700 600" xmlns="http://www.w3.org/2000/svg" xmlns:xlink="http://www.w3.org/1999/xlink">
 <defs>
  <symbol id="x" overflow="visible">
   <path d="m23.453-1.4062c-1.2109 0.625-2.4688 1.1016-3.7812 1.4219s-2.6836 0.48438-4.1094 0.48438c-4.25 0-7.6172-1.1875-10.094-3.5625-2.4805-2.375-3.7188-5.5977-3.7188-9.6719 0-4.0703 1.2383-7.2969 3.7188-9.6719 2.4766-2.3828 5.8438-3.5781 10.094-3.5781 1.4258 0 2.7969 0.16406 4.1094 0.48438 1.3125 0.32422 2.5703 0.79688 3.7812 1.4219v5.2812c-1.2188-0.83203-2.4219-1.4414-3.6094-1.8281-1.1875-0.38281-2.4375-0.57812-3.75-0.57812-2.3438 0-4.1875 0.75-5.5312 2.25s-2.0156 3.5742-2.0156 6.2188c0 2.6367 0.67188 4.7109 2.0156 6.2188 1.3438 1.5 3.1875 2.25 5.5312 2.25 1.3125 0 2.5625-0.19141 3.75-0.57812 1.1875-0.39453 2.3906-1.0078 3.6094-1.8438z"/>
  </symbol>
  <symbol id="d" overflow="visible">
   <path d="m17.156-13.922c-0.53125-0.25-1.0625-0.42969-1.5938-0.54688-0.53125-0.125-1.0625-0.1875-1.5938-0.1875-1.5742 0-2.7891 0.50781-3.6406 1.5156-0.84375 1-1.2656 2.4453-1.2656 4.3281v8.8125h-6.125v-19.141h6.125v3.1406c0.78125-1.25 1.6797-2.1602 2.7031-2.7344 1.0195-0.58203 2.2422-0.875 3.6719-0.875 0.19531 0 0.41406 0.011719 0.65625 0.03125 0.23828 0.023437 0.58594 0.058594 1.0469 0.10938z"/>
  </symbol>
  <symbol id="b" overflow="visible">
   <path d="m22.047-9.625v1.75h-14.312c0.15625 1.4375 0.67578 2.5156 1.5625 3.2344 0.88281 0.71094 2.125 1.0625 3.7188 1.0625 1.2891 0 2.6094-0.1875 3.9531-0.5625 1.3516-0.38281 2.7422-0.96094 4.1719-1.7344v4.7188c-1.4492 0.54297-2.8984 0.95312-4.3438 1.2344-1.4492 0.28125-2.8984 0.42188-4.3438 0.42188-3.4609 0-6.1523-0.87891-8.0781-2.6406-1.918-1.7578-2.875-4.2266-2.875-7.4062 0-3.125 0.94141-5.582 2.8281-7.375 1.8828-1.7891 4.4766-2.6875 7.7812-2.6875 3.0078 0 5.4141 0.90625 7.2188 2.7188 1.8125 1.8125 2.7188 4.2344 2.7188 7.2656zm-6.2969-2.0312c0-1.1641-0.33984-2.1016-1.0156-2.8125-0.67969-0.70703-1.5625-1.0625-2.6562-1.0625-1.1797 0-2.1406 0.33594-2.8906 1-0.74219 0.66797-1.1992 1.625-1.375 2.875z"/>
  </symbol>
  <symbol id="l" overflow="visible">
   <path d="m11.516-8.6094c-1.2734 0-2.2305 0.21875-2.875 0.65625-0.64844 0.42969-0.96875 1.0625-0.96875 1.9062 0 0.77344 0.25781 1.375 0.78125 1.8125 0.51953 0.4375 1.2383 0.65625 2.1562 0.65625 1.1562 0 2.125-0.41016 2.9062-1.2344 0.78906-0.82031 1.1875-1.8516 1.1875-3.0938v-0.70312zm9.3438-2.3125v10.922h-6.1562v-2.8438c-0.82422 1.168-1.75 2.0156-2.7812 2.5469-1.0234 0.53125-2.2656 0.79688-3.7344 0.79688-1.9805 0-3.5898-0.57812-4.8281-1.7344-1.2422-1.1562-1.8594-2.6602-1.8594-4.5156 0-2.2383 0.76953-3.8789 2.3125-4.9219 1.5508-1.0508 3.9766-1.5781 7.2812-1.5781h3.6094v-0.48438c0-0.96875-0.38672-1.6758-1.1562-2.125-0.76172-0.44531-1.9492-0.67188-3.5625-0.67188-1.3125 0-2.5391 0.13281-3.6719 0.39062-1.125 0.26172-2.1719 0.65234-3.1406 1.1719v-4.6562c1.3125-0.32031 2.6289-0.56641 3.9531-0.73438 1.3203-0.16406 2.6445-0.25 3.9688-0.25 3.4453 0 5.9375 0.68359 7.4688 2.0469 1.5312 1.3672 2.2969 3.5781 2.2969 6.6406z"/>
  </symbol>
  <symbol id="c" overflow="visible">
   <path d="m9.625-24.578v5.4375h6.2969v4.375h-6.2969v8.125c0 0.88672 0.17578 1.4844 0.53125 1.7969 0.35156 0.3125 1.0508 0.46875 2.0938 0.46875h3.1406v4.375h-5.2344c-2.418 0-4.1328-0.50391-5.1406-1.5156-1.0117-1.0078-1.5156-2.7188-1.5156-5.125v-8.125h-3.0312v-4.375h3.0312v-5.4375z"/>
  </symbol>
  <symbol id="k" overflow="visible">
   <path d="m15.969-16.344v-10.25h6.1406v26.594h-6.1406v-2.7656c-0.84375 1.125-1.7773 1.9531-2.7969 2.4844-1.0117 0.51953-2.1836 0.78125-3.5156 0.78125-2.3555 0-4.293-0.9375-5.8125-2.8125-1.5117-1.875-2.2656-4.2852-2.2656-7.2344 0-2.957 0.75391-5.375 2.2656-7.25 1.5195-1.875 3.457-2.8125 5.8125-2.8125 1.3203 0 2.4922 0.26562 3.5156 0.79688 1.0195 0.53125 1.9531 1.3555 2.7969 2.4688zm-4.0469 12.391c1.3125 0 2.3125-0.47266 3-1.4219 0.69531-0.95703 1.0469-2.3477 1.0469-4.1719 0-1.8203-0.35156-3.2109-1.0469-4.1719-0.6875-0.95703-1.6875-1.4375-3-1.4375-1.293 0-2.2891 0.48047-2.9844 1.4375-0.6875 0.96094-1.0312 2.3516-1.0312 4.1719 0 1.8242 0.34375 3.2148 1.0312 4.1719 0.69531 0.94922 1.6914 1.4219 2.9844 1.4219z"/>
  </symbol>
  <symbol id="j" overflow="visible">
   <path d="m13.125-3.9531c1.3125 0 2.3125-0.47266 3-1.4219 0.6875-0.95703 1.0312-2.3477 1.0312-4.1719 0-1.8203-0.34375-3.2109-1.0312-4.1719-0.6875-0.95703-1.6875-1.4375-3-1.4375s-2.3203 0.48438-3.0156 1.4531c-0.69922 0.96094-1.0469 2.3438-1.0469 4.1562 0 1.8047 0.34766 3.1875 1.0469 4.1562 0.69531 0.96094 1.7031 1.4375 3.0156 1.4375zm-4.0625-12.391c0.84375-1.1133 1.7734-1.9375 2.7969-2.4688 1.0312-0.53125 2.207-0.79688 3.5312-0.79688 2.3633 0 4.3008 0.9375 5.8125 2.8125 1.5195 1.875 2.2812 4.293 2.2812 7.25 0 2.9492-0.76172 5.3594-2.2812 7.2344-1.5117 1.875-3.4492 2.8125-5.8125 2.8125-1.3242 0-2.5-0.26562-3.5312-0.79688-1.0234-0.53125-1.9531-1.3516-2.7969-2.4688v2.7656h-6.125v-26.594h6.125z"/>
  </symbol>
  <symbol id="i" overflow="visible">
   <path d="m0.42188-19.141h6.125l5.1406 12.984 4.375-12.984h6.125l-8.0469 20.953c-0.8125 2.125-1.7617 3.6094-2.8438 4.4531-1.0742 0.85156-2.4922 1.2812-4.25 1.2812h-3.5469v-4.0156h1.9219c1.0312 0 1.7812-0.16797 2.25-0.5 0.47656-0.32422 0.84766-0.91406 1.1094-1.7656l0.17188-0.53125z"/>
  </symbol>
  <symbol id="h" overflow="visible">
   <path d="m0.17188-25.516h23.516v4.9688h-8.4531v20.547h-6.5938v-20.547h-8.4688z"/>
  </symbol>
  <symbol id="e" overflow="visible">
   <path d="m2.9375-19.141h6.125v19.141h-6.125zm0-7.4531h6.125v4.9844h-6.125z"/>
  </symbol>
  <symbol id="g" overflow="visible">
   <path d="m20.672-15.969c0.78125-1.1758 1.7031-2.0781 2.7656-2.7031s2.2344-0.9375 3.5156-0.9375c2.1953 0 3.8672 0.68359 5.0156 2.0469 1.1562 1.3555 1.7344 3.3242 1.7344 5.9062v11.656h-6.1562v-9.9844c0.007813-0.14453 0.015625-0.29688 0.015625-0.45312 0.007812-0.16406 0.015625-0.39453 0.015625-0.6875 0-1.3516-0.19922-2.332-0.59375-2.9375-0.39844-0.61328-1.043-0.92188-1.9375-0.92188-1.1562 0-2.0547 0.48047-2.6875 1.4375-0.63672 0.96094-0.96484 2.3398-0.98438 4.1406v9.4062h-6.1406v-9.9844c0-2.1133-0.18359-3.4727-0.54688-4.0781-0.36719-0.61328-1.0156-0.92188-1.9531-0.92188-1.1797 0-2.0859 0.48438-2.7188 1.4531-0.63672 0.96094-0.95312 2.3281-0.95312 4.1094v9.4219h-6.1562v-19.141h6.1562v2.7969c0.75-1.082 1.6094-1.8945 2.5781-2.4375 0.97656-0.55078 2.0547-0.82812 3.2344-0.82812 1.3125 0 2.4727 0.32422 3.4844 0.96875 1.0195 0.63672 1.7891 1.5273 2.3125 2.6719z"/>
  </symbol>
  <symbol id="a" overflow="visible">
   <path d="m12.047-15.234c-1.3555 0-2.3906 0.49219-3.1094 1.4688-0.71094 0.96875-1.0625 2.375-1.0625 4.2188 0 1.8359 0.35156 3.2422 1.0625 4.2188 0.71875 0.96875 1.7539 1.4531 3.1094 1.4531 1.332 0 2.3516-0.48438 3.0625-1.4531 0.70703-0.97656 1.0625-2.3828 1.0625-4.2188 0-1.8438-0.35547-3.25-1.0625-4.2188-0.71094-0.97656-1.7305-1.4688-3.0625-1.4688zm0-4.375c3.2891 0 5.8633 0.89062 7.7188 2.6719 1.8516 1.7812 2.7812 4.2461 2.7812 7.3906 0 3.1367-0.92969 5.5938-2.7812 7.375-1.8555 1.7812-4.4297 2.6719-7.7188 2.6719-3.3047 0-5.8867-0.89062-7.75-2.6719-1.8672-1.7812-2.7969-4.2383-2.7969-7.375 0-3.1445 0.92969-5.6094 2.7969-7.3906 1.8633-1.7812 4.4453-2.6719 7.75-2.6719z"/>
  </symbol>
  <symbol id="f" overflow="visible">
   <path d="m15.531-26.594v4.0156h-3.375c-0.86719 0-1.4688 0.15625-1.8125 0.46875s-0.51562 0.85938-0.51562 1.6406v1.3281h5.2344v4.375h-5.2344v14.766h-6.125v-14.766h-3.0312v-4.375h3.0312v-1.3281c0-2.082 0.57812-3.625 1.7344-4.625 1.1641-1 2.9727-1.5 5.4219-1.5z"/>
  </symbol>
  <symbol id="w" overflow="visible">
   <path d="m12.562-14.203c1.375 0 2.3594-0.25391 2.9531-0.76562 0.60156-0.50781 0.90625-1.3516 0.90625-2.5312 0-1.1641-0.30469-2-0.90625-2.5-0.59375-0.5-1.5781-0.75-2.9531-0.75h-2.7656v6.5469zm-2.7656 4.5469v9.6562h-6.5781v-25.516h10.047c3.3516 0 5.8125 0.57031 7.375 1.7031 1.5703 1.125 2.3594 2.9062 2.3594 5.3438 0 1.6875-0.40625 3.0742-1.2188 4.1562-0.8125 1.0742-2.043 1.8711-3.6875 2.3906 0.90625 0.19922 1.7109 0.66406 2.4219 1.3906 0.70703 0.71875 1.4258 1.8125 2.1562 3.2812l3.5781 7.25h-7l-3.1094-6.3438c-0.63672-1.2695-1.2773-2.1406-1.9219-2.6094-0.63672-0.46875-1.4922-0.70312-2.5625-0.70312z"/>
  </symbol>
  <symbol id="v" overflow="visible">
   <path d="m17.891-18.547v4.6562c-1.3125-0.55078-2.5781-0.96094-3.7969-1.2344-1.2188-0.26953-2.3711-0.40625-3.4531-0.40625-1.1562 0-2.0156 0.14844-2.5781 0.4375-0.5625 0.29297-0.84375 0.74219-0.84375 1.3438 0 0.49219 0.21094 0.86719 0.64062 1.125 0.42578 0.26172 1.1914 0.45312 2.2969 0.57812l1.0781 0.15625c3.125 0.39844 5.2266 1.0547 6.3125 1.9688 1.082 0.90625 1.625 2.3359 1.625 4.2812 0 2.043-0.75781 3.5781-2.2656 4.6094-1.5 1.0234-3.7422 1.5312-6.7188 1.5312-1.2734 0-2.5859-0.10547-3.9375-0.3125-1.3438-0.19531-2.7266-0.49219-4.1406-0.89062v-4.6406c1.2188 0.59375 2.4688 1.0391 3.75 1.3281 1.2812 0.29297 2.582 0.4375 3.9062 0.4375 1.1875 0 2.082-0.16016 2.6875-0.48438 0.60156-0.33203 0.90625-0.82031 0.90625-1.4688 0-0.55078-0.21094-0.95703-0.625-1.2188-0.41797-0.26953-1.2461-0.48438-2.4844-0.64062l-1.0781-0.125c-2.7188-0.34375-4.625-0.97266-5.7188-1.8906-1.0938-0.92578-1.6406-2.332-1.6406-4.2188 0-2.0195 0.69141-3.5195 2.0781-4.5 1.3945-0.98828 3.5234-1.4844 6.3906-1.4844 1.1328 0 2.3203 0.089844 3.5625 0.26562 1.2383 0.16797 2.5859 0.43359 4.0469 0.79688z"/>
  </symbol>
  <symbol id="u" overflow="visible">
   <path d="m2.9375-26.594h6.125v26.594h-6.125z"/>
  </symbol>
  <symbol id="t" overflow="visible">
   <path d="m0.53125-19.141h6.1094l4.7812 13.234 4.75-13.234h6.125l-7.5312 19.141h-6.7188z"/>
  </symbol>
  <symbol id="s" overflow="visible">
   <path d="m22.188-11.656v11.656h-6.1562v-8.8906c0-1.6758-0.039062-2.8281-0.10938-3.4531-0.074219-0.625-0.20312-1.082-0.39062-1.375-0.24219-0.40625-0.5625-0.71875-0.96875-0.9375s-0.875-0.32812-1.4062-0.32812c-1.2734 0-2.2734 0.49609-3 1.4844-0.73047 0.98047-1.0938 2.3398-1.0938 4.0781v9.4219h-6.125v-26.594h6.125v10.25c0.91406-1.1133 1.8906-1.9375 2.9219-2.4688 1.0391-0.53125 2.1914-0.79688 3.4531-0.79688 2.207 0 3.8828 0.68359 5.0312 2.0469 1.1445 1.3555 1.7188 3.3242 1.7188 5.9062z"/>
  </symbol>
  <symbol id="r" overflow="visible">
   <path d="m3.2188-25.516h7.3438l9.2812 17.5v-17.5h6.2344v25.516h-7.3438l-9.2812-17.5v17.5h-6.2344z"/>
  </symbol>
  <symbol id="q" overflow="visible">
   <path d="m2.7344-7.4531v-11.688h6.1562v1.9062c0 1.043-0.007813 2.3516-0.015625 3.9219-0.011719 1.5625-0.015625 2.6055-0.015625 3.125 0 1.543 0.035156 2.6523 0.10938 3.3281 0.082031 0.67969 0.21875 1.168 0.40625 1.4688 0.25781 0.40625 0.58594 0.71875 0.98438 0.9375 0.40625 0.21094 0.875 0.3125 1.4062 0.3125 1.2695 0 2.2695-0.48828 3-1.4688 0.72656-0.97656 1.0938-2.3359 1.0938-4.0781v-9.4531h6.125v19.141h-6.125v-2.7656c-0.92969 1.1172-1.9062 1.9375-2.9375 2.4688s-2.168 0.79688-3.4062 0.79688c-2.2109 0-3.8906-0.67578-5.0469-2.0312-1.1562-1.3633-1.7344-3.3359-1.7344-5.9219z"/>
  </symbol>
  <symbol id="p" overflow="visible">
   <path d="m22.188-11.656v11.656h-6.1562v-8.9219c0-1.6562-0.039062-2.7969-0.10938-3.4219-0.074219-0.625-0.20312-1.082-0.39062-1.375-0.24219-0.40625-0.5625-0.71875-0.96875-0.9375s-0.875-0.32812-1.4062-0.32812c-1.2734 0-2.2734 0.49609-3 1.4844-0.73047 0.98047-1.0938 2.3398-1.0938 4.0781v9.4219h-6.125v-19.141h6.125v2.7969c0.91406-1.1133 1.8906-1.9375 2.9219-2.4688 1.0391-0.53125 2.1914-0.79688 3.4531-0.79688 2.207 0 3.8828 0.68359 5.0312 2.0469 1.1445 1.3555 1.7188 3.3242 1.7188 5.9062z"/>
  </symbol>
  <symbol id="o" overflow="visible">
   <path d="m3.2188-25.516h10.922c3.2383 0 5.7266 0.72656 7.4688 2.1719 1.7383 1.4375 2.6094 3.4922 2.6094 6.1562 0 2.6797-0.87109 4.7344-2.6094 6.1719-1.7422 1.4375-4.2305 2.1562-7.4688 2.1562h-4.3438v8.8594h-6.5781zm6.5781 4.7656v7.125h3.6406c1.2695 0 2.2539-0.30469 2.9531-0.92188 0.69531-0.625 1.0469-1.5039 1.0469-2.6406 0-1.1445-0.35156-2.0234-1.0469-2.6406-0.69922-0.61328-1.6836-0.92188-2.9531-0.92188z"/>
  </symbol>
  <symbol id="n" overflow="visible">
   <path d="m2.9375-19.141h6.125v18.797c0 2.5625-0.62109 4.5156-1.8594 5.8594-1.2305 1.3516-3.0117 2.0312-5.3438 2.0312h-3.0156v-4.0156h1.0469c1.1641 0 1.9609-0.26172 2.3906-0.78125 0.4375-0.52344 0.65625-1.5547 0.65625-3.0938zm0-7.4531h6.125v4.9844h-6.125z"/>
  </symbol>
  <symbol id="m" overflow="visible">
   <path d="m18.406-18.547v5c-0.83594-0.57031-1.6719-0.99219-2.5156-1.2656-0.83594-0.28125-1.6992-0.42188-2.5938-0.42188-1.7109 0-3.043 0.5-4 1.5-0.94922 1-1.4219 2.3984-1.4219 4.1875 0 1.7812 0.47266 3.1719 1.4219 4.1719 0.95703 1 2.2891 1.5 4 1.5 0.95703 0 1.8633-0.14062 2.7188-0.42188 0.86328-0.28906 1.6602-0.71875 2.3906-1.2812v5.0156c-0.96094 0.35547-1.9336 0.61719-2.9219 0.79688-0.98047 0.17578-1.9648 0.26562-2.9531 0.26562-3.4609 0-6.1641-0.88281-8.1094-2.6562-1.9492-1.7695-2.9219-4.2344-2.9219-7.3906s0.97266-5.6172 2.9219-7.3906c1.9453-1.7812 4.6484-2.6719 8.1094-2.6719 1 0 1.9844 0.089844 2.9531 0.26562 0.97656 0.17969 1.9531 0.44531 2.9219 0.79688z"/>
  </symbol>
 </defs>
 <g>
  <path d="m375.1 254.9c5.4688 5.4648 14.328 5.4648 19.797 0l25.102-25.102 25.102 25.102c5.4922 5.3047 14.227 5.2305 19.625-0.17188 5.4023-5.3984 5.4766-14.133 0.17188-19.625l-25.102-25.102 25.102-25.102c5.3047-5.4922 5.2305-14.227-0.17188-19.625-5.3984-5.4023-14.133-5.4766-19.625-0.17188l-25.102 25.102-25.102-25.102c-5.4922-5.3047-14.227-5.2305-19.625 0.17188-5.4023 5.3984-5.4766 14.133-0.17188 19.625l25.102 25.102-25.102 25.102c-5.4648 5.4688-5.4648 14.328 0 19.797z"/>
  <path d="m364 350c0 3.7148 1.4766 7.2734 4.1016 9.8984s6.1836 4.1016 9.8984 4.1016h28v28c0 7.7305 6.2695 14 14 14s14-6.2695 14-14v-28h28c7.7305 0 14-6.2695 14-14s-6.2695-14-14-14h-28v-28c0-7.7305-6.2695-14-14-14s-14 6.2695-14 14v28h-28c-7.7305 0-14 6.2695-14 14z"/>
  <path d="m324.9 305.1c-5.4688-5.4648-14.328-5.4648-19.797 0l-25.102 25.102-25.102-25.102c-5.4922-5.3047-14.227-5.2305-19.625 0.17188-5.4023 5.3984-5.4766 14.133-0.17188 19.625l25.102 25.102-25.102 25.102c-2.6992 2.6094-4.2422 6.1953-4.2734 9.9492-0.03125 3.7539 1.4453 7.3672 4.1016 10.02 2.6523 2.6562 6.2656 4.1328 10.02 4.1016 3.7539-0.03125 7.3398-1.5742 9.9492-4.2734l25.102-25.102 25.102 25.102c5.4922 5.3047 14.227 5.2305 19.625-0.17188 5.4023-5.3984 5.4766-14.133 0.17188-19.625l-25.102-25.102 25.102-25.102c5.4648-5.4688 5.4648-14.328 0-19.797z"/>
  <path d="m280 154c-7.7305 0-14 6.2695-14 14v28h-28c-7.7305 0-14 6.2695-14 14s6.2695 14 14 14h28v28c0 7.7305 6.2695 14 14 14s14-6.2695 14-14v-28h28c7.7305 0 14-6.2695 14-14s-6.2695-14-14-14h-28v-28c0-3.7148-1.4766-7.2734-4.1016-9.8984s-6.1836-4.1016-9.8984-4.1016z"/>
  <path d="m608.64 266.44c-3.1719-60.68-27.578-118.31-68.953-162.81-41.371-44.5-97.078-73.035-157.37-80.609-60.289-7.5742-121.32 6.293-172.41 39.176-6.2578 4.2812-7.9727 12.766-3.8633 19.137 4.1055 6.375 12.539 8.3203 19.023 4.3906 44.754-28.758 98.059-41.191 150.91-35.195 52.859 5.9961 102.03 30.051 139.2 68.102 37.176 38.051 60.078 87.766 64.84 140.75 4.7617 52.984-8.9062 105.98-38.699 150.05l-4.2578-30.102c-1.082-7.6562-8.168-12.984-15.824-11.898-7.6562 1.0859-12.984 8.1719-11.902 15.828l8.8633 62.641c0.035156 0.25781 0.125 0.49609 0.17578 0.75 0.078125 0.39844 0.16797 0.78906 0.28125 1.1836h-0.003906c0.14062 0.47656 0.30859 0.94141 0.5 1.3984 0.14062 0.34375 0.28125 0.69922 0.44922 1.0156h-0.003907c0.25 0.48438 0.53125 0.94922 0.83594 1.4023 0.18359 0.27344 0.35156 0.55469 0.55469 0.82031l-0.003907-0.003906c0.41016 0.51953 0.85156 1.0078 1.332 1.4648 0.14063 0.13281 0.23828 0.28516 0.37891 0.42187l0.097656 0.078126v-0.003907c0.49609 0.42969 1.0273 0.82031 1.582 1.1758 0.16797 0.11328 0.31641 0.24609 0.48438 0.35156h-0.003906c0.71875 0.43359 1.4766 0.80078 2.2617 1.0977 0.10547 0.042969 0.21875 0.054688 0.32031 0.089844 1.2266 0.47656 2.5312 0.72656 3.8438 0.74219 0.25391 0 0.49609 0.070313 0.75781 0.070313h0.042969c0.64453 0 1.2891-0.042969 1.9297-0.13281l62.551-8.8125c7.6562-1.082 12.988-8.1641 11.91-15.82-1.082-7.6562-8.1641-12.988-15.82-11.906l-28.23 3.9766c31.781-46.645 47.32-102.46 44.219-158.82z"/>
  <path d="m474.93 474.28c-44.754 28.758-98.059 41.191-150.91 35.195-52.859-5.9961-102.03-30.051-139.2-68.102-37.176-38.051-60.078-87.766-64.84-140.75-4.7617-52.984 8.9062-105.98 38.699-150.05l4.2578 30.102c1.082 7.6562 8.168 12.984 15.824 11.898 3.6797-0.51953 6.9961-2.4805 9.2305-5.4492 2.2305-2.9688 3.1914-6.7031 2.6719-10.379l-8.8633-62.641c0-0.23828-0.11719-0.44922-0.16797-0.69922v-0.003906c-0.085937-0.46875-0.19531-0.9375-0.32812-1.3984-0.13281-0.44141-0.28516-0.86719-0.45312-1.2891-0.16797-0.42188-0.34375-0.77734-0.54688-1.1602-0.24219-0.45703-0.50391-0.89844-0.79297-1.3242-0.20312-0.30078-0.42187-0.59375-0.65234-0.88281-0.36719-0.46094-0.76953-0.90234-1.1953-1.3164-0.125-0.11719-0.21875-0.25781-0.34375-0.37891-0.125-0.11719-0.23047-0.15234-0.34375-0.25391v0.003907c-0.48047-0.40625-0.99219-0.78125-1.5234-1.1211-0.24609-0.15234-0.48828-0.31641-0.74219-0.45312-0.54297-0.29688-1.1055-0.55469-1.6797-0.77734-0.27344-0.10547-0.54688-0.21875-0.82031-0.30859-0.56641-0.17578-1.1406-0.3125-1.7227-0.41406-0.32812-0.0625-0.65234-0.11719-0.98828-0.16016-0.51562-0.050781-1.0391-0.074218-1.5586-0.070312-0.44141 0-0.875 0-1.3164 0.054688h-0.62891l-62.566 8.8633c-7.6562 1.082-12.988 8.1641-11.906 15.82 1.0781 7.6562 8.1602 12.988 15.82 11.906l28.23-3.9766v0.003906c-35.328 52.164-50.434 115.41-42.484 177.91 7.9492 62.5 38.406 119.96 85.668 161.62 47.262 41.656 108.09 64.66 171.09 64.703 4.543 0 9.1016-0.125 13.715-0.36328h-0.003906c45.016-2.3633 88.629-16.441 126.53-40.84 6.2578-4.2812 7.9727-12.766 3.8633-19.137-4.1055-6.375-12.539-8.3203-19.023-4.3906z"/>
<!--
  <use x="70" y="665" xlink:href="#x"/>
  <use x="95.6875" y="665" xlink:href="#d"/>
  <use x="112.945312" y="665" xlink:href="#b"/>
  <use x="136.683594" y="665" xlink:href="#l"/>
  <use x="160.304688" y="665" xlink:href="#c"/>
  <use x="177.035156" y="665" xlink:href="#b"/>
  <use x="200.773438" y="665" xlink:href="#k"/>
  <use x="238.011719" y="665" xlink:href="#j"/>
  <use x="263.0625" y="665" xlink:href="#i"/>
  <use x="298.0625" y="665" xlink:href="#h"/>
  <use x="321.9375" y="665" xlink:href="#e"/>
  <use x="333.9375" y="665" xlink:href="#g"/>
  <use x="370.40625" y="665" xlink:href="#a"/>
  <use x="394.449219" y="665" xlink:href="#f"/>
  <use x="409.679688" y="665" xlink:href="#b"/>
  <use x="433.414062" y="665" xlink:href="#e"/>
  <use x="457.597656" y="665" xlink:href="#w"/>
  <use x="484.546875" y="665" xlink:href="#a"/>
  <use x="508.59375" y="665" xlink:href="#v"/>
  <use x="529.425781" y="665" xlink:href="#c"/>
  <use x="546.15625" y="665" xlink:href="#e"/>
  <use x="558.15625" y="665" xlink:href="#u"/>
  <use x="570.152344" y="665" xlink:href="#a"/>
  <use x="594.195312" y="665" xlink:href="#t"/>
  <use x="70" y="700" xlink:href="#f"/>
  <use x="85.226562" y="700" xlink:href="#d"/>
  <use x="102.488281" y="700" xlink:href="#a"/>
  <use x="126.53125" y="700" xlink:href="#g"/>
  <use x="175.1875" y="700" xlink:href="#c"/>
  <use x="191.917969" y="700" xlink:href="#s"/>
  <use x="216.835938" y="700" xlink:href="#b"/>
  <use x="252.757812" y="700" xlink:href="#r"/>
  <use x="282.050781" y="700" xlink:href="#a"/>
  <use x="306.097656" y="700" xlink:href="#q"/>
  <use x="331.011719" y="700" xlink:href="#p"/>
  <use x="368.117188" y="700" xlink:href="#o"/>
  <use x="393.765625" y="700" xlink:href="#d"/>
  <use x="411.027344" y="700" xlink:href="#a"/>
  <use x="435.074219" y="700" xlink:href="#n"/>
  <use x="447.070312" y="700" xlink:href="#b"/>
  <use x="470.808594" y="700" xlink:href="#m"/>
  <use x="491.554687" y="700" xlink:href="#c"/>
-->
 </g>
</svg>
