<svg xmlns="http://www.w3.org/2000/svg" viewBox="0 0 8 8"><path d="m1 0c-.554 0-1 .446-1 1v6c0 .554.446 1 1 1h6c.554 0 1-.446 1-1v-6c0-.554-.446-1-1-1h-6m3 1.125c.969 0 1.758.787 1.758 1.756v.715c.138.029.242.152.242.299v2.676c0 .168-.136.305-.305.305h-3.391c-.169 0-.305-.136-.305-.305v-2.676c0-.147.104-.27.242-.299v-.715c0-.969.789-1.756 1.758-1.756m0 .611c-.632 0-1.146.513-1.146 1.145v.709h2.293v-.709c0-.632-.515-1.145-1.146-1.145m0 2.793c-.237 0-.43.191-.43.428 0 .126.055.238.141.316l-.113.604c-.006.034.015.059.049.059h.715c.034 0 .055-.025.049-.059l-.115-.609c.082-.078.135-.188.135-.311 0-.237-.193-.428-.43-.428" fill="#4d4d4d"/></svg>