<?xml version="1.0" encoding="UTF-8"?>
<!--svg xmlns="http://www.w3.org/2000/svg" xmlns:xlink="http://www.w3.org/1999/xlink" width="612pt" height="792pt" viewBox="0 0 400 300" version="1.2"-->
<svg xmlns="http://www.w3.org/2000/svg" xmlns:xlink="http://www.w3.org/1999/xlink" width="425pt" height="300pt" viewBox="8 10 425 300" version="1.2">
<g id="surface1">
<rect x="0" y="0" width="612" height="792" style="fill:rgb(100%,100%,100%);fill-opacity:1;stroke:none;"/>
<path style=" stroke:none;fill-rule:evenodd;fill:rgb(90.586853%,95.292664%,94.900513%);fill-opacity:1;" d="M 71.5 28.300781 C 49.898438 28.300781 28.300781 49.898438 28.300781 71.5 L 28.300781 244.300781 C 28.300781 265.898438 49.898438 287.601562 71.5 287.601562 L 366.699219 287.601562 C 388.300781 287.601562 410 265.898438 410 244.300781 L 410 71.5 C 410 49.898438 388.300781 28.300781 366.699219 28.300781 Z M 28.300781 28.300781 Z M 410 287.601562 Z "/>
<path style="fill:none;stroke-width:0.1;stroke-linecap:butt;stroke-linejoin:miter;stroke:rgb(50.195312%,50.195312%,50.195312%);stroke-opacity:1;stroke-miterlimit:10;" d="M 71.5 763.699219 C 49.898438 763.699219 28.300781 742.101562 28.300781 720.5 L 28.300781 547.699219 C 28.300781 526.101562 49.898438 504.398438 71.5 504.398438 L 366.699219 504.398438 C 388.300781 504.398438 410 526.101562 410 547.699219 L 410 720.5 C 410 742.101562 388.300781 763.699219 366.699219 763.699219 Z " transform="matrix(1,0,0,-1,0,792)"/>
<path style="fill:none;stroke-width:0.1;stroke-linecap:butt;stroke-linejoin:miter;stroke:rgb(50.195312%,50.195312%,50.195312%);stroke-opacity:1;stroke-miterlimit:10;" d="M 28.300781 763.699219 Z " transform="matrix(1,0,0,-1,0,792)"/>
<path style="fill:none;stroke-width:0.1;stroke-linecap:butt;stroke-linejoin:miter;stroke:rgb(50.195312%,50.195312%,50.195312%);stroke-opacity:1;stroke-miterlimit:10;" d="M 410 504.398438 Z " transform="matrix(1,0,0,-1,0,792)"/>
<path style=" stroke:none;fill-rule:evenodd;fill:rgb(81.175232%,90.586853%,89.802551%);fill-opacity:1;" d="M 140.199219 88.601562 L 82.898438 122 L 82.300781 53.5 Z M 139.898438 53 Z M 82.898438 122 Z "/>
<path style="fill:none;stroke-width:2.9;stroke-linecap:butt;stroke-linejoin:miter;stroke:rgb(0%,0%,100%);stroke-opacity:1;stroke-miterlimit:10;" d="M 140.199219 703.398438 L 82.898438 670 L 82.300781 738.5 Z " transform="matrix(1,0,0,-1,0,792)"/>
<path style=" stroke:none;fill-rule:evenodd;fill:rgb(81.175232%,90.586853%,89.802551%);fill-opacity:1;" d="M 75.101562 219.101562 L 126.398438 219.101562 L 143.5 238.898438 L 126.398438 258.699219 L 75.101562 258.699219 L 92.199219 238.898438 Z M 75.101562 219.101562 Z M 143.5 258.699219 Z "/>
<path style="fill:none;stroke-width:1.4;stroke-linecap:butt;stroke-linejoin:miter;stroke:rgb(100%,0%,0%);stroke-opacity:1;stroke-miterlimit:10;" d="M 75.101562 572.898438 L 126.398438 572.898438 L 143.5 553.101562 L 126.398438 533.300781 L 75.101562 533.300781 L 92.199219 553.101562 Z " transform="matrix(1,0,0,-1,0,792)"/>
<path style=" stroke:none;fill-rule:evenodd;fill:rgb(81.175232%,90.586853%,89.802551%);fill-opacity:1;" d="M 345.5 165.199219 L 288.101562 198.101562 L 287.5 129.601562 Z M 345.101562 129.101562 Z M 288.101562 198.101562 Z "/>
<path style="fill:none;stroke-width:1.4;stroke-linecap:butt;stroke-linejoin:miter;stroke:rgb(0%,0%,100%);stroke-opacity:1;stroke-miterlimit:10;" d="M 345.5 626.800781 L 288.101562 593.898438 L 287.5 662.398438 Z " transform="matrix(1,0,0,-1,0,792)"/>
<path style="fill:none;stroke-width:1.4;stroke-linecap:butt;stroke-linejoin:miter;stroke:rgb(0%,0%,0%);stroke-opacity:1;stroke-miterlimit:10;" d="M 140.199219 704.800781 L 247.601562 704.800781 L 247.601562 662.398438 L 272.101562 662.398438 " transform="matrix(1,0,0,-1,0,792)"/>
<path style=" stroke:none;fill-rule:evenodd;fill:rgb(0%,0%,0%);fill-opacity:1;" d="M 287.5 129.601562 L 271.398438 124.199219 L 271.398438 135 Z "/>
<path style="fill:none;stroke-width:1.4;stroke-linecap:butt;stroke-linejoin:miter;stroke:rgb(0%,0%,0%);stroke-opacity:1;stroke-miterlimit:10;" d="M 143.5 553.101562 L 223.101562 553.101562 L 223.101562 596.300781 L 272.199219 596.300781 " transform="matrix(1,0,0,-1,0,792)"/>
<path style=" stroke:none;fill-rule:evenodd;fill:rgb(0%,0%,0%);fill-opacity:1;" d="M 287.601562 195.699219 L 271.398438 190.300781 L 271.398438 201.101562 Z "/>
<path style="fill:none;stroke-width:1.4;stroke-linecap:butt;stroke-linejoin:miter;stroke:rgb(0%,0%,0%);stroke-opacity:1;stroke-miterlimit:10;" d="M 345.101562 626.898438 L 378.300781 626.898438 " transform="matrix(1,0,0,-1,0,792)"/>
<path style=" stroke:none;fill-rule:evenodd;fill:rgb(0%,0%,0%);fill-opacity:1;" d="M 377.699219 164.199219 L 377.898438 163.199219 L 378.398438 162.199219 L 379.101562 161.300781 L 380 160.601562 L 381 160.199219 L 382 159.898438 L 383 159.800781 L 383.898438 159.898438 L 384.898438 160.199219 L 385.898438 160.601562 L 386.800781 161.300781 L 387.5 162.199219 L 387.898438 163.199219 L 388.300781 164.199219 L 388.300781 166.101562 L 387.898438 167.199219 L 387.5 168.101562 L 386.800781 169 L 385.898438 169.699219 L 384.898438 170.101562 L 383.898438 170.398438 L 383 170.601562 L 382 170.398438 L 381 170.101562 L 380 169.699219 L 379.101562 169 L 378.398438 168.101562 L 377.898438 167.199219 L 377.699219 166.101562 L 377.5 165.199219 Z "/>
<path style="fill:none;stroke-width:1.4;stroke-linecap:butt;stroke-linejoin:miter;stroke:rgb(0%,0%,0%);stroke-opacity:1;stroke-miterlimit:10;" d="M 54.601562 727.699219 L 68.601562 727.699219 " transform="matrix(1,0,0,-1,0,792)"/>
<path style=" stroke:none;fill-rule:evenodd;fill:rgb(0%,0%,0%);fill-opacity:1;" d="M 55.199219 65.300781 L 54.898438 66.300781 L 54.398438 67.300781 L 53.699219 68.199219 L 52.800781 68.898438 L 51.800781 69.300781 L 50.898438 69.601562 L 49.898438 69.800781 L 48.898438 69.601562 L 47.898438 69.300781 L 46.898438 68.898438 L 46.101562 68.199219 L 45.398438 67.300781 L 44.898438 66.300781 L 44.601562 65.300781 L 44.5 64.300781 L 44.601562 63.398438 L 44.898438 62.300781 L 45.398438 61.398438 L 46.101562 60.5 L 46.898438 59.800781 L 47.898438 59.398438 L 48.898438 59.101562 L 49.898438 59 L 50.898438 59.101562 L 51.800781 59.398438 L 52.800781 59.800781 L 53.699219 60.5 L 54.398438 61.398438 L 54.898438 62.300781 L 55.199219 63.398438 L 55.300781 64.300781 Z "/>
<path style=" stroke:none;fill-rule:evenodd;fill:rgb(0%,0%,0%);fill-opacity:1;" d="M 84.101562 64.300781 L 67.898438 59 L 67.898438 69.800781 Z "/>
<path style="fill:none;stroke-width:1.4;stroke-linecap:butt;stroke-linejoin:miter;stroke:rgb(0%,0%,0%);stroke-opacity:1;stroke-miterlimit:10;" d="M 52.800781 680.898438 L 66.898438 680.898438 " transform="matrix(1,0,0,-1,0,792)"/>
<path style=" stroke:none;fill-rule:evenodd;fill:rgb(0%,0%,0%);fill-opacity:1;" d="M 53.398438 112.101562 L 53.101562 113.101562 L 52.699219 114.101562 L 52 115 L 51.101562 115.699219 L 50.101562 116.101562 L 49.101562 116.398438 L 48.101562 116.601562 L 47.199219 116.398438 L 46.101562 116.101562 L 45.199219 115.699219 L 44.300781 115 L 43.601562 114.101562 L 43.101562 113.101562 L 42.800781 112.101562 L 42.699219 111.101562 L 42.800781 110.199219 L 43.101562 109.101562 L 43.601562 108.199219 L 44.300781 107.300781 L 45.199219 106.601562 L 46.101562 106.199219 L 47.199219 105.898438 L 48.101562 105.800781 L 49.101562 105.898438 L 50.101562 106.199219 L 51.101562 106.601562 L 52 107.300781 L 52.699219 108.199219 L 53.101562 109.101562 L 53.398438 110.199219 L 53.5 111.101562 Z "/>
<path style=" stroke:none;fill-rule:evenodd;fill:rgb(0%,0%,0%);fill-opacity:1;" d="M 82.300781 111.101562 L 66.199219 105.800781 L 66.199219 116.601562 Z "/>
</g>
</svg>
