<?xml version="1.0" encoding="UTF-8" standalone="no"?>
<!-- Creator: fig2dev Version 3.2.8a -->
<!-- CreationDate: 2021-04-21 17:04:49 -->
<!-- Magnification: 1.05 -->
<svg	xmlns="http://www.w3.org/2000/svg"
	xmlns:xlink="http://www.w3.org/1999/xlink"
	width="19pt" height="22pt"
	viewBox="1068 1113 294 339">
<g fill="none">
<!-- Line -->
<rect x="1080" y="1125" width="270" height="315"
	stroke="#000000" stroke-width="8px"/>
<!-- Line -->
<polyline points=" 1125,1305 1125,1304 1126,1299 1128,1289 1132,1273 1136,1254 1141,1235 1147,1216
 1154,1198 1161,1182 1170,1170 1176,1166 1180,1164 1184,1163 1187,1164 1190,1165
 1191,1166 1192,1168 1193,1170 1193,1172 1194,1175 1195,1179 1198,1183 1201,1189
 1205,1196 1209,1205 1215,1215 1224,1234 1230,1252 1234,1267 1236,1279 1237,1290
 1238,1301 1240,1312 1244,1325 1251,1338 1260,1350 1267,1355 1272,1357 1277,1356
 1280,1355 1282,1352 1284,1349 1285,1346 1286,1343 1287,1339 1290,1334 1293,1329
 1297,1322 1303,1314 1309,1305 1320,1288 1328,1271 1335,1256 1341,1242 1345,1229
 1348,1220 1350,1216 1350,1215"
	stroke="#0000ff" stroke-width="8px" stroke-linejoin="bevel"/>
<!-- Line -->
<polyline points=" 1125,1350 1125,1351 1127,1355 1131,1363 1136,1374 1143,1384 1150,1392 1159,1397
 1170,1395 1179,1389 1185,1381 1189,1375 1191,1369 1193,1365 1194,1360 1196,1353
 1200,1342 1206,1326 1215,1305 1224,1283 1230,1263 1234,1248 1236,1236 1238,1226
 1239,1217 1241,1207 1245,1195 1251,1182 1260,1170 1266,1166 1270,1164 1274,1163
 1278,1164 1280,1165 1281,1166 1282,1168 1283,1170 1284,1173 1285,1176 1286,1179
 1289,1184 1292,1189 1295,1196 1300,1205 1305,1215 1313,1234 1319,1252 1325,1271
 1330,1288 1334,1305 1337,1321 1339,1333 1341,1342 1342,1345 1342,1346"
	stroke="#ff0000" stroke-width="8px" stroke-linejoin="bevel"/>
</g>
</svg>
