<?xml version="1.0" encoding="UTF-8"?>
<svg xmlns="http://www.w3.org/2000/svg" xmlns:xlink="http://www.w3.org/1999/xlink" width="145pt" height="130pt" viewBox="40 27 140 139" version="1.2">
<defs>
<clipPath id="clip1">
  <path d="M 0 0.101562 L 595 0.101562 L 595 841.898438 L 0 841.898438 Z "/>
</clipPath>
<clipPath id="clip2">
  <path d="M 45.300781 68.101562 L 49 68.101562 L 49 158.800781 L 45.300781 158.800781 Z "/>
</clipPath>
<clipPath id="clip3">
  <path d="M 48 68.101562 L 49 68.101562 L 49 158.800781 L 48 158.800781 Z "/>
</clipPath>
<clipPath id="clip4">
  <path d="M 48 68.101562 L 50 68.101562 L 50 158.800781 L 48 158.800781 Z "/>
</clipPath>
<clipPath id="clip5">
  <path d="M 49 68.101562 L 50 68.101562 L 50 158.800781 L 49 158.800781 Z "/>
</clipPath>
<clipPath id="clip6">
  <path d="M 49 68.101562 L 51 68.101562 L 51 158.800781 L 49 158.800781 Z "/>
</clipPath>
<clipPath id="clip7">
  <path d="M 50 68.101562 L 51 68.101562 L 51 158.800781 L 50 158.800781 Z "/>
</clipPath>
<clipPath id="clip8">
  <path d="M 50 68.101562 L 52 68.101562 L 52 158.800781 L 50 158.800781 Z "/>
</clipPath>
<clipPath id="clip9">
  <path d="M 51 68.101562 L 52 68.101562 L 52 158.800781 L 51 158.800781 Z "/>
</clipPath>
<clipPath id="clip10">
  <path d="M 51 68.101562 L 53 68.101562 L 53 158.800781 L 51 158.800781 Z "/>
</clipPath>
<clipPath id="clip11">
  <path d="M 52 68.101562 L 53 68.101562 L 53 158.800781 L 52 158.800781 Z "/>
</clipPath>
<clipPath id="clip12">
  <path d="M 52 68.101562 L 54 68.101562 L 54 158.800781 L 52 158.800781 Z "/>
</clipPath>
<clipPath id="clip13">
  <path d="M 53 68.101562 L 54 68.101562 L 54 158.800781 L 53 158.800781 Z "/>
</clipPath>
<clipPath id="clip14">
  <path d="M 53 68.101562 L 55 68.101562 L 55 158.800781 L 53 158.800781 Z "/>
</clipPath>
<clipPath id="clip15">
  <path d="M 54 68.101562 L 55 68.101562 L 55 158.800781 L 54 158.800781 Z "/>
</clipPath>
<clipPath id="clip16">
  <path d="M 54 68.101562 L 56 68.101562 L 56 158.800781 L 54 158.800781 Z "/>
</clipPath>
<clipPath id="clip17">
  <path d="M 55 68.101562 L 56 68.101562 L 56 158.800781 L 55 158.800781 Z "/>
</clipPath>
<clipPath id="clip18">
  <path d="M 55 68.101562 L 57 68.101562 L 57 158.800781 L 55 158.800781 Z "/>
</clipPath>
<clipPath id="clip19">
  <path d="M 56 68.101562 L 57 68.101562 L 57 158.800781 L 56 158.800781 Z "/>
</clipPath>
<clipPath id="clip20">
  <path d="M 56 68.101562 L 58 68.101562 L 58 158.800781 L 56 158.800781 Z "/>
</clipPath>
<clipPath id="clip21">
  <path d="M 57 68.101562 L 58 68.101562 L 58 158.800781 L 57 158.800781 Z "/>
</clipPath>
<clipPath id="clip22">
  <path d="M 57 68.101562 L 59 68.101562 L 59 158.800781 L 57 158.800781 Z "/>
</clipPath>
<clipPath id="clip23">
  <path d="M 58 68.101562 L 59 68.101562 L 59 158.800781 L 58 158.800781 Z "/>
</clipPath>
<clipPath id="clip24">
  <path d="M 58 68.101562 L 60 68.101562 L 60 158.800781 L 58 158.800781 Z "/>
</clipPath>
<clipPath id="clip25">
  <path d="M 59 68.101562 L 60 68.101562 L 60 158.800781 L 59 158.800781 Z "/>
</clipPath>
<clipPath id="clip26">
  <path d="M 59 68.101562 L 61 68.101562 L 61 158.800781 L 59 158.800781 Z "/>
</clipPath>
<clipPath id="clip27">
  <path d="M 60 68.101562 L 61 68.101562 L 61 158.800781 L 60 158.800781 Z "/>
</clipPath>
<clipPath id="clip28">
  <path d="M 60 68.101562 L 62 68.101562 L 62 158.800781 L 60 158.800781 Z "/>
</clipPath>
<clipPath id="clip29">
  <path d="M 61 68.101562 L 62 68.101562 L 62 158.800781 L 61 158.800781 Z "/>
</clipPath>
<clipPath id="clip30">
  <path d="M 61 68.101562 L 63 68.101562 L 63 158.800781 L 61 158.800781 Z "/>
</clipPath>
<clipPath id="clip31">
  <path d="M 62 68.101562 L 63 68.101562 L 63 158.800781 L 62 158.800781 Z "/>
</clipPath>
<clipPath id="clip32">
  <path d="M 62 68.101562 L 65.101562 68.101562 L 65.101562 158.800781 L 62 158.800781 Z "/>
</clipPath>
<clipPath id="clip33">
  <path d="M 79.300781 68.101562 L 83 68.101562 L 83 158.800781 L 79.300781 158.800781 Z "/>
</clipPath>
<clipPath id="clip34">
  <path d="M 82 68.101562 L 83 68.101562 L 83 158.800781 L 82 158.800781 Z "/>
</clipPath>
<clipPath id="clip35">
  <path d="M 82 68.101562 L 84 68.101562 L 84 158.800781 L 82 158.800781 Z "/>
</clipPath>
<clipPath id="clip36">
  <path d="M 83 68.101562 L 84 68.101562 L 84 158.800781 L 83 158.800781 Z "/>
</clipPath>
<clipPath id="clip37">
  <path d="M 83 68.101562 L 85 68.101562 L 85 158.800781 L 83 158.800781 Z "/>
</clipPath>
<clipPath id="clip38">
  <path d="M 84 68.101562 L 85 68.101562 L 85 158.800781 L 84 158.800781 Z "/>
</clipPath>
<clipPath id="clip39">
  <path d="M 84 68.101562 L 86 68.101562 L 86 158.800781 L 84 158.800781 Z "/>
</clipPath>
<clipPath id="clip40">
  <path d="M 85 68.101562 L 86 68.101562 L 86 158.800781 L 85 158.800781 Z "/>
</clipPath>
<clipPath id="clip41">
  <path d="M 85 68.101562 L 87 68.101562 L 87 158.800781 L 85 158.800781 Z "/>
</clipPath>
<clipPath id="clip42">
  <path d="M 86 68.101562 L 87 68.101562 L 87 158.800781 L 86 158.800781 Z "/>
</clipPath>
<clipPath id="clip43">
  <path d="M 86 68.101562 L 88 68.101562 L 88 158.800781 L 86 158.800781 Z "/>
</clipPath>
<clipPath id="clip44">
  <path d="M 87 68.101562 L 88 68.101562 L 88 158.800781 L 87 158.800781 Z "/>
</clipPath>
<clipPath id="clip45">
  <path d="M 87 68.101562 L 89 68.101562 L 89 158.800781 L 87 158.800781 Z "/>
</clipPath>
<clipPath id="clip46">
  <path d="M 88 68.101562 L 89 68.101562 L 89 158.800781 L 88 158.800781 Z "/>
</clipPath>
<clipPath id="clip47">
  <path d="M 88 68.101562 L 90 68.101562 L 90 158.800781 L 88 158.800781 Z "/>
</clipPath>
<clipPath id="clip48">
  <path d="M 89 68.101562 L 90 68.101562 L 90 158.800781 L 89 158.800781 Z "/>
</clipPath>
<clipPath id="clip49">
  <path d="M 89 68.101562 L 91 68.101562 L 91 158.800781 L 89 158.800781 Z "/>
</clipPath>
<clipPath id="clip50">
  <path d="M 90 68.101562 L 91 68.101562 L 91 158.800781 L 90 158.800781 Z "/>
</clipPath>
<clipPath id="clip51">
  <path d="M 90 68.101562 L 92 68.101562 L 92 158.800781 L 90 158.800781 Z "/>
</clipPath>
<clipPath id="clip52">
  <path d="M 91 68.101562 L 92 68.101562 L 92 158.800781 L 91 158.800781 Z "/>
</clipPath>
<clipPath id="clip53">
  <path d="M 91 68.101562 L 93 68.101562 L 93 158.800781 L 91 158.800781 Z "/>
</clipPath>
<clipPath id="clip54">
  <path d="M 92 68.101562 L 93 68.101562 L 93 158.800781 L 92 158.800781 Z "/>
</clipPath>
<clipPath id="clip55">
  <path d="M 92 68.101562 L 94 68.101562 L 94 158.800781 L 92 158.800781 Z "/>
</clipPath>
<clipPath id="clip56">
  <path d="M 93 68.101562 L 94 68.101562 L 94 158.800781 L 93 158.800781 Z "/>
</clipPath>
<clipPath id="clip57">
  <path d="M 93 68.101562 L 95 68.101562 L 95 158.800781 L 93 158.800781 Z "/>
</clipPath>
<clipPath id="clip58">
  <path d="M 94 68.101562 L 95 68.101562 L 95 158.800781 L 94 158.800781 Z "/>
</clipPath>
<clipPath id="clip59">
  <path d="M 94 68.101562 L 96 68.101562 L 96 158.800781 L 94 158.800781 Z "/>
</clipPath>
<clipPath id="clip60">
  <path d="M 95 68.101562 L 96 68.101562 L 96 158.800781 L 95 158.800781 Z "/>
</clipPath>
<clipPath id="clip61">
  <path d="M 95 68.101562 L 97 68.101562 L 97 158.800781 L 95 158.800781 Z "/>
</clipPath>
<clipPath id="clip62">
  <path d="M 96 68.101562 L 97 68.101562 L 97 158.800781 L 96 158.800781 Z "/>
</clipPath>
<clipPath id="clip63">
  <path d="M 96 68.101562 L 99.101562 68.101562 L 99.101562 158.800781 L 96 158.800781 Z "/>
</clipPath>
<clipPath id="clip64">
  <path d="M 113.300781 68.101562 L 117 68.101562 L 117 158.800781 L 113.300781 158.800781 Z "/>
</clipPath>
<clipPath id="clip65">
  <path d="M 116 68.101562 L 117 68.101562 L 117 158.800781 L 116 158.800781 Z "/>
</clipPath>
<clipPath id="clip66">
  <path d="M 116 68.101562 L 118 68.101562 L 118 158.800781 L 116 158.800781 Z "/>
</clipPath>
<clipPath id="clip67">
  <path d="M 117 68.101562 L 118 68.101562 L 118 158.800781 L 117 158.800781 Z "/>
</clipPath>
<clipPath id="clip68">
  <path d="M 117 68.101562 L 119 68.101562 L 119 158.800781 L 117 158.800781 Z "/>
</clipPath>
<clipPath id="clip69">
  <path d="M 118 68.101562 L 119 68.101562 L 119 158.800781 L 118 158.800781 Z "/>
</clipPath>
<clipPath id="clip70">
  <path d="M 118 68.101562 L 120 68.101562 L 120 158.800781 L 118 158.800781 Z "/>
</clipPath>
<clipPath id="clip71">
  <path d="M 119 68.101562 L 120 68.101562 L 120 158.800781 L 119 158.800781 Z "/>
</clipPath>
<clipPath id="clip72">
  <path d="M 119 68.101562 L 121 68.101562 L 121 158.800781 L 119 158.800781 Z "/>
</clipPath>
<clipPath id="clip73">
  <path d="M 120 68.101562 L 121 68.101562 L 121 158.800781 L 120 158.800781 Z "/>
</clipPath>
<clipPath id="clip74">
  <path d="M 120 68.101562 L 122 68.101562 L 122 158.800781 L 120 158.800781 Z "/>
</clipPath>
<clipPath id="clip75">
  <path d="M 121 68.101562 L 122 68.101562 L 122 158.800781 L 121 158.800781 Z "/>
</clipPath>
<clipPath id="clip76">
  <path d="M 121 68.101562 L 123 68.101562 L 123 158.800781 L 121 158.800781 Z "/>
</clipPath>
<clipPath id="clip77">
  <path d="M 122 68.101562 L 123 68.101562 L 123 158.800781 L 122 158.800781 Z "/>
</clipPath>
<clipPath id="clip78">
  <path d="M 122 68.101562 L 124 68.101562 L 124 158.800781 L 122 158.800781 Z "/>
</clipPath>
<clipPath id="clip79">
  <path d="M 123 68.101562 L 124 68.101562 L 124 158.800781 L 123 158.800781 Z "/>
</clipPath>
<clipPath id="clip80">
  <path d="M 123 68.101562 L 125 68.101562 L 125 158.800781 L 123 158.800781 Z "/>
</clipPath>
<clipPath id="clip81">
  <path d="M 124 68.101562 L 125 68.101562 L 125 158.800781 L 124 158.800781 Z "/>
</clipPath>
<clipPath id="clip82">
  <path d="M 124 68.101562 L 126 68.101562 L 126 158.800781 L 124 158.800781 Z "/>
</clipPath>
<clipPath id="clip83">
  <path d="M 125 68.101562 L 126 68.101562 L 126 158.800781 L 125 158.800781 Z "/>
</clipPath>
<clipPath id="clip84">
  <path d="M 125 68.101562 L 127 68.101562 L 127 158.800781 L 125 158.800781 Z "/>
</clipPath>
<clipPath id="clip85">
  <path d="M 126 68.101562 L 127 68.101562 L 127 158.800781 L 126 158.800781 Z "/>
</clipPath>
<clipPath id="clip86">
  <path d="M 126 68.101562 L 128 68.101562 L 128 158.800781 L 126 158.800781 Z "/>
</clipPath>
<clipPath id="clip87">
  <path d="M 127 68.101562 L 128 68.101562 L 128 158.800781 L 127 158.800781 Z "/>
</clipPath>
<clipPath id="clip88">
  <path d="M 127 68.101562 L 129 68.101562 L 129 158.800781 L 127 158.800781 Z "/>
</clipPath>
<clipPath id="clip89">
  <path d="M 128 68.101562 L 129 68.101562 L 129 158.800781 L 128 158.800781 Z "/>
</clipPath>
<clipPath id="clip90">
  <path d="M 128 68.101562 L 130 68.101562 L 130 158.800781 L 128 158.800781 Z "/>
</clipPath>
<clipPath id="clip91">
  <path d="M 129 68.101562 L 130 68.101562 L 130 158.800781 L 129 158.800781 Z "/>
</clipPath>
<clipPath id="clip92">
  <path d="M 129 68.101562 L 131 68.101562 L 131 158.800781 L 129 158.800781 Z "/>
</clipPath>
<clipPath id="clip93">
  <path d="M 130 68.101562 L 131 68.101562 L 131 158.800781 L 130 158.800781 Z "/>
</clipPath>
<clipPath id="clip94">
  <path d="M 130 68.101562 L 133.101562 68.101562 L 133.101562 158.800781 L 130 158.800781 Z "/>
</clipPath>
<clipPath id="clip95">
  <path d="M 147.398438 68.101562 L 151 68.101562 L 151 158.800781 L 147.398438 158.800781 Z "/>
</clipPath>
<clipPath id="clip96">
  <path d="M 150 68.101562 L 151 68.101562 L 151 158.800781 L 150 158.800781 Z "/>
</clipPath>
<clipPath id="clip97">
  <path d="M 150 68.101562 L 152 68.101562 L 152 158.800781 L 150 158.800781 Z "/>
</clipPath>
<clipPath id="clip98">
  <path d="M 151 68.101562 L 152 68.101562 L 152 158.800781 L 151 158.800781 Z "/>
</clipPath>
<clipPath id="clip99">
  <path d="M 151 68.101562 L 153 68.101562 L 153 158.800781 L 151 158.800781 Z "/>
</clipPath>
<clipPath id="clip100">
  <path d="M 152 68.101562 L 153 68.101562 L 153 158.800781 L 152 158.800781 Z "/>
</clipPath>
<clipPath id="clip101">
  <path d="M 152 68.101562 L 154 68.101562 L 154 158.800781 L 152 158.800781 Z "/>
</clipPath>
<clipPath id="clip102">
  <path d="M 153 68.101562 L 154 68.101562 L 154 158.800781 L 153 158.800781 Z "/>
</clipPath>
<clipPath id="clip103">
  <path d="M 153 68.101562 L 155 68.101562 L 155 158.800781 L 153 158.800781 Z "/>
</clipPath>
<clipPath id="clip104">
  <path d="M 154 68.101562 L 155 68.101562 L 155 158.800781 L 154 158.800781 Z "/>
</clipPath>
<clipPath id="clip105">
  <path d="M 154 68.101562 L 156 68.101562 L 156 158.800781 L 154 158.800781 Z "/>
</clipPath>
<clipPath id="clip106">
  <path d="M 155 68.101562 L 156 68.101562 L 156 158.800781 L 155 158.800781 Z "/>
</clipPath>
<clipPath id="clip107">
  <path d="M 155 68.101562 L 157 68.101562 L 157 158.800781 L 155 158.800781 Z "/>
</clipPath>
<clipPath id="clip108">
  <path d="M 156 68.101562 L 157 68.101562 L 157 158.800781 L 156 158.800781 Z "/>
</clipPath>
<clipPath id="clip109">
  <path d="M 156 68.101562 L 158 68.101562 L 158 158.800781 L 156 158.800781 Z "/>
</clipPath>
<clipPath id="clip110">
  <path d="M 157 68.101562 L 158 68.101562 L 158 158.800781 L 157 158.800781 Z "/>
</clipPath>
<clipPath id="clip111">
  <path d="M 157 68.101562 L 159 68.101562 L 159 158.800781 L 157 158.800781 Z "/>
</clipPath>
<clipPath id="clip112">
  <path d="M 158 68.101562 L 159 68.101562 L 159 158.800781 L 158 158.800781 Z "/>
</clipPath>
<clipPath id="clip113">
  <path d="M 158 68.101562 L 160 68.101562 L 160 158.800781 L 158 158.800781 Z "/>
</clipPath>
<clipPath id="clip114">
  <path d="M 159 68.101562 L 160 68.101562 L 160 158.800781 L 159 158.800781 Z "/>
</clipPath>
<clipPath id="clip115">
  <path d="M 159 68.101562 L 161 68.101562 L 161 158.800781 L 159 158.800781 Z "/>
</clipPath>
<clipPath id="clip116">
  <path d="M 160 68.101562 L 161 68.101562 L 161 158.800781 L 160 158.800781 Z "/>
</clipPath>
<clipPath id="clip117">
  <path d="M 160 68.101562 L 162 68.101562 L 162 158.800781 L 160 158.800781 Z "/>
</clipPath>
<clipPath id="clip118">
  <path d="M 161 68.101562 L 162 68.101562 L 162 158.800781 L 161 158.800781 Z "/>
</clipPath>
<clipPath id="clip119">
  <path d="M 161 68.101562 L 163 68.101562 L 163 158.800781 L 161 158.800781 Z "/>
</clipPath>
<clipPath id="clip120">
  <path d="M 162 68.101562 L 163 68.101562 L 163 158.800781 L 162 158.800781 Z "/>
</clipPath>
<clipPath id="clip121">
  <path d="M 162 68.101562 L 164 68.101562 L 164 158.800781 L 162 158.800781 Z "/>
</clipPath>
<clipPath id="clip122">
  <path d="M 163 68.101562 L 164 68.101562 L 164 158.800781 L 163 158.800781 Z "/>
</clipPath>
<clipPath id="clip123">
  <path d="M 163 68.101562 L 165 68.101562 L 165 158.800781 L 163 158.800781 Z "/>
</clipPath>
<clipPath id="clip124">
  <path d="M 164 68.101562 L 165 68.101562 L 165 158.800781 L 164 158.800781 Z "/>
</clipPath>
<clipPath id="clip125">
  <path d="M 164 68.101562 L 167.199219 68.101562 L 167.199219 158.800781 L 164 158.800781 Z "/>
</clipPath>
</defs>
<g id="surface1">
<g clip-path="url(#clip1)" clip-rule="nonzero">
<path style=" stroke:none;fill-rule:evenodd;fill:rgb(100%,100%,100%);fill-opacity:0;" d="M 0 0 L 595.199219 0 L 595.199219 841.898438 L 0 841.898438 Z "/>
</g>
<g clip-path="url(#clip2)" clip-rule="nonzero">
<path style=" stroke:none;fill-rule:evenodd;fill:rgb(59.999084%,39.99939%,19.999695%);fill-opacity:1;" d="M 45.101562 158.800781 L 45.300781 67.898438 L 48.199219 67.898438 L 48 158.800781 Z "/>
</g>
<g clip-path="url(#clip3)" clip-rule="nonzero">
<path style=" stroke:none;fill-rule:evenodd;fill:rgb(59.999084%,39.99939%,19.999695%);fill-opacity:1;" d="M 48 158.800781 L 48.199219 67.898438 L 48.398438 67.898438 L 48.300781 158.800781 Z "/>
<path style=" stroke:none;fill-rule:evenodd;fill:rgb(60.783386%,41.958618%,19.606018%);fill-opacity:1;" d="M 48.300781 158.800781 L 48.398438 67.898438 L 48.699219 67.898438 L 48.601562 158.800781 Z "/>
<path style=" stroke:none;fill-rule:evenodd;fill:rgb(61.959839%,44.311523%,18.821716%);fill-opacity:1;" d="M 48.601562 158.800781 L 48.699219 67.898438 L 49 67.898438 L 48.800781 158.800781 Z "/>
</g>
<g clip-path="url(#clip4)" clip-rule="nonzero">
<path style=" stroke:none;fill-rule:evenodd;fill:rgb(63.136292%,46.665955%,18.03894%);fill-opacity:1;" d="M 48.800781 158.800781 L 49 67.898438 L 49.300781 67.898438 L 49.101562 158.800781 Z "/>
</g>
<g clip-path="url(#clip5)" clip-rule="nonzero">
<path style=" stroke:none;fill-rule:evenodd;fill:rgb(64.312744%,49.01886%,17.253113%);fill-opacity:1;" d="M 49.101562 158.800781 L 49.300781 67.898438 L 49.601562 67.898438 L 49.398438 158.800781 Z "/>
<path style=" stroke:none;fill-rule:evenodd;fill:rgb(65.489197%,50.979614%,16.468811%);fill-opacity:1;" d="M 49.398438 158.800781 L 49.601562 67.898438 L 49.898438 67.898438 L 49.699219 158.800781 Z "/>
</g>
<g clip-path="url(#clip6)" clip-rule="nonzero">
<path style=" stroke:none;fill-rule:evenodd;fill:rgb(66.665649%,53.33252%,15.684509%);fill-opacity:1;" d="M 49.699219 158.800781 L 49.898438 67.898438 L 50.101562 67.898438 L 50 158.800781 Z "/>
</g>
<g clip-path="url(#clip7)" clip-rule="nonzero">
<path style=" stroke:none;fill-rule:evenodd;fill:rgb(67.842102%,55.685425%,14.900208%);fill-opacity:1;" d="M 50 158.800781 L 50.101562 67.898438 L 50.398438 67.898438 L 50.300781 158.800781 Z "/>
<path style=" stroke:none;fill-rule:evenodd;fill:rgb(69.018555%,58.03833%,14.115906%);fill-opacity:1;" d="M 50.300781 158.800781 L 50.398438 67.898438 L 50.699219 67.898438 L 50.5 158.800781 Z "/>
<path style=" stroke:none;fill-rule:evenodd;fill:rgb(70.195007%,59.999084%,13.331604%);fill-opacity:1;" d="M 50.5 158.800781 L 50.699219 67.898438 L 51 67.898438 L 50.800781 158.800781 Z "/>
</g>
<g clip-path="url(#clip8)" clip-rule="nonzero">
<path style=" stroke:none;fill-rule:evenodd;fill:rgb(71.37146%,62.35199%,12.548828%);fill-opacity:1;" d="M 50.800781 158.800781 L 51 67.898438 L 51.300781 67.898438 L 51.101562 158.800781 Z "/>
</g>
<g clip-path="url(#clip9)" clip-rule="nonzero">
<path style=" stroke:none;fill-rule:evenodd;fill:rgb(72.155762%,64.704895%,11.763%);fill-opacity:1;" d="M 51.101562 158.800781 L 51.300781 67.898438 L 51.601562 67.898438 L 51.398438 158.800781 Z "/>
<path style=" stroke:none;fill-rule:evenodd;fill:rgb(73.332214%,67.0578%,10.978699%);fill-opacity:1;" d="M 51.398438 158.800781 L 51.601562 67.898438 L 51.800781 67.898438 L 51.699219 158.800781 Z "/>
</g>
<g clip-path="url(#clip10)" clip-rule="nonzero">
<path style=" stroke:none;fill-rule:evenodd;fill:rgb(74.508667%,69.410706%,10.195923%);fill-opacity:1;" d="M 51.699219 158.800781 L 51.800781 67.898438 L 52.101562 67.898438 L 52 158.800781 Z "/>
</g>
<g clip-path="url(#clip11)" clip-rule="nonzero">
<path style=" stroke:none;fill-rule:evenodd;fill:rgb(75.68512%,71.37146%,9.802246%);fill-opacity:1;" d="M 52 158.800781 L 52.101562 67.898438 L 52.398438 67.898438 L 52.199219 158.800781 Z "/>
<path style=" stroke:none;fill-rule:evenodd;fill:rgb(76.861572%,73.724365%,9.017944%);fill-opacity:1;" d="M 52.199219 158.800781 L 52.398438 67.898438 L 52.699219 67.898438 L 52.5 158.800781 Z "/>
<path style=" stroke:none;fill-rule:evenodd;fill:rgb(78.038025%,76.077271%,8.233643%);fill-opacity:1;" d="M 52.5 158.800781 L 52.699219 67.898438 L 53 67.898438 L 52.800781 158.800781 Z "/>
</g>
<g clip-path="url(#clip12)" clip-rule="nonzero">
<path style=" stroke:none;fill-rule:evenodd;fill:rgb(79.214478%,78.430176%,7.449341%);fill-opacity:1;" d="M 52.800781 158.800781 L 53 67.898438 L 53.199219 67.898438 L 53.101562 158.800781 Z "/>
</g>
<g clip-path="url(#clip13)" clip-rule="nonzero">
<path style=" stroke:none;fill-rule:evenodd;fill:rgb(80.39093%,80.39093%,6.665039%);fill-opacity:1;" d="M 53.101562 158.800781 L 53.199219 67.898438 L 53.5 67.898438 L 53.300781 158.800781 Z "/>
<path style=" stroke:none;fill-rule:evenodd;fill:rgb(81.567383%,82.743835%,5.880737%);fill-opacity:1;" d="M 53.300781 158.800781 L 53.5 67.898438 L 53.800781 67.898438 L 53.601562 158.800781 Z "/>
</g>
<g clip-path="url(#clip14)" clip-rule="nonzero">
<path style=" stroke:none;fill-rule:evenodd;fill:rgb(82.743835%,85.096741%,5.097961%);fill-opacity:1;" d="M 53.601562 158.800781 L 53.800781 67.898438 L 54.101562 67.898438 L 53.898438 158.800781 Z "/>
<path style=" stroke:none;fill-rule:evenodd;fill:rgb(83.920288%,87.449646%,4.312134%);fill-opacity:1;" d="M 53.898438 158.800781 L 54.101562 67.898438 L 54.398438 67.898438 L 54.199219 158.800781 Z "/>
</g>
<g clip-path="url(#clip15)" clip-rule="nonzero">
<path style=" stroke:none;fill-rule:evenodd;fill:rgb(84.70459%,89.802551%,3.527832%);fill-opacity:1;" d="M 54.199219 158.800781 L 54.398438 67.898438 L 54.699219 67.898438 L 54.5 158.800781 Z "/>
<path style=" stroke:none;fill-rule:evenodd;fill:rgb(85.881042%,91.763306%,2.74353%);fill-opacity:1;" d="M 54.5 158.800781 L 54.699219 67.898438 L 54.898438 67.898438 L 54.800781 158.800781 Z "/>
</g>
<g clip-path="url(#clip16)" clip-rule="nonzero">
<path style=" stroke:none;fill-rule:evenodd;fill:rgb(87.057495%,94.116211%,1.959229%);fill-opacity:1;" d="M 54.800781 158.800781 L 54.898438 67.898438 L 55.199219 67.898438 L 55 158.800781 Z "/>
</g>
<g clip-path="url(#clip17)" clip-rule="nonzero">
<path style=" stroke:none;fill-rule:evenodd;fill:rgb(88.233948%,96.469116%,1.174927%);fill-opacity:1;" d="M 55 158.800781 L 55.199219 67.898438 L 55.5 67.898438 L 55.300781 158.800781 Z "/>
<path style=" stroke:none;fill-rule:evenodd;fill:rgb(89.4104%,98.03772%,0.390625%);fill-opacity:1;" d="M 55.300781 158.800781 L 55.5 67.898438 L 55.800781 67.898438 L 55.601562 158.800781 Z "/>
</g>
<g clip-path="url(#clip18)" clip-rule="nonzero">
<path style=" stroke:none;fill-rule:evenodd;fill:rgb(88.233948%,95.684814%,1.174927%);fill-opacity:1;" d="M 55.601562 158.800781 L 55.800781 67.898438 L 56.101562 67.898438 L 55.898438 158.800781 Z "/>
<path style=" stroke:none;fill-rule:evenodd;fill:rgb(87.057495%,93.331909%,1.959229%);fill-opacity:1;" d="M 55.898438 158.800781 L 56.101562 67.898438 L 56.398438 67.898438 L 56.199219 158.800781 Z "/>
</g>
<g clip-path="url(#clip19)" clip-rule="nonzero">
<path style=" stroke:none;fill-rule:evenodd;fill:rgb(85.881042%,90.979004%,2.74353%);fill-opacity:1;" d="M 56.199219 158.800781 L 56.398438 67.898438 L 56.601562 67.898438 L 56.5 158.800781 Z "/>
<path style=" stroke:none;fill-rule:evenodd;fill:rgb(84.70459%,89.01825%,3.527832%);fill-opacity:1;" d="M 56.5 158.800781 L 56.601562 67.898438 L 56.898438 67.898438 L 56.699219 158.800781 Z "/>
</g>
<g clip-path="url(#clip20)" clip-rule="nonzero">
<path style=" stroke:none;fill-rule:evenodd;fill:rgb(83.528137%,86.665344%,4.312134%);fill-opacity:1;" d="M 56.699219 158.800781 L 56.898438 67.898438 L 57.199219 67.898438 L 57 158.800781 Z "/>
</g>
<g clip-path="url(#clip21)" clip-rule="nonzero">
<path style=" stroke:none;fill-rule:evenodd;fill:rgb(82.351685%,84.312439%,5.097961%);fill-opacity:1;" d="M 57 158.800781 L 57.199219 67.898438 L 57.5 67.898438 L 57.300781 158.800781 Z "/>
<path style=" stroke:none;fill-rule:evenodd;fill:rgb(81.175232%,81.959534%,5.880737%);fill-opacity:1;" d="M 57.300781 158.800781 L 57.5 67.898438 L 57.800781 67.898438 L 57.601562 158.800781 Z "/>
<path style=" stroke:none;fill-rule:evenodd;fill:rgb(79.998779%,79.998779%,6.665039%);fill-opacity:1;" d="M 57.601562 158.800781 L 57.800781 67.898438 L 58 67.898438 L 57.898438 158.800781 Z "/>
</g>
<g clip-path="url(#clip22)" clip-rule="nonzero">
<path style=" stroke:none;fill-rule:evenodd;fill:rgb(78.822327%,77.645874%,7.449341%);fill-opacity:1;" d="M 57.898438 158.800781 L 58 67.898438 L 58.300781 67.898438 L 58.101562 158.800781 Z "/>
</g>
<g clip-path="url(#clip23)" clip-rule="nonzero">
<path style=" stroke:none;fill-rule:evenodd;fill:rgb(78.038025%,75.292969%,8.233643%);fill-opacity:1;" d="M 58.101562 158.800781 L 58.300781 67.898438 L 58.601562 67.898438 L 58.398438 158.800781 Z "/>
<path style=" stroke:none;fill-rule:evenodd;fill:rgb(76.861572%,72.940063%,9.017944%);fill-opacity:1;" d="M 58.398438 158.800781 L 58.601562 67.898438 L 58.898438 67.898438 L 58.699219 158.800781 Z "/>
</g>
<g clip-path="url(#clip24)" clip-rule="nonzero">
<path style=" stroke:none;fill-rule:evenodd;fill:rgb(75.68512%,70.587158%,9.802246%);fill-opacity:1;" d="M 58.699219 158.800781 L 58.898438 67.898438 L 59.199219 67.898438 L 59 158.800781 Z "/>
</g>
<g clip-path="url(#clip25)" clip-rule="nonzero">
<path style=" stroke:none;fill-rule:evenodd;fill:rgb(74.508667%,68.626404%,10.195923%);fill-opacity:1;" d="M 59 158.800781 L 59.199219 67.898438 L 59.398438 67.898438 L 59.300781 158.800781 Z "/>
<path style=" stroke:none;fill-rule:evenodd;fill:rgb(73.332214%,66.273499%,10.978699%);fill-opacity:1;" d="M 59.300781 158.800781 L 59.398438 67.898438 L 59.699219 67.898438 L 59.601562 158.800781 Z "/>
<path style=" stroke:none;fill-rule:evenodd;fill:rgb(72.155762%,63.920593%,11.763%);fill-opacity:1;" d="M 59.601562 158.800781 L 59.699219 67.898438 L 60 67.898438 L 59.800781 158.800781 Z "/>
</g>
<g clip-path="url(#clip26)" clip-rule="nonzero">
<path style=" stroke:none;fill-rule:evenodd;fill:rgb(70.979309%,61.567688%,12.548828%);fill-opacity:1;" d="M 59.800781 158.800781 L 60 67.898438 L 60.300781 67.898438 L 60.101562 158.800781 Z "/>
</g>
<g clip-path="url(#clip27)" clip-rule="nonzero">
<path style=" stroke:none;fill-rule:evenodd;fill:rgb(69.802856%,59.606934%,13.331604%);fill-opacity:1;" d="M 60.101562 158.800781 L 60.300781 67.898438 L 60.601562 67.898438 L 60.398438 158.800781 Z "/>
<path style=" stroke:none;fill-rule:evenodd;fill:rgb(68.626404%,57.252502%,14.115906%);fill-opacity:1;" d="M 60.398438 158.800781 L 60.601562 67.898438 L 60.898438 67.898438 L 60.699219 158.800781 Z "/>
</g>
<g clip-path="url(#clip28)" clip-rule="nonzero">
<path style=" stroke:none;fill-rule:evenodd;fill:rgb(67.449951%,54.899597%,14.900208%);fill-opacity:1;" d="M 60.699219 158.800781 L 60.898438 67.898438 L 61.101562 67.898438 L 61 158.800781 Z "/>
</g>
<g clip-path="url(#clip29)" clip-rule="nonzero">
<path style=" stroke:none;fill-rule:evenodd;fill:rgb(66.273499%,52.548218%,15.684509%);fill-opacity:1;" d="M 61 158.800781 L 61.101562 67.898438 L 61.398438 67.898438 L 61.300781 158.800781 Z "/>
<path style=" stroke:none;fill-rule:evenodd;fill:rgb(65.489197%,50.195312%,16.468811%);fill-opacity:1;" d="M 61.300781 158.800781 L 61.398438 67.898438 L 61.699219 67.898438 L 61.5 158.800781 Z "/>
<path style=" stroke:none;fill-rule:evenodd;fill:rgb(64.312744%,48.234558%,17.253113%);fill-opacity:1;" d="M 61.5 158.800781 L 61.699219 67.898438 L 62 67.898438 L 61.800781 158.800781 Z "/>
</g>
<g clip-path="url(#clip30)" clip-rule="nonzero">
<path style=" stroke:none;fill-rule:evenodd;fill:rgb(63.136292%,45.881653%,18.03894%);fill-opacity:1;" d="M 61.800781 158.800781 L 62 67.898438 L 62.300781 67.898438 L 62.101562 158.800781 Z "/>
</g>
<g clip-path="url(#clip31)" clip-rule="nonzero">
<path style=" stroke:none;fill-rule:evenodd;fill:rgb(61.959839%,43.528748%,18.821716%);fill-opacity:1;" d="M 62.101562 158.800781 L 62.300781 67.898438 L 62.601562 67.898438 L 62.398438 158.800781 Z "/>
</g>
<g clip-path="url(#clip32)" clip-rule="nonzero">
<path style=" stroke:none;fill-rule:evenodd;fill:rgb(59.999084%,39.99939%,19.999695%);fill-opacity:1;" d="M 62.398438 158.800781 L 62.601562 67.898438 L 65.5 68 L 65.300781 158.898438 Z "/>
</g>
<path style="fill:none;stroke-width:0.12;stroke-linecap:butt;stroke-linejoin:round;stroke:rgb(50.195312%,50.195312%,50.195312%);stroke-opacity:1;stroke-miterlimit:10;" d="M 55.300781 683.300781 L 45.398438 683.300781 L 45.398438 774 L 65.199219 774 L 65.199219 683.300781 Z " transform="matrix(1,0,0,-1,0,842)"/>
<g clip-path="url(#clip33)" clip-rule="nonzero">
<path style=" stroke:none;fill-rule:evenodd;fill:rgb(59.999084%,39.99939%,19.999695%);fill-opacity:1;" d="M 79.101562 158.800781 L 79.300781 67.898438 L 82.199219 67.898438 L 82 158.800781 Z "/>
</g>
<g clip-path="url(#clip34)" clip-rule="nonzero">
<path style=" stroke:none;fill-rule:evenodd;fill:rgb(59.999084%,39.99939%,19.999695%);fill-opacity:1;" d="M 82 158.800781 L 82.199219 67.898438 L 82.5 67.898438 L 82.300781 158.800781 Z "/>
<path style=" stroke:none;fill-rule:evenodd;fill:rgb(60.783386%,41.958618%,19.606018%);fill-opacity:1;" d="M 82.300781 158.800781 L 82.5 67.898438 L 82.699219 67.898438 L 82.601562 158.800781 Z "/>
<path style=" stroke:none;fill-rule:evenodd;fill:rgb(61.959839%,44.311523%,18.821716%);fill-opacity:1;" d="M 82.601562 158.800781 L 82.699219 67.898438 L 83 67.898438 L 82.898438 158.800781 Z "/>
</g>
<g clip-path="url(#clip35)" clip-rule="nonzero">
<path style=" stroke:none;fill-rule:evenodd;fill:rgb(63.136292%,46.665955%,18.03894%);fill-opacity:1;" d="M 82.898438 158.800781 L 83 67.898438 L 83.300781 67.898438 L 83.101562 158.800781 Z "/>
</g>
<g clip-path="url(#clip36)" clip-rule="nonzero">
<path style=" stroke:none;fill-rule:evenodd;fill:rgb(64.312744%,49.01886%,17.253113%);fill-opacity:1;" d="M 83.101562 158.800781 L 83.300781 67.898438 L 83.601562 67.898438 L 83.398438 158.800781 Z "/>
<path style=" stroke:none;fill-rule:evenodd;fill:rgb(65.489197%,50.979614%,16.468811%);fill-opacity:1;" d="M 83.398438 158.800781 L 83.601562 67.898438 L 83.898438 67.898438 L 83.699219 158.800781 Z "/>
</g>
<g clip-path="url(#clip37)" clip-rule="nonzero">
<path style=" stroke:none;fill-rule:evenodd;fill:rgb(66.665649%,53.33252%,15.684509%);fill-opacity:1;" d="M 83.699219 158.800781 L 83.898438 67.898438 L 84.199219 67.898438 L 84 158.800781 Z "/>
</g>
<g clip-path="url(#clip38)" clip-rule="nonzero">
<path style=" stroke:none;fill-rule:evenodd;fill:rgb(67.842102%,55.685425%,14.900208%);fill-opacity:1;" d="M 84 158.800781 L 84.199219 67.898438 L 84.398438 67.898438 L 84.300781 158.800781 Z "/>
<path style=" stroke:none;fill-rule:evenodd;fill:rgb(69.018555%,58.03833%,14.115906%);fill-opacity:1;" d="M 84.300781 158.800781 L 84.398438 67.898438 L 84.699219 67.898438 L 84.601562 158.800781 Z "/>
<path style=" stroke:none;fill-rule:evenodd;fill:rgb(70.195007%,59.999084%,13.331604%);fill-opacity:1;" d="M 84.601562 158.800781 L 84.699219 67.898438 L 85 67.898438 L 84.800781 158.800781 Z "/>
</g>
<g clip-path="url(#clip39)" clip-rule="nonzero">
<path style=" stroke:none;fill-rule:evenodd;fill:rgb(71.37146%,62.35199%,12.548828%);fill-opacity:1;" d="M 84.800781 158.800781 L 85 67.898438 L 85.300781 67.898438 L 85.101562 158.800781 Z "/>
</g>
<g clip-path="url(#clip40)" clip-rule="nonzero">
<path style=" stroke:none;fill-rule:evenodd;fill:rgb(72.155762%,64.704895%,11.763%);fill-opacity:1;" d="M 85.101562 158.800781 L 85.300781 67.898438 L 85.601562 67.898438 L 85.398438 158.800781 Z "/>
<path style=" stroke:none;fill-rule:evenodd;fill:rgb(73.332214%,67.0578%,10.978699%);fill-opacity:1;" d="M 85.398438 158.800781 L 85.601562 67.898438 L 85.898438 67.898438 L 85.699219 158.800781 Z "/>
</g>
<g clip-path="url(#clip41)" clip-rule="nonzero">
<path style=" stroke:none;fill-rule:evenodd;fill:rgb(74.508667%,69.410706%,10.195923%);fill-opacity:1;" d="M 85.699219 158.800781 L 85.898438 67.898438 L 86.101562 67.898438 L 86 158.800781 Z "/>
</g>
<g clip-path="url(#clip42)" clip-rule="nonzero">
<path style=" stroke:none;fill-rule:evenodd;fill:rgb(75.68512%,71.37146%,9.802246%);fill-opacity:1;" d="M 86 158.800781 L 86.101562 67.898438 L 86.398438 67.898438 L 86.300781 158.800781 Z "/>
<path style=" stroke:none;fill-rule:evenodd;fill:rgb(76.861572%,73.724365%,9.017944%);fill-opacity:1;" d="M 86.300781 158.800781 L 86.398438 67.898438 L 86.699219 67.898438 L 86.5 158.800781 Z "/>
<path style=" stroke:none;fill-rule:evenodd;fill:rgb(78.038025%,76.077271%,8.233643%);fill-opacity:1;" d="M 86.5 158.800781 L 86.699219 67.898438 L 87 67.898438 L 86.800781 158.800781 Z "/>
</g>
<g clip-path="url(#clip43)" clip-rule="nonzero">
<path style=" stroke:none;fill-rule:evenodd;fill:rgb(79.214478%,78.430176%,7.449341%);fill-opacity:1;" d="M 86.800781 158.800781 L 87 67.898438 L 87.300781 67.898438 L 87.101562 158.800781 Z "/>
</g>
<g clip-path="url(#clip44)" clip-rule="nonzero">
<path style=" stroke:none;fill-rule:evenodd;fill:rgb(80.39093%,80.39093%,6.665039%);fill-opacity:1;" d="M 87.101562 158.800781 L 87.300781 67.898438 L 87.5 67.898438 L 87.398438 158.800781 Z "/>
<path style=" stroke:none;fill-rule:evenodd;fill:rgb(81.567383%,82.743835%,5.880737%);fill-opacity:1;" d="M 87.398438 158.800781 L 87.5 67.898438 L 87.800781 67.898438 L 87.601562 158.800781 Z "/>
</g>
<g clip-path="url(#clip45)" clip-rule="nonzero">
<path style=" stroke:none;fill-rule:evenodd;fill:rgb(82.743835%,85.096741%,5.097961%);fill-opacity:1;" d="M 87.601562 158.800781 L 87.800781 67.898438 L 88.101562 67.898438 L 87.898438 158.800781 Z "/>
<path style=" stroke:none;fill-rule:evenodd;fill:rgb(83.920288%,87.449646%,4.312134%);fill-opacity:1;" d="M 87.898438 158.800781 L 88.101562 67.898438 L 88.398438 67.898438 L 88.199219 158.800781 Z "/>
</g>
<g clip-path="url(#clip46)" clip-rule="nonzero">
<path style=" stroke:none;fill-rule:evenodd;fill:rgb(84.70459%,89.802551%,3.527832%);fill-opacity:1;" d="M 88.199219 158.800781 L 88.398438 67.898438 L 88.699219 67.898438 L 88.5 158.800781 Z "/>
<path style=" stroke:none;fill-rule:evenodd;fill:rgb(85.881042%,91.763306%,2.74353%);fill-opacity:1;" d="M 88.5 158.800781 L 88.699219 67.898438 L 89 67.898438 L 88.800781 158.800781 Z "/>
</g>
<g clip-path="url(#clip47)" clip-rule="nonzero">
<path style=" stroke:none;fill-rule:evenodd;fill:rgb(87.057495%,94.116211%,1.959229%);fill-opacity:1;" d="M 88.800781 158.800781 L 89 67.898438 L 89.199219 67.898438 L 89.101562 158.800781 Z "/>
</g>
<g clip-path="url(#clip48)" clip-rule="nonzero">
<path style=" stroke:none;fill-rule:evenodd;fill:rgb(88.233948%,96.469116%,1.174927%);fill-opacity:1;" d="M 89.101562 158.800781 L 89.199219 67.898438 L 89.5 67.898438 L 89.300781 158.800781 Z "/>
<path style=" stroke:none;fill-rule:evenodd;fill:rgb(89.4104%,98.03772%,0.390625%);fill-opacity:1;" d="M 89.300781 158.800781 L 89.5 67.898438 L 89.800781 67.898438 L 89.601562 158.800781 Z "/>
</g>
<g clip-path="url(#clip49)" clip-rule="nonzero">
<path style=" stroke:none;fill-rule:evenodd;fill:rgb(88.233948%,95.684814%,1.174927%);fill-opacity:1;" d="M 89.601562 158.800781 L 89.800781 67.898438 L 90.101562 67.898438 L 89.898438 158.800781 Z "/>
<path style=" stroke:none;fill-rule:evenodd;fill:rgb(87.057495%,93.331909%,1.959229%);fill-opacity:1;" d="M 89.898438 158.800781 L 90.101562 67.898438 L 90.398438 67.898438 L 90.199219 158.800781 Z "/>
</g>
<g clip-path="url(#clip50)" clip-rule="nonzero">
<path style=" stroke:none;fill-rule:evenodd;fill:rgb(85.881042%,90.979004%,2.74353%);fill-opacity:1;" d="M 90.199219 158.800781 L 90.398438 67.898438 L 90.699219 67.898438 L 90.5 158.800781 Z "/>
<path style=" stroke:none;fill-rule:evenodd;fill:rgb(84.70459%,89.01825%,3.527832%);fill-opacity:1;" d="M 90.5 158.800781 L 90.699219 67.898438 L 90.898438 67.898438 L 90.800781 158.800781 Z "/>
</g>
<g clip-path="url(#clip51)" clip-rule="nonzero">
<path style=" stroke:none;fill-rule:evenodd;fill:rgb(83.528137%,86.665344%,4.312134%);fill-opacity:1;" d="M 90.800781 158.800781 L 90.898438 67.898438 L 91.199219 67.898438 L 91 158.800781 Z "/>
</g>
<g clip-path="url(#clip52)" clip-rule="nonzero">
<path style=" stroke:none;fill-rule:evenodd;fill:rgb(82.351685%,84.312439%,5.097961%);fill-opacity:1;" d="M 91 158.800781 L 91.199219 67.898438 L 91.5 67.898438 L 91.300781 158.800781 Z "/>
<path style=" stroke:none;fill-rule:evenodd;fill:rgb(81.175232%,81.959534%,5.880737%);fill-opacity:1;" d="M 91.300781 158.800781 L 91.5 67.898438 L 91.800781 67.898438 L 91.601562 158.800781 Z "/>
<path style=" stroke:none;fill-rule:evenodd;fill:rgb(79.998779%,79.998779%,6.665039%);fill-opacity:1;" d="M 91.601562 158.800781 L 91.800781 67.898438 L 92 67.898438 L 91.898438 158.800781 Z "/>
</g>
<g clip-path="url(#clip53)" clip-rule="nonzero">
<path style=" stroke:none;fill-rule:evenodd;fill:rgb(78.822327%,77.645874%,7.449341%);fill-opacity:1;" d="M 91.898438 158.800781 L 92 67.898438 L 92.300781 67.898438 L 92.199219 158.800781 Z "/>
</g>
<g clip-path="url(#clip54)" clip-rule="nonzero">
<path style=" stroke:none;fill-rule:evenodd;fill:rgb(78.038025%,75.292969%,8.233643%);fill-opacity:1;" d="M 92.199219 158.800781 L 92.300781 67.898438 L 92.601562 67.898438 L 92.398438 158.800781 Z "/>
<path style=" stroke:none;fill-rule:evenodd;fill:rgb(76.861572%,72.940063%,9.017944%);fill-opacity:1;" d="M 92.398438 158.800781 L 92.601562 67.898438 L 92.898438 67.898438 L 92.699219 158.800781 Z "/>
</g>
<g clip-path="url(#clip55)" clip-rule="nonzero">
<path style=" stroke:none;fill-rule:evenodd;fill:rgb(75.68512%,70.587158%,9.802246%);fill-opacity:1;" d="M 92.699219 158.800781 L 92.898438 67.898438 L 93.199219 67.898438 L 93 158.800781 Z "/>
</g>
<g clip-path="url(#clip56)" clip-rule="nonzero">
<path style=" stroke:none;fill-rule:evenodd;fill:rgb(74.508667%,68.626404%,10.195923%);fill-opacity:1;" d="M 93 158.800781 L 93.199219 67.898438 L 93.5 67.898438 L 93.300781 158.800781 Z "/>
<path style=" stroke:none;fill-rule:evenodd;fill:rgb(73.332214%,66.273499%,10.978699%);fill-opacity:1;" d="M 93.300781 158.800781 L 93.5 67.898438 L 93.699219 67.898438 L 93.601562 158.800781 Z "/>
<path style=" stroke:none;fill-rule:evenodd;fill:rgb(72.155762%,63.920593%,11.763%);fill-opacity:1;" d="M 93.601562 158.800781 L 93.699219 67.898438 L 94 67.898438 L 93.898438 158.800781 Z "/>
</g>
<g clip-path="url(#clip57)" clip-rule="nonzero">
<path style=" stroke:none;fill-rule:evenodd;fill:rgb(70.979309%,61.567688%,12.548828%);fill-opacity:1;" d="M 93.898438 158.800781 L 94 67.898438 L 94.300781 67.898438 L 94.101562 158.800781 Z "/>
</g>
<g clip-path="url(#clip58)" clip-rule="nonzero">
<path style=" stroke:none;fill-rule:evenodd;fill:rgb(69.802856%,59.606934%,13.331604%);fill-opacity:1;" d="M 94.101562 158.800781 L 94.300781 67.898438 L 94.601562 67.898438 L 94.398438 158.800781 Z "/>
<path style=" stroke:none;fill-rule:evenodd;fill:rgb(68.626404%,57.252502%,14.115906%);fill-opacity:1;" d="M 94.398438 158.800781 L 94.601562 67.898438 L 94.898438 67.898438 L 94.699219 158.800781 Z "/>
</g>
<g clip-path="url(#clip59)" clip-rule="nonzero">
<path style=" stroke:none;fill-rule:evenodd;fill:rgb(67.449951%,54.899597%,14.900208%);fill-opacity:1;" d="M 94.699219 158.800781 L 94.898438 67.898438 L 95.199219 67.898438 L 95 158.800781 Z "/>
</g>
<g clip-path="url(#clip60)" clip-rule="nonzero">
<path style=" stroke:none;fill-rule:evenodd;fill:rgb(66.273499%,52.548218%,15.684509%);fill-opacity:1;" d="M 95 158.800781 L 95.199219 67.898438 L 95.398438 67.898438 L 95.300781 158.800781 Z "/>
<path style=" stroke:none;fill-rule:evenodd;fill:rgb(65.489197%,50.195312%,16.468811%);fill-opacity:1;" d="M 95.300781 158.800781 L 95.398438 67.898438 L 95.699219 67.898438 L 95.601562 158.800781 Z "/>
<path style=" stroke:none;fill-rule:evenodd;fill:rgb(64.312744%,48.234558%,17.253113%);fill-opacity:1;" d="M 95.601562 158.800781 L 95.699219 67.898438 L 96 67.898438 L 95.800781 158.800781 Z "/>
</g>
<g clip-path="url(#clip61)" clip-rule="nonzero">
<path style=" stroke:none;fill-rule:evenodd;fill:rgb(63.136292%,45.881653%,18.03894%);fill-opacity:1;" d="M 95.800781 158.800781 L 96 67.898438 L 96.300781 67.898438 L 96.101562 158.800781 Z "/>
</g>
<g clip-path="url(#clip62)" clip-rule="nonzero">
<path style=" stroke:none;fill-rule:evenodd;fill:rgb(61.959839%,43.528748%,18.821716%);fill-opacity:1;" d="M 96.101562 158.800781 L 96.300781 67.898438 L 96.601562 67.898438 L 96.398438 158.800781 Z "/>
</g>
<g clip-path="url(#clip63)" clip-rule="nonzero">
<path style=" stroke:none;fill-rule:evenodd;fill:rgb(59.999084%,39.99939%,19.999695%);fill-opacity:1;" d="M 96.398438 158.800781 L 96.601562 67.898438 L 99.5 68 L 99.300781 158.898438 Z "/>
</g>
<path style="fill:none;stroke-width:0.12;stroke-linecap:butt;stroke-linejoin:round;stroke:rgb(50.195312%,50.195312%,50.195312%);stroke-opacity:1;stroke-miterlimit:10;" d="M 89.300781 683.300781 L 79.398438 683.300781 L 79.398438 774 L 99.199219 774 L 99.199219 683.300781 Z " transform="matrix(1,0,0,-1,0,842)"/>
<g clip-path="url(#clip64)" clip-rule="nonzero">
<path style=" stroke:none;fill-rule:evenodd;fill:rgb(59.999084%,39.99939%,19.999695%);fill-opacity:1;" d="M 113.101562 158.800781 L 113.300781 67.898438 L 116.199219 67.898438 L 116.101562 158.800781 Z "/>
</g>
<g clip-path="url(#clip65)" clip-rule="nonzero">
<path style=" stroke:none;fill-rule:evenodd;fill:rgb(59.999084%,39.99939%,19.999695%);fill-opacity:1;" d="M 116.101562 158.800781 L 116.199219 67.898438 L 116.5 67.898438 L 116.300781 158.800781 Z "/>
<path style=" stroke:none;fill-rule:evenodd;fill:rgb(60.783386%,41.958618%,19.606018%);fill-opacity:1;" d="M 116.300781 158.800781 L 116.5 67.898438 L 116.800781 67.898438 L 116.601562 158.800781 Z "/>
<path style=" stroke:none;fill-rule:evenodd;fill:rgb(61.959839%,44.311523%,18.821716%);fill-opacity:1;" d="M 116.601562 158.800781 L 116.800781 67.898438 L 117 67.898438 L 116.898438 158.800781 Z "/>
</g>
<g clip-path="url(#clip66)" clip-rule="nonzero">
<path style=" stroke:none;fill-rule:evenodd;fill:rgb(63.136292%,46.665955%,18.03894%);fill-opacity:1;" d="M 116.898438 158.800781 L 117 67.898438 L 117.300781 67.898438 L 117.199219 158.800781 Z "/>
</g>
<g clip-path="url(#clip67)" clip-rule="nonzero">
<path style=" stroke:none;fill-rule:evenodd;fill:rgb(64.312744%,49.01886%,17.253113%);fill-opacity:1;" d="M 117.199219 158.800781 L 117.300781 67.898438 L 117.601562 67.898438 L 117.398438 158.800781 Z "/>
<path style=" stroke:none;fill-rule:evenodd;fill:rgb(65.489197%,50.979614%,16.468811%);fill-opacity:1;" d="M 117.398438 158.800781 L 117.601562 67.898438 L 117.898438 67.898438 L 117.699219 158.800781 Z "/>
</g>
<g clip-path="url(#clip68)" clip-rule="nonzero">
<path style=" stroke:none;fill-rule:evenodd;fill:rgb(66.665649%,53.33252%,15.684509%);fill-opacity:1;" d="M 117.699219 158.800781 L 117.898438 67.898438 L 118.199219 67.898438 L 118 158.800781 Z "/>
</g>
<g clip-path="url(#clip69)" clip-rule="nonzero">
<path style=" stroke:none;fill-rule:evenodd;fill:rgb(67.842102%,55.685425%,14.900208%);fill-opacity:1;" d="M 118 158.800781 L 118.199219 67.898438 L 118.5 67.898438 L 118.300781 158.800781 Z "/>
<path style=" stroke:none;fill-rule:evenodd;fill:rgb(69.018555%,58.03833%,14.115906%);fill-opacity:1;" d="M 118.300781 158.800781 L 118.5 67.898438 L 118.699219 67.898438 L 118.601562 158.800781 Z "/>
<path style=" stroke:none;fill-rule:evenodd;fill:rgb(70.195007%,59.999084%,13.331604%);fill-opacity:1;" d="M 118.601562 158.800781 L 118.699219 67.898438 L 119 67.898438 L 118.898438 158.800781 Z "/>
</g>
<g clip-path="url(#clip70)" clip-rule="nonzero">
<path style=" stroke:none;fill-rule:evenodd;fill:rgb(71.37146%,62.35199%,12.548828%);fill-opacity:1;" d="M 118.898438 158.800781 L 119 67.898438 L 119.300781 67.898438 L 119.101562 158.800781 Z "/>
</g>
<g clip-path="url(#clip71)" clip-rule="nonzero">
<path style=" stroke:none;fill-rule:evenodd;fill:rgb(72.155762%,64.704895%,11.763%);fill-opacity:1;" d="M 119.101562 158.800781 L 119.300781 67.898438 L 119.601562 67.898438 L 119.398438 158.800781 Z "/>
<path style=" stroke:none;fill-rule:evenodd;fill:rgb(73.332214%,67.0578%,10.978699%);fill-opacity:1;" d="M 119.398438 158.800781 L 119.601562 67.898438 L 119.898438 67.898438 L 119.699219 158.800781 Z "/>
</g>
<g clip-path="url(#clip72)" clip-rule="nonzero">
<path style=" stroke:none;fill-rule:evenodd;fill:rgb(74.508667%,69.410706%,10.195923%);fill-opacity:1;" d="M 119.699219 158.800781 L 119.898438 67.898438 L 120.199219 67.898438 L 120 158.800781 Z "/>
</g>
<g clip-path="url(#clip73)" clip-rule="nonzero">
<path style=" stroke:none;fill-rule:evenodd;fill:rgb(75.68512%,71.37146%,9.802246%);fill-opacity:1;" d="M 120 158.800781 L 120.199219 67.898438 L 120.398438 67.898438 L 120.300781 158.800781 Z "/>
<path style=" stroke:none;fill-rule:evenodd;fill:rgb(76.861572%,73.724365%,9.017944%);fill-opacity:1;" d="M 120.300781 158.800781 L 120.398438 67.898438 L 120.699219 67.898438 L 120.601562 158.800781 Z "/>
<path style=" stroke:none;fill-rule:evenodd;fill:rgb(78.038025%,76.077271%,8.233643%);fill-opacity:1;" d="M 120.601562 158.800781 L 120.699219 67.898438 L 121 67.898438 L 120.800781 158.800781 Z "/>
</g>
<g clip-path="url(#clip74)" clip-rule="nonzero">
<path style=" stroke:none;fill-rule:evenodd;fill:rgb(79.214478%,78.430176%,7.449341%);fill-opacity:1;" d="M 120.800781 158.800781 L 121 67.898438 L 121.300781 67.898438 L 121.101562 158.800781 Z "/>
</g>
<g clip-path="url(#clip75)" clip-rule="nonzero">
<path style=" stroke:none;fill-rule:evenodd;fill:rgb(80.39093%,80.39093%,6.665039%);fill-opacity:1;" d="M 121.101562 158.800781 L 121.300781 67.898438 L 121.5 67.898438 L 121.398438 158.800781 Z "/>
<path style=" stroke:none;fill-rule:evenodd;fill:rgb(81.567383%,82.743835%,5.880737%);fill-opacity:1;" d="M 121.398438 158.800781 L 121.5 67.898438 L 121.800781 67.898438 L 121.699219 158.800781 Z "/>
</g>
<g clip-path="url(#clip76)" clip-rule="nonzero">
<path style=" stroke:none;fill-rule:evenodd;fill:rgb(82.743835%,85.096741%,5.097961%);fill-opacity:1;" d="M 121.699219 158.800781 L 121.800781 67.898438 L 122.101562 67.898438 L 121.898438 158.800781 Z "/>
<path style=" stroke:none;fill-rule:evenodd;fill:rgb(83.920288%,87.449646%,4.312134%);fill-opacity:1;" d="M 121.898438 158.800781 L 122.101562 67.898438 L 122.398438 67.898438 L 122.199219 158.800781 Z "/>
</g>
<g clip-path="url(#clip77)" clip-rule="nonzero">
<path style=" stroke:none;fill-rule:evenodd;fill:rgb(84.70459%,89.802551%,3.527832%);fill-opacity:1;" d="M 122.199219 158.800781 L 122.398438 67.898438 L 122.699219 67.898438 L 122.5 158.800781 Z "/>
<path style=" stroke:none;fill-rule:evenodd;fill:rgb(85.881042%,91.763306%,2.74353%);fill-opacity:1;" d="M 122.5 158.800781 L 122.699219 67.898438 L 123 67.898438 L 122.800781 158.800781 Z "/>
</g>
<g clip-path="url(#clip78)" clip-rule="nonzero">
<path style=" stroke:none;fill-rule:evenodd;fill:rgb(87.057495%,94.116211%,1.959229%);fill-opacity:1;" d="M 122.800781 158.800781 L 123 67.898438 L 123.300781 67.898438 L 123.101562 158.800781 Z "/>
</g>
<g clip-path="url(#clip79)" clip-rule="nonzero">
<path style=" stroke:none;fill-rule:evenodd;fill:rgb(88.233948%,96.469116%,1.174927%);fill-opacity:1;" d="M 123.101562 158.800781 L 123.300781 67.898438 L 123.5 67.898438 L 123.398438 158.800781 Z "/>
<path style=" stroke:none;fill-rule:evenodd;fill:rgb(89.4104%,98.03772%,0.390625%);fill-opacity:1;" d="M 123.398438 158.800781 L 123.5 67.898438 L 123.800781 67.898438 L 123.601562 158.800781 Z "/>
</g>
<g clip-path="url(#clip80)" clip-rule="nonzero">
<path style=" stroke:none;fill-rule:evenodd;fill:rgb(88.233948%,95.684814%,1.174927%);fill-opacity:1;" d="M 123.601562 158.800781 L 123.800781 67.898438 L 124.101562 67.898438 L 123.898438 158.800781 Z "/>
<path style=" stroke:none;fill-rule:evenodd;fill:rgb(87.057495%,93.331909%,1.959229%);fill-opacity:1;" d="M 123.898438 158.800781 L 124.101562 67.898438 L 124.398438 67.898438 L 124.199219 158.800781 Z "/>
</g>
<g clip-path="url(#clip81)" clip-rule="nonzero">
<path style=" stroke:none;fill-rule:evenodd;fill:rgb(85.881042%,90.979004%,2.74353%);fill-opacity:1;" d="M 124.199219 158.800781 L 124.398438 67.898438 L 124.699219 67.898438 L 124.5 158.800781 Z "/>
<path style=" stroke:none;fill-rule:evenodd;fill:rgb(84.70459%,89.01825%,3.527832%);fill-opacity:1;" d="M 124.5 158.800781 L 124.699219 67.898438 L 125 67.898438 L 124.800781 158.800781 Z "/>
</g>
<g clip-path="url(#clip82)" clip-rule="nonzero">
<path style=" stroke:none;fill-rule:evenodd;fill:rgb(83.528137%,86.665344%,4.312134%);fill-opacity:1;" d="M 124.800781 158.800781 L 125 67.898438 L 125.199219 67.898438 L 125.101562 158.800781 Z "/>
</g>
<g clip-path="url(#clip83)" clip-rule="nonzero">
<path style=" stroke:none;fill-rule:evenodd;fill:rgb(82.351685%,84.312439%,5.097961%);fill-opacity:1;" d="M 125.101562 158.800781 L 125.199219 67.898438 L 125.5 67.898438 L 125.300781 158.800781 Z "/>
<path style=" stroke:none;fill-rule:evenodd;fill:rgb(81.175232%,81.959534%,5.880737%);fill-opacity:1;" d="M 125.300781 158.800781 L 125.5 67.898438 L 125.800781 67.898438 L 125.601562 158.800781 Z "/>
</g>
<g clip-path="url(#clip84)" clip-rule="nonzero">
<path style=" stroke:none;fill-rule:evenodd;fill:rgb(79.998779%,79.998779%,6.665039%);fill-opacity:1;" d="M 125.601562 158.800781 L 125.800781 67.898438 L 126.101562 67.898438 L 125.898438 158.800781 Z "/>
<path style=" stroke:none;fill-rule:evenodd;fill:rgb(78.822327%,77.645874%,7.449341%);fill-opacity:1;" d="M 125.898438 158.800781 L 126.101562 67.898438 L 126.300781 67.898438 L 126.199219 158.800781 Z "/>
</g>
<g clip-path="url(#clip85)" clip-rule="nonzero">
<path style=" stroke:none;fill-rule:evenodd;fill:rgb(78.038025%,75.292969%,8.233643%);fill-opacity:1;" d="M 126.199219 158.800781 L 126.300781 67.898438 L 126.601562 67.898438 L 126.5 158.800781 Z "/>
<path style=" stroke:none;fill-rule:evenodd;fill:rgb(76.861572%,72.940063%,9.017944%);fill-opacity:1;" d="M 126.5 158.800781 L 126.601562 67.898438 L 126.898438 67.898438 L 126.699219 158.800781 Z "/>
</g>
<g clip-path="url(#clip86)" clip-rule="nonzero">
<path style=" stroke:none;fill-rule:evenodd;fill:rgb(75.68512%,70.587158%,9.802246%);fill-opacity:1;" d="M 126.699219 158.800781 L 126.898438 67.898438 L 127.199219 67.898438 L 127 158.800781 Z "/>
</g>
<g clip-path="url(#clip87)" clip-rule="nonzero">
<path style=" stroke:none;fill-rule:evenodd;fill:rgb(74.508667%,68.626404%,10.195923%);fill-opacity:1;" d="M 127 158.800781 L 127.199219 67.898438 L 127.5 67.898438 L 127.300781 158.800781 Z "/>
<path style=" stroke:none;fill-rule:evenodd;fill:rgb(73.332214%,66.273499%,10.978699%);fill-opacity:1;" d="M 127.300781 158.800781 L 127.5 67.898438 L 127.800781 67.898438 L 127.601562 158.800781 Z "/>
<path style=" stroke:none;fill-rule:evenodd;fill:rgb(72.155762%,63.920593%,11.763%);fill-opacity:1;" d="M 127.601562 158.800781 L 127.800781 67.898438 L 128 67.898438 L 127.898438 158.800781 Z "/>
</g>
<g clip-path="url(#clip88)" clip-rule="nonzero">
<path style=" stroke:none;fill-rule:evenodd;fill:rgb(70.979309%,61.567688%,12.548828%);fill-opacity:1;" d="M 127.898438 158.800781 L 128 67.898438 L 128.300781 67.898438 L 128.199219 158.800781 Z "/>
</g>
<g clip-path="url(#clip89)" clip-rule="nonzero">
<path style=" stroke:none;fill-rule:evenodd;fill:rgb(69.802856%,59.606934%,13.331604%);fill-opacity:1;" d="M 128.199219 158.800781 L 128.300781 67.898438 L 128.601562 67.898438 L 128.398438 158.800781 Z "/>
<path style=" stroke:none;fill-rule:evenodd;fill:rgb(68.626404%,57.252502%,14.115906%);fill-opacity:1;" d="M 128.398438 158.800781 L 128.601562 67.898438 L 128.898438 67.898438 L 128.699219 158.800781 Z "/>
</g>
<g clip-path="url(#clip90)" clip-rule="nonzero">
<path style=" stroke:none;fill-rule:evenodd;fill:rgb(67.449951%,54.899597%,14.900208%);fill-opacity:1;" d="M 128.699219 158.800781 L 128.898438 67.898438 L 129.199219 67.898438 L 129 158.800781 Z "/>
</g>
<g clip-path="url(#clip91)" clip-rule="nonzero">
<path style=" stroke:none;fill-rule:evenodd;fill:rgb(66.273499%,52.548218%,15.684509%);fill-opacity:1;" d="M 129 158.800781 L 129.199219 67.898438 L 129.5 67.898438 L 129.300781 158.800781 Z "/>
<path style=" stroke:none;fill-rule:evenodd;fill:rgb(65.489197%,50.195312%,16.468811%);fill-opacity:1;" d="M 129.300781 158.800781 L 129.5 67.898438 L 129.699219 67.898438 L 129.601562 158.800781 Z "/>
<path style=" stroke:none;fill-rule:evenodd;fill:rgb(64.312744%,48.234558%,17.253113%);fill-opacity:1;" d="M 129.601562 158.800781 L 129.699219 67.898438 L 130 67.898438 L 129.898438 158.800781 Z "/>
</g>
<g clip-path="url(#clip92)" clip-rule="nonzero">
<path style=" stroke:none;fill-rule:evenodd;fill:rgb(63.136292%,45.881653%,18.03894%);fill-opacity:1;" d="M 129.898438 158.800781 L 130 67.898438 L 130.300781 67.898438 L 130.101562 158.800781 Z "/>
</g>
<g clip-path="url(#clip93)" clip-rule="nonzero">
<path style=" stroke:none;fill-rule:evenodd;fill:rgb(61.959839%,43.528748%,18.821716%);fill-opacity:1;" d="M 130.101562 158.800781 L 130.300781 67.898438 L 130.601562 67.898438 L 130.398438 158.800781 Z "/>
</g>
<g clip-path="url(#clip94)" clip-rule="nonzero">
<path style=" stroke:none;fill-rule:evenodd;fill:rgb(59.999084%,39.99939%,19.999695%);fill-opacity:1;" d="M 130.398438 158.800781 L 130.601562 67.898438 L 133.5 68 L 133.300781 158.898438 Z "/>
</g>
<path style="fill:none;stroke-width:0.12;stroke-linecap:butt;stroke-linejoin:round;stroke:rgb(50.195312%,50.195312%,50.195312%);stroke-opacity:1;stroke-miterlimit:10;" d="M 123.300781 683.300781 L 113.398438 683.300781 L 113.398438 774 L 133.199219 774 L 133.199219 683.300781 Z " transform="matrix(1,0,0,-1,0,842)"/>
<g clip-path="url(#clip95)" clip-rule="nonzero">
<path style=" stroke:none;fill-rule:evenodd;fill:rgb(59.999084%,39.99939%,19.999695%);fill-opacity:1;" d="M 147.101562 158.800781 L 147.300781 67.898438 L 150.199219 67.898438 L 150.101562 158.800781 Z "/>
</g>
<g clip-path="url(#clip96)" clip-rule="nonzero">
<path style=" stroke:none;fill-rule:evenodd;fill:rgb(59.999084%,39.99939%,19.999695%);fill-opacity:1;" d="M 150.101562 158.800781 L 150.199219 67.898438 L 150.5 67.898438 L 150.300781 158.800781 Z "/>
<path style=" stroke:none;fill-rule:evenodd;fill:rgb(60.783386%,41.958618%,19.606018%);fill-opacity:1;" d="M 150.300781 158.800781 L 150.5 67.898438 L 150.800781 67.898438 L 150.601562 158.800781 Z "/>
</g>
<g clip-path="url(#clip97)" clip-rule="nonzero">
<path style=" stroke:none;fill-rule:evenodd;fill:rgb(61.959839%,44.311523%,18.821716%);fill-opacity:1;" d="M 150.601562 158.800781 L 150.800781 67.898438 L 151.101562 67.898438 L 150.898438 158.800781 Z "/>
<path style=" stroke:none;fill-rule:evenodd;fill:rgb(63.136292%,46.665955%,18.03894%);fill-opacity:1;" d="M 150.898438 158.800781 L 151.101562 67.898438 L 151.300781 67.898438 L 151.199219 158.800781 Z "/>
</g>
<g clip-path="url(#clip98)" clip-rule="nonzero">
<path style=" stroke:none;fill-rule:evenodd;fill:rgb(64.312744%,49.01886%,17.253113%);fill-opacity:1;" d="M 151.199219 158.800781 L 151.300781 67.898438 L 151.601562 67.898438 L 151.5 158.800781 Z "/>
<path style=" stroke:none;fill-rule:evenodd;fill:rgb(65.489197%,50.979614%,16.468811%);fill-opacity:1;" d="M 151.5 158.800781 L 151.601562 67.898438 L 151.898438 67.898438 L 151.699219 158.800781 Z "/>
</g>
<g clip-path="url(#clip99)" clip-rule="nonzero">
<path style=" stroke:none;fill-rule:evenodd;fill:rgb(66.665649%,53.33252%,15.684509%);fill-opacity:1;" d="M 151.699219 158.800781 L 151.898438 67.898438 L 152.199219 67.898438 L 152 158.800781 Z "/>
</g>
<g clip-path="url(#clip100)" clip-rule="nonzero">
<path style=" stroke:none;fill-rule:evenodd;fill:rgb(67.842102%,55.685425%,14.900208%);fill-opacity:1;" d="M 152 158.800781 L 152.199219 67.898438 L 152.5 67.898438 L 152.300781 158.800781 Z "/>
<path style=" stroke:none;fill-rule:evenodd;fill:rgb(69.018555%,58.03833%,14.115906%);fill-opacity:1;" d="M 152.300781 158.800781 L 152.5 67.898438 L 152.800781 67.898438 L 152.601562 158.800781 Z "/>
<path style=" stroke:none;fill-rule:evenodd;fill:rgb(70.195007%,59.999084%,13.331604%);fill-opacity:1;" d="M 152.601562 158.800781 L 152.800781 67.898438 L 153 67.898438 L 152.898438 158.800781 Z "/>
</g>
<g clip-path="url(#clip101)" clip-rule="nonzero">
<path style=" stroke:none;fill-rule:evenodd;fill:rgb(71.37146%,62.35199%,12.548828%);fill-opacity:1;" d="M 152.898438 158.800781 L 153 67.898438 L 153.300781 67.898438 L 153.199219 158.800781 Z "/>
</g>
<g clip-path="url(#clip102)" clip-rule="nonzero">
<path style=" stroke:none;fill-rule:evenodd;fill:rgb(72.155762%,64.704895%,11.763%);fill-opacity:1;" d="M 153.199219 158.800781 L 153.300781 67.898438 L 153.601562 67.898438 L 153.398438 158.800781 Z "/>
<path style=" stroke:none;fill-rule:evenodd;fill:rgb(73.332214%,67.0578%,10.978699%);fill-opacity:1;" d="M 153.398438 158.800781 L 153.601562 67.898438 L 153.898438 67.898438 L 153.699219 158.800781 Z "/>
</g>
<g clip-path="url(#clip103)" clip-rule="nonzero">
<path style=" stroke:none;fill-rule:evenodd;fill:rgb(74.508667%,69.410706%,10.195923%);fill-opacity:1;" d="M 153.699219 158.800781 L 153.898438 67.898438 L 154.199219 67.898438 L 154 158.800781 Z "/>
</g>
<g clip-path="url(#clip104)" clip-rule="nonzero">
<path style=" stroke:none;fill-rule:evenodd;fill:rgb(75.68512%,71.37146%,9.802246%);fill-opacity:1;" d="M 154 158.800781 L 154.199219 67.898438 L 154.5 67.898438 L 154.300781 158.800781 Z "/>
<path style=" stroke:none;fill-rule:evenodd;fill:rgb(76.861572%,73.724365%,9.017944%);fill-opacity:1;" d="M 154.300781 158.800781 L 154.5 67.898438 L 154.699219 67.898438 L 154.601562 158.800781 Z "/>
<path style=" stroke:none;fill-rule:evenodd;fill:rgb(78.038025%,76.077271%,8.233643%);fill-opacity:1;" d="M 154.601562 158.800781 L 154.699219 67.898438 L 155 67.898438 L 154.898438 158.800781 Z "/>
</g>
<g clip-path="url(#clip105)" clip-rule="nonzero">
<path style=" stroke:none;fill-rule:evenodd;fill:rgb(79.214478%,78.430176%,7.449341%);fill-opacity:1;" d="M 154.898438 158.800781 L 155 67.898438 L 155.300781 67.898438 L 155.101562 158.800781 Z "/>
</g>
<g clip-path="url(#clip106)" clip-rule="nonzero">
<path style=" stroke:none;fill-rule:evenodd;fill:rgb(80.39093%,80.39093%,6.665039%);fill-opacity:1;" d="M 155.101562 158.800781 L 155.300781 67.898438 L 155.601562 67.898438 L 155.398438 158.800781 Z "/>
<path style=" stroke:none;fill-rule:evenodd;fill:rgb(81.567383%,82.743835%,5.880737%);fill-opacity:1;" d="M 155.398438 158.800781 L 155.601562 67.898438 L 155.800781 67.898438 L 155.699219 158.800781 Z "/>
</g>
<g clip-path="url(#clip107)" clip-rule="nonzero">
<path style=" stroke:none;fill-rule:evenodd;fill:rgb(82.743835%,85.096741%,5.097961%);fill-opacity:1;" d="M 155.699219 158.800781 L 155.800781 67.898438 L 156.101562 67.898438 L 156 158.800781 Z "/>
</g>
<g clip-path="url(#clip108)" clip-rule="nonzero">
<path style=" stroke:none;fill-rule:evenodd;fill:rgb(83.920288%,87.449646%,4.312134%);fill-opacity:1;" d="M 156 158.800781 L 156.101562 67.898438 L 156.398438 67.898438 L 156.199219 158.800781 Z "/>
<path style=" stroke:none;fill-rule:evenodd;fill:rgb(84.70459%,89.802551%,3.527832%);fill-opacity:1;" d="M 156.199219 158.800781 L 156.398438 67.898438 L 156.699219 67.898438 L 156.5 158.800781 Z "/>
<path style=" stroke:none;fill-rule:evenodd;fill:rgb(85.881042%,91.763306%,2.74353%);fill-opacity:1;" d="M 156.5 158.800781 L 156.699219 67.898438 L 157 67.898438 L 156.800781 158.800781 Z "/>
</g>
<g clip-path="url(#clip109)" clip-rule="nonzero">
<path style=" stroke:none;fill-rule:evenodd;fill:rgb(87.057495%,94.116211%,1.959229%);fill-opacity:1;" d="M 156.800781 158.800781 L 157 67.898438 L 157.300781 67.898438 L 157.101562 158.800781 Z "/>
</g>
<g clip-path="url(#clip110)" clip-rule="nonzero">
<path style=" stroke:none;fill-rule:evenodd;fill:rgb(88.233948%,96.469116%,1.174927%);fill-opacity:1;" d="M 157.101562 158.800781 L 157.300781 67.898438 L 157.5 67.898438 L 157.398438 158.800781 Z "/>
<path style=" stroke:none;fill-rule:evenodd;fill:rgb(89.4104%,98.03772%,0.390625%);fill-opacity:1;" d="M 157.398438 158.800781 L 157.5 67.898438 L 157.800781 67.898438 L 157.699219 158.800781 Z "/>
</g>
<g clip-path="url(#clip111)" clip-rule="nonzero">
<path style=" stroke:none;fill-rule:evenodd;fill:rgb(88.233948%,95.684814%,1.174927%);fill-opacity:1;" d="M 157.699219 158.800781 L 157.800781 67.898438 L 158.101562 67.898438 L 157.898438 158.800781 Z "/>
<path style=" stroke:none;fill-rule:evenodd;fill:rgb(87.057495%,93.331909%,1.959229%);fill-opacity:1;" d="M 157.898438 158.800781 L 158.101562 67.898438 L 158.398438 67.898438 L 158.199219 158.800781 Z "/>
</g>
<g clip-path="url(#clip112)" clip-rule="nonzero">
<path style=" stroke:none;fill-rule:evenodd;fill:rgb(85.881042%,90.979004%,2.74353%);fill-opacity:1;" d="M 158.199219 158.800781 L 158.398438 67.898438 L 158.699219 67.898438 L 158.5 158.800781 Z "/>
<path style=" stroke:none;fill-rule:evenodd;fill:rgb(84.70459%,89.01825%,3.527832%);fill-opacity:1;" d="M 158.5 158.800781 L 158.699219 67.898438 L 159 67.898438 L 158.800781 158.800781 Z "/>
</g>
<g clip-path="url(#clip113)" clip-rule="nonzero">
<path style=" stroke:none;fill-rule:evenodd;fill:rgb(83.528137%,86.665344%,4.312134%);fill-opacity:1;" d="M 158.800781 158.800781 L 159 67.898438 L 159.300781 67.898438 L 159.101562 158.800781 Z "/>
</g>
<g clip-path="url(#clip114)" clip-rule="nonzero">
<path style=" stroke:none;fill-rule:evenodd;fill:rgb(82.351685%,84.312439%,5.097961%);fill-opacity:1;" d="M 159.101562 158.800781 L 159.300781 67.898438 L 159.5 67.898438 L 159.398438 158.800781 Z "/>
<path style=" stroke:none;fill-rule:evenodd;fill:rgb(81.175232%,81.959534%,5.880737%);fill-opacity:1;" d="M 159.398438 158.800781 L 159.5 67.898438 L 159.800781 67.898438 L 159.601562 158.800781 Z "/>
</g>
<g clip-path="url(#clip115)" clip-rule="nonzero">
<path style=" stroke:none;fill-rule:evenodd;fill:rgb(79.998779%,79.998779%,6.665039%);fill-opacity:1;" d="M 159.601562 158.800781 L 159.800781 67.898438 L 160.101562 67.898438 L 159.898438 158.800781 Z "/>
<path style=" stroke:none;fill-rule:evenodd;fill:rgb(78.822327%,77.645874%,7.449341%);fill-opacity:1;" d="M 159.898438 158.800781 L 160.101562 67.898438 L 160.398438 67.898438 L 160.199219 158.800781 Z "/>
</g>
<g clip-path="url(#clip116)" clip-rule="nonzero">
<path style=" stroke:none;fill-rule:evenodd;fill:rgb(78.038025%,75.292969%,8.233643%);fill-opacity:1;" d="M 160.199219 158.800781 L 160.398438 67.898438 L 160.601562 67.898438 L 160.5 158.800781 Z "/>
<path style=" stroke:none;fill-rule:evenodd;fill:rgb(76.861572%,72.940063%,9.017944%);fill-opacity:1;" d="M 160.5 158.800781 L 160.601562 67.898438 L 160.898438 67.898438 L 160.800781 158.800781 Z "/>
</g>
<g clip-path="url(#clip117)" clip-rule="nonzero">
<path style=" stroke:none;fill-rule:evenodd;fill:rgb(75.68512%,70.587158%,9.802246%);fill-opacity:1;" d="M 160.800781 158.800781 L 160.898438 67.898438 L 161.199219 67.898438 L 161 158.800781 Z "/>
</g>
<g clip-path="url(#clip118)" clip-rule="nonzero">
<path style=" stroke:none;fill-rule:evenodd;fill:rgb(74.508667%,68.626404%,10.195923%);fill-opacity:1;" d="M 161 158.800781 L 161.199219 67.898438 L 161.5 67.898438 L 161.300781 158.800781 Z "/>
<path style=" stroke:none;fill-rule:evenodd;fill:rgb(73.332214%,66.273499%,10.978699%);fill-opacity:1;" d="M 161.300781 158.800781 L 161.5 67.898438 L 161.800781 67.898438 L 161.601562 158.800781 Z "/>
</g>
<g clip-path="url(#clip119)" clip-rule="nonzero">
<path style=" stroke:none;fill-rule:evenodd;fill:rgb(72.155762%,63.920593%,11.763%);fill-opacity:1;" d="M 161.601562 158.800781 L 161.800781 67.898438 L 162.101562 67.898438 L 161.898438 158.800781 Z "/>
<path style=" stroke:none;fill-rule:evenodd;fill:rgb(70.979309%,61.567688%,12.548828%);fill-opacity:1;" d="M 161.898438 158.800781 L 162.101562 67.898438 L 162.300781 67.898438 L 162.199219 158.800781 Z "/>
</g>
<g clip-path="url(#clip120)" clip-rule="nonzero">
<path style=" stroke:none;fill-rule:evenodd;fill:rgb(69.802856%,59.606934%,13.331604%);fill-opacity:1;" d="M 162.199219 158.800781 L 162.300781 67.898438 L 162.601562 67.898438 L 162.5 158.800781 Z "/>
<path style=" stroke:none;fill-rule:evenodd;fill:rgb(68.626404%,57.252502%,14.115906%);fill-opacity:1;" d="M 162.5 158.800781 L 162.601562 67.898438 L 162.898438 67.898438 L 162.699219 158.800781 Z "/>
</g>
<g clip-path="url(#clip121)" clip-rule="nonzero">
<path style=" stroke:none;fill-rule:evenodd;fill:rgb(67.449951%,54.899597%,14.900208%);fill-opacity:1;" d="M 162.699219 158.800781 L 162.898438 67.898438 L 163.199219 67.898438 L 163 158.800781 Z "/>
</g>
<g clip-path="url(#clip122)" clip-rule="nonzero">
<path style=" stroke:none;fill-rule:evenodd;fill:rgb(66.273499%,52.548218%,15.684509%);fill-opacity:1;" d="M 163 158.800781 L 163.199219 67.898438 L 163.5 67.898438 L 163.300781 158.800781 Z "/>
<path style=" stroke:none;fill-rule:evenodd;fill:rgb(65.489197%,50.195312%,16.468811%);fill-opacity:1;" d="M 163.300781 158.800781 L 163.5 67.898438 L 163.800781 67.898438 L 163.601562 158.800781 Z "/>
<path style=" stroke:none;fill-rule:evenodd;fill:rgb(64.312744%,48.234558%,17.253113%);fill-opacity:1;" d="M 163.601562 158.800781 L 163.800781 67.898438 L 164 67.898438 L 163.898438 158.800781 Z "/>
</g>
<g clip-path="url(#clip123)" clip-rule="nonzero">
<path style=" stroke:none;fill-rule:evenodd;fill:rgb(63.136292%,45.881653%,18.03894%);fill-opacity:1;" d="M 163.898438 158.800781 L 164 67.898438 L 164.300781 67.898438 L 164.199219 158.800781 Z "/>
</g>
<g clip-path="url(#clip124)" clip-rule="nonzero">
<path style=" stroke:none;fill-rule:evenodd;fill:rgb(61.959839%,43.528748%,18.821716%);fill-opacity:1;" d="M 164.199219 158.800781 L 164.300781 67.898438 L 164.601562 67.898438 L 164.398438 158.800781 Z "/>
</g>
<g clip-path="url(#clip125)" clip-rule="nonzero">
<path style=" stroke:none;fill-rule:evenodd;fill:rgb(59.999084%,39.99939%,19.999695%);fill-opacity:1;" d="M 164.398438 158.800781 L 164.601562 67.898438 L 167.5 68 L 167.300781 158.898438 Z "/>
</g>
<path style="fill:none;stroke-width:0.12;stroke-linecap:butt;stroke-linejoin:round;stroke:rgb(50.195312%,50.195312%,50.195312%);stroke-opacity:1;stroke-miterlimit:10;" d="M 157.300781 683.300781 L 147.398438 683.300781 L 147.398438 774 L 167.199219 774 L 167.199219 683.300781 Z " transform="matrix(1,0,0,-1,0,842)"/>
<path style="fill-rule:evenodd;fill:rgb(100%,100%,39.99939%);fill-opacity:1;stroke-width:0.12;stroke-linecap:butt;stroke-linejoin:round;stroke:rgb(50.195312%,50.195312%,50.195312%);stroke-opacity:1;stroke-miterlimit:10;" d="M 110.898438 813.699219 L 189.898438 774 L 28.300781 774 Z " transform="matrix(1,0,0,-1,0,842)"/>
<path style="fill:none;stroke-width:0.12;stroke-linecap:butt;stroke-linejoin:round;stroke:rgb(50.195312%,50.195312%,50.195312%);stroke-opacity:1;stroke-miterlimit:10;" d="M 28.300781 813.699219 Z " transform="matrix(1,0,0,-1,0,842)"/>
<path style="fill:none;stroke-width:0.12;stroke-linecap:butt;stroke-linejoin:round;stroke:rgb(50.195312%,50.195312%,50.195312%);stroke-opacity:1;stroke-miterlimit:10;" d="M 189.898438 773.898438 Z " transform="matrix(1,0,0,-1,0,842)"/>
<path style="fill-rule:evenodd;fill:rgb(100%,100%,59.999084%);fill-opacity:1;stroke-width:0.12;stroke-linecap:butt;stroke-linejoin:round;stroke:rgb(50.195312%,50.195312%,50.195312%);stroke-opacity:1;stroke-miterlimit:10;" d="M 109.800781 808 L 170.101562 779.601562 L 48.199219 779.601562 Z " transform="matrix(1,0,0,-1,0,842)"/>
<path style="fill:none;stroke-width:0.12;stroke-linecap:butt;stroke-linejoin:round;stroke:rgb(50.195312%,50.195312%,50.195312%);stroke-opacity:1;stroke-miterlimit:10;" d="M 48.199219 808 Z " transform="matrix(1,0,0,-1,0,842)"/>
<path style="fill:none;stroke-width:0.12;stroke-linecap:butt;stroke-linejoin:round;stroke:rgb(50.195312%,50.195312%,50.195312%);stroke-opacity:1;stroke-miterlimit:10;" d="M 170.101562 779.601562 Z " transform="matrix(1,0,0,-1,0,842)"/>
<path style="fill-rule:evenodd;fill:rgb(59.999084%,39.99939%,19.999695%);fill-opacity:1;stroke-width:0.12;stroke-linecap:butt;stroke-linejoin:round;stroke:rgb(50.195312%,50.195312%,50.195312%);stroke-opacity:1;stroke-miterlimit:10;" d="M 106.300781 674.800781 L 31.199219 674.800781 L 31.199219 683.300781 L 181.398438 683.300781 L 181.398438 674.800781 Z " transform="matrix(1,0,0,-1,0,842)"/>
</g>
</svg>
